<?xml version="1.0" encoding="UTF-8"?>
<svg width="40px" height="40px" viewBox="0 0 40 40" version="1.1" xmlns="http://www.w3.org/2000/svg" xmlns:xlink="http://www.w3.org/1999/xlink">
    <!-- Generator: Sketch 62 (91390) - https://sketch.com -->
    <title>facebook</title>
    <desc>Created with Sketch.</desc>
    <g id="UI" stroke="none" stroke-width="1" fill="none" fill-rule="evenodd">
        <g id="Icons" transform="translate(-53.000000, -232.000000)">
            <g id="facebook" transform="translate(53.000000, 232.000000)">
                <circle id="Oval" fill="#3B5998" cx="20" cy="20" r="20"></circle>
                <path d="M14.7831964,20.7823906 L17.3871595,20.7823906 L17.3871595,31.6129063 C17.3871595,31.82675 17.5586444,32 17.7703095,32 L22.1854428,32 C22.3971079,32 22.5685928,31.82675 22.5685928,31.6129063 L22.5685928,20.8334375 L25.5621088,20.8334375 C25.756746,20.8334375 25.9205289,20.685875 25.9427533,20.4905469 L26.3974017,16.5033125 C26.4098827,16.393625 26.3755022,16.28375 26.3028438,16.2014375 C26.230139,16.1190781 26.1260696,16.0719219 26.01685,16.0719219 L22.5687784,16.0719219 L22.5687784,13.5725 C22.5687784,12.8190781 22.9703018,12.437 23.7623987,12.437 C23.8752837,12.437 26.01685,12.437 26.01685,12.437 C26.2285151,12.437 26.4,12.2636563 26.4,12.0499062 L26.4,8.38995312 C26.4,8.17610937 26.2285151,8.00285937 26.01685,8.00285937 L22.9098459,8.00285937 C22.8879463,8.00178125 22.8392754,8 22.767545,8 C22.2284532,8 20.3546001,8.10692187 18.8743828,9.48265625 C17.2343264,11.0072187 17.4623234,12.8325781 17.5167939,13.1490781 L17.5167939,16.0718281 L14.78315,16.0718281 C14.5714849,16.0718281 14.4,16.2450781 14.4,16.4589219 L14.4,20.39525 C14.4,20.6090469 14.5715313,20.7823906 14.7831964,20.7823906 Z" id="Path" fill="#FFFFFF" fill-rule="nonzero"></path>
            </g>
        </g>
    </g>
</svg>