<?xml version="1.0" encoding="UTF-8"?>
<svg width="40px" height="40px" viewBox="0 0 40 40" version="1.1" xmlns="http://www.w3.org/2000/svg" xmlns:xlink="http://www.w3.org/1999/xlink">
    <!-- Generator: Sketch 62 (91390) - https://sketch.com -->
    <title>twitter</title>
    <desc>Created with Sketch.</desc>
    <g id="UI" stroke="none" stroke-width="1" fill="none" fill-rule="evenodd">
        <g id="Icons" transform="translate(-345.000000, -232.000000)">
            <g id="twitter" transform="translate(345.000000, 232.000000)">
                <circle id="Oval-Copy-2" fill="#00ACED" cx="20" cy="20" r="20"></circle>
                <path d="M32,12.7676923 C31.1075,13.1692308 30.1565,13.4353846 29.165,13.5646154 C30.185,12.94 30.9635,11.9584615 31.3295,10.7753846 C30.3785,11.3569231 29.3285,11.7676923 28.2095,11.9969231 C27.3065,11.0107692 26.0195,10.4 24.6155,10.4 C21.8915,10.4 19.6985,12.6676923 19.6985,15.4476923 C19.6985,15.8476923 19.7315,16.2323077 19.8125,16.5984615 C15.722,16.3938462 12.1025,14.3830769 9.671,11.32 C9.2465,12.0753846 8.9975,12.94 8.9975,13.8707692 C8.9975,15.6184615 9.875,17.1676923 11.183,18.0646154 C10.3925,18.0492308 9.617,17.8138462 8.96,17.4430769 C8.96,17.4584615 8.96,17.4784615 8.96,17.4984615 C8.96,19.9507692 10.6655,21.9876923 12.902,22.4569231 C12.5015,22.5692308 12.065,22.6230769 11.612,22.6230769 C11.297,22.6230769 10.979,22.6046154 10.6805,22.5369231 C11.318,24.5353846 13.127,26.0046154 15.278,26.0523077 C13.604,27.3953846 11.4785,28.2046154 9.1775,28.2046154 C8.774,28.2046154 8.387,28.1861538 8,28.1353846 C10.1795,29.5769231 12.7625,30.4 15.548,30.4 C24.602,30.4 29.552,22.7076923 29.552,16.04 C29.552,15.8169231 29.5445,15.6015385 29.534,15.3876923 C30.5105,14.6769231 31.331,13.7892308 32,12.7676923 Z" id="Path" fill="#FFFFFF" fill-rule="nonzero"></path>
            </g>
        </g>
    </g>
</svg>