<?xml version="1.0" encoding="UTF-8"?>
<svg width="25px" height="25px" viewBox="0 0 25 25" version="1.1" xmlns="http://www.w3.org/2000/svg" xmlns:xlink="http://www.w3.org/1999/xlink">
    <!-- Generator: Sketch 64 (93537) - https://sketch.com -->
    <title>Reservamos/Atoms/Icons/Amenities/coffee</title>
    <desc>Created with Sketch.</desc>
    <g id="Reservamos/Atoms/Icons/Amenities/coffee" stroke="none" stroke-width="1" fill="none" fill-rule="evenodd">
        <g id="coffee" transform="translate(1.000000, 7.000000)">
            <path d="M1.61752976,4.81885938 C2.22333333,4.2849308 4.7338244,2.4161808 8.42854167,4.34996057 C9.33895833,4.82570461 10.4615774,4.79147842 11.3326339,4.2489933 C11.7844196,3.96662723 12.2601637,3.57131473 12.6828571,3.02198438 C12.6828571,3.02198438 15.1916369,0.116180804 18.0426786,3.18627009 C18.1042857,3.25301116 18.133378,3.34371057 18.1042857,3.42927604 C17.8013839,4.31231176 15.7734821,9.44281771 9.4416369,9.6892968 L9.42623512,9.6892968 C9.30302083,9.69095759 4.36075893,9.6755558 1.58159226,5.13031771 C1.51998512,5.03106176 1.52854167,4.8958683 1.61752976,4.81885938" id="Fill-1" fill="#FF79A4"></path>
            <path d="M9.43051339,0.213896577 L17.8963616,0.213896577 C18.3190551,0.213896577 18.6818527,0.578405506 18.6459152,1.00109896 C18.2403348,5.71233408 14.2392932,9.68941741 9.43051339,9.68941741 C4.63029018,9.68941741 0.63438244,5.72944717 0.216822917,1.03019122 C0.179174107,0.607497768 0.540260417,0.24127753 0.964665179,0.24127753 L9.43051339,0.213896577 Z" id="Stroke-3" stroke="#181212" stroke-width="0.7912"></path>
            <path d="M7.22275298,9.58759449 L7.22275298,10.5031451 C7.22275298,10.5784427 7.27751488,10.6383385 7.34425595,10.6383385 L11.5181399,10.6383385 C11.584881,10.6383385 11.6396429,10.5784427 11.6396429,10.5031451 L11.6396429,9.6064189" id="Stroke-5" stroke="#181212" stroke-width="0.7912"></path>
            <path d="M18.6488244,1.27507961 C18.6488244,1.27507961 20.2933929,-0.321572173 21.7873661,0.801046875 C24.020625,2.47813021 22.5352083,7.00625521 16.6243452,6.07701414" id="Stroke-8" stroke="#181212" stroke-width="0.7912"></path>
        </g>
    </g>
</svg>