<?xml version="1.0" encoding="UTF-8"?>
<svg width="84px" height="57px" viewBox="0 0 84 57" version="1.1" xmlns="http://www.w3.org/2000/svg" xmlns:xlink="http://www.w3.org/1999/xlink">
    <!-- Generator: Sketch 64 (93537) - https://sketch.com -->
    <title>Group 41</title>
    <desc>Created with Sketch.</desc>
    <g id="Hotels-1st-Draft-🖥" stroke="none" stroke-width="1" fill="none" fill-rule="evenodd">
        <g id="Falla-Desktop" transform="translate(-221.000000, -98.000000)">
            <g id="Group-41" transform="translate(221.000000, 99.000000)">
                <path d="M19.5749756,50.8334048 L0.70554301,50.8334048 C0.28226176,50.8334048 -0.051907648,50.4680462 0.00824284539,50.0469928 C0.259983799,48.2291112 1.46744926,43.8849089 7.24189663,43.9717929 C7.61839416,43.9762485 7.94588018,43.7178242 7.97261373,43.3413266 C8.07509235,41.8910314 8.88378232,38.5649319 13.9676129,38.5649319 C20.2789591,38.5649319 19.5749756,44.7002822 19.5749756,44.7002822" id="Fill-1" fill="#F0E4F6" opacity="0.78"></path>
                <path d="M64.2875107,41.6591178 L83.1569433,41.6591178 C83.5802245,41.6591178 83.9143939,41.2937593 83.8542434,40.8727058 C83.6025025,39.0548243 82.395037,34.710622 76.6205896,34.797506 C76.2440921,34.8019616 75.9166061,34.5435373 75.8898725,34.1670397 C75.7873939,32.7167445 74.9787039,29.390645 69.8948734,29.390645 C63.5835271,29.390645 64.2875107,35.5259953 64.2875107,35.5259953" id="Fill-3" fill="#F0E4F6" opacity="0.78"></path>
                <g id="Group-8" transform="translate(19.791118, 16.946059)">
                    <path d="M6.80653865,12.7745228 L0.30582977,9.11202607 C0.218945724,9.06301456 0.194439967,8.96944712 0.252362664,8.89592985 L7.18303618,0.0582629112" id="Fill-5" fill="#D8D0C0"></path>
                    <path d="M6.80653865,12.7745228 L0.30582977,9.11202607 C0.218945724,9.06301456 0.194439967,8.96944712 0.252362664,8.89592985 L7.18303618,0.0582629112" id="Stroke-7" stroke="#3B3D44" stroke-width="1.3125" stroke-linecap="round"></path>
                </g>
                <g id="Group-12" transform="translate(55.694901, 16.289809)">
                    <path d="M0.421053454,13.3394331 L7.02646875,9.8640713 C7.1133528,9.81951538 7.14008635,9.72372015 7.08439145,9.65020288 L0.409914474,0.618717681" id="Fill-9" fill="#D8D0C0"></path>
                    <path d="M0.421053454,13.3394331 L7.02646875,9.8640713 C7.1133528,9.81951538 7.14008635,9.72372015 7.08439145,9.65020288 L0.409914474,0.618717681" id="Stroke-11" stroke="#3B3D44" stroke-width="1.3125" stroke-linecap="round"></path>
                </g>
                <path d="M55.5654664,31.1465938 L55.5654664,2.16296719 C55.5654664,1.27630436 55.1488685,0.556726234 54.6387032,0.556726234 L47.6679294,0.556726234 C47.4406942,0.556726234 47.2491037,0.723810937 47.1354861,1.06911933 C46.6074984,2.69763824 44.5668373,5.03014071 41.4055947,5.03014071 C38.2844524,5.03014071 36.5601382,2.67981587 36.0254672,1.06020814 C35.9140774,0.719355345 35.7224869,0.556726234 35.4952517,0.556726234 L28.5222501,0.556726234 C28.009857,0.556726234 27.5932591,1.27630436 27.5932591,2.16296719 L27.2433224,29.9658619 C27.234584,30.7990576 27.5709812,31.5721029 28.1279302,31.9953841 L40.6726498,41.543718 C41.2563323,41.9870494 41.9848216,41.9692271 42.5551374,41.4969343 L55.5654664,31.1465938 Z" id="Fill-13" fill="#FFFFFF"></path>
                <polyline id="Stroke-15" stroke="#3B3D44" stroke-width="1.11389803" stroke-linecap="round" points="52.9504794 33.2275781 55.5659119 31.1468166 55.5659119 27.8051225"></polyline>
                <path d="M55.5654664,25.5249733 L55.5654664,2.16430387 C55.5654664,1.27541324 55.1488685,0.555835115 54.6387032,0.555835115 L47.6679294,0.555835115 C47.4406942,0.555835115 47.2491037,0.725147615 47.1354861,1.06822821 C46.6074984,2.69897492 44.5668373,5.03147738 41.4055947,5.03147738 C38.2844524,5.03147738 36.5601382,2.68115255 36.0254672,1.05931702 C35.9140774,0.720692023 35.7224869,0.555835115 35.4952517,0.555835115 L28.5222501,0.555835115 C28.009857,0.555835115 27.5932591,1.27541324 27.5932591,2.16430387 L27.2433224,29.9671986 C27.234584,30.7981665 27.5709812,31.5734396 28.1279302,31.9967208 L40.6726498,41.5428269 C41.2563323,41.9861583 41.9848216,41.9683359 42.5551374,41.498271 L52.9500338,33.228692" id="Stroke-17" stroke="#3B3D44" stroke-width="1.3125" stroke-linecap="round" stroke-dasharray="6.843789607286453,2.281263202428818,0,0,0,0"></path>
                <path d="M64.5093992,55.1769387 L18.9108696,55.1769387 C17.9907898,55.1769387 17.2422503,54.4306271 17.2422503,53.5083195 L17.2422503,26.5698096 C17.2422503,25.5361123 18.3851097,24.9078738 19.2584058,25.462595 L40.0860711,38.6533754 C41.0774403,39.2816139 42.3428285,39.2816139 43.3341977,38.6533754 L64.161863,25.462595 C65.035159,24.9078738 66.1780184,25.5361123 66.1780184,26.5698096 L66.1780184,53.5083195 C66.1780184,54.4306271 65.4294789,55.1769387 64.5093992,55.1769387" id="Fill-19" fill="#F5F0E3"></path>
                <path d="M64.5093992,55.1769387 L18.9108696,55.1769387 C17.9907898,55.1769387 17.2422503,54.4306271 17.2422503,53.5083195 L17.2422503,26.5698096 C17.2422503,25.5361123 18.3851097,24.9078738 19.2584058,25.462595 L40.0860711,38.6533754 C41.0774403,39.2816139 42.3428285,39.2816139 43.3341977,38.6533754 L64.161863,25.462595 C65.035159,24.9078738 66.1780184,25.5361123 66.1780184,26.5698096 L66.1780184,53.5083195 C66.1780184,54.4306271 65.4294789,55.1769387 64.5093992,55.1769387 Z" id="Stroke-21" stroke="#3B3D44" stroke-width="1.3125"></path>
                <line x1="43.9434999" y1="38.2672984" x2="17.6711011" y2="54.612638" id="Stroke-23" stroke="#3B3D44" stroke-width="1.3125"></line>
                <path d="M56.1050386,31.2847172 L64.3991233,25.966968 C64.3991233,25.966968 65.4684654,25.2563011 65.6043609,26.2565815 C65.8650131,28.1880807 65.6043609,34.0494121 65.6043609,34.0494121 L65.6043609,53.6317394 C65.6043609,53.6317394 65.4885155,54.7300428 64.2632277,54.629792 L56.1050386,54.6364754 L56.1050386,31.2847172 Z" id="Fill-25" fill="#D8D0C0"></path>
                <path d="M28.1444159,2.80323577 C28.1510993,2.40223248 28.1510993,2.27302031 28.1577826,2.03464613 C28.1689216,1.44650798 28.3449175,1.13238873 28.525369,1.11679416 C28.6545812,1.10565518 35.3290581,1.11679416 35.3290581,1.11679416 C35.3936642,1.11679416 35.4493591,1.16135008 35.4738649,1.22372837 C36.3783501,3.76341587 38.25861,4.75924071 38.771003,4.9909315 C38.8534315,5.02880403 38.9336322,5.0466264 39.0182884,5.07558775 C45.1380442,7.00931472 47.1697942,2.12375798 47.6376313,1.2081338 C47.6933262,1.09897179 47.7824381,1.0410491 47.9071947,1.04321495 C48.8829693,1.05441587 53.2739553,1.09897179 53.2739553,1.09897179 C54.4413205,1.0388213 54.610633,1.10788298 54.610633,1.10788298 C54.610633,1.10788298 54.7398451,1.18585584 54.8556905,1.40417985 C54.9425746,1.56235337 54.9871305,2.04132952 54.9871305,2.04132952 L55.0027251,10.1148624 L54.8378682,10.1148624 L28.2134775,10.1148624 C28.1243657,10.1148624 28.0508484,10.0435729 28.0530269,9.95223331 L28.1444159,2.80323577 Z" id="Fill-27" fill="#EF4339"></path>
                <path d="M43.1254532,26.5083225 L39.9285659,26.5083225 C39.413945,26.5083225 38.9951193,26.0917246 38.9951193,25.5771037 L38.9951193,15.1287402 C38.9951193,14.6141193 39.413945,14.1975215 39.9285659,14.1975215 L43.1254532,14.1975215 C43.6378463,14.1975215 44.056672,14.6141193 44.056672,15.1287402 L44.056672,25.5771037 C44.056672,26.0917246 43.6378463,26.5083225 43.1254532,26.5083225" id="Fill-29" fill="#EF4339"></path>
                <path d="M42.9559179,31.7755007 L40.0998834,31.7755007 C39.4894673,31.7755007 38.9971243,31.2809299 38.9971243,30.6727416 L38.9971243,29.1266512 C38.9971243,28.5184628 39.4894673,28.0238921 40.0998834,28.0238921 L42.9559179,28.0238921 C43.5641062,28.0238921 44.0564492,28.5184628 44.0564492,29.1266512 L44.0564492,30.6727416 C44.0564492,31.2809299 43.5641062,31.7755007 42.9559179,31.7755007" id="Fill-31" fill="#EF4339"></path>
                <path d="M12.0830126,19.264047 C12.1685118,19.0098088 12.4871906,18.9492759 12.6543027,19.1550878 L14.1621978,20.9952879 L15.6700928,22.835488 C15.8372049,23.0412999 15.7283877,23.356071 15.4718901,23.4044973 L13.1867296,23.8403342 L10.8976827,24.276171 C10.6450714,24.3205618 10.4313234,24.0663236 10.5207089,23.8120855 L11.3018608,21.5360485 L12.0830126,19.264047 Z" id="Fill-33" fill="#F0E4F6"></path>
                <path d="M64.5799085,7.45154699 C64.6654366,7.19730881 64.9881108,7.13677591 65.1552793,7.34258777 L66.6636839,9.1827879 L68.1682007,11.022988 C68.3392569,11.2287999 68.2265154,11.543571 67.9738187,11.5919973 L65.6839984,12.0278342 L63.3980658,12.463671 C63.1414815,12.5080618 62.9315489,12.2538236 63.0209647,11.9995855 L63.8023804,9.72354846 L64.5799085,7.45154699 Z" id="Fill-35" fill="#F0E4F6"></path>
                <path d="M72.3194093,18.4758878 C72.5046717,18.2900023 72.8239538,18.3730575 72.8949054,18.6261781 L73.5177025,20.9082183 L74.1444413,23.1902584 C74.2114511,23.443379 73.9828294,23.6806796 73.7226737,23.6134444 L71.4443399,23.012283 L69.1620645,22.4150767 C68.9097922,22.3478415 68.8191319,22.0314408 69.0043943,21.8416004 L70.6638727,20.1607216 L72.3194093,18.4758878 Z" id="Fill-37" fill="#F0E4F6"></path>
                <path d="M6.39226665,32.2149768 C6.59781531,32.0690398 6.8731037,32.2111364 6.89145625,32.464606 L7.05662929,34.7573537 L7.2181318,37.046261 C7.23281385,37.3035711 6.98321905,37.4840721 6.76298834,37.3726991 L4.78458249,36.3741825 L2.80250612,35.3795064 C2.58594592,35.2681334 2.56025234,34.9455357 2.765801,34.8034391 L4.57903383,33.509208 L6.39226665,32.2149768 Z" id="Fill-39" fill="#F0E4F6"></path>
            </g>
        </g>
    </g>
</svg>