<?xml version="1.0" encoding="UTF-8"?>
<svg version="1.1" viewBox="0 0 84 57" xmlns="http://www.w3.org/2000/svg" xmlns:xlink="http://www.w3.org/1999/xlink">
<title>Group 79 Copy</title>
<desc>Created with Sketch.</desc>
<defs>
<path id="d" d="m0.77812 1.3484c0 0.20719 0.16931 0.36981 0.3765 0.36981 0.20496 0 0.37204-0.16263 0.37204-0.36981 0-0.21164-0.16708-0.3765-0.37204-0.3765-0.20719 0-0.3765 0.16486-0.3765 0.3765z"/>
<path id="c" d="m0.90861 1.6594c0 0.20941 0.16931 0.37427 0.3765 0.37427 0.20496 0 0.37427-0.16486 0.37427-0.37427 0-0.20941-0.16931-0.37427-0.37427-0.37427-0.20719 0-0.3765 0.16486-0.3765 0.37427z"/>
</defs>
<g fill="none" fill-rule="evenodd">
<g transform="translate(-221 -98)">
<g transform="translate(221 99)">
<g transform="translate(0 .038986)">
<g transform="translate(20.05 16.251)">
<path d="m6.6181 13.054l-6.5007-3.6625c-0.086884-0.049012-0.11139-0.14258-0.053467-0.2161l6.9307-8.8377" fill="#D8D0C0"/>
<path d="m7.2744 13.054l-6.5007-3.6625c-0.086884-0.049012-0.11139-0.14258-0.053467-0.2161l6.9307-8.8377" stroke="#3B3D44" stroke-linecap="round" stroke-width="1.3125"/>
</g>
<g transform="translate(55.039 17.563)">
<path d="m1.0664 12.74l6.6121-3.4575c0.086884-0.046784 0.11362-0.14258 0.057923-0.2161l-6.6522-9.0471" fill="#D8D0C0"/>
<path d="m0.41014 12.74l6.6121-3.4575c0.086884-0.046784 0.11362-0.14258 0.057923-0.2161l-6.6522-9.0471" stroke="#3B3D44" stroke-linecap="round" stroke-width="1.3125"/>
</g>
<path d="m19.575 50.795h-18.869c-0.42328 0-0.75745-0.36536-0.69953-0.78641 0.25397-1.8201 1.4614-6.1643 7.2359-6.0774 0.37427 0.0066834 0.70398-0.25174 0.73072-0.62824 0.10248-1.4503 0.9134-4.7786 5.995-4.7786 6.3113 0 5.6074 6.1354 5.6074 6.1354" fill="#F0E4F6" opacity=".78"/>
<path d="m64.288 41.621h18.869c0.42328 0 0.75745-0.36536 0.6973-0.78641-0.25174-1.8201-1.4592-6.1643-7.2337-6.0774-0.3765 0.0066834-0.70398-0.25174-0.73072-0.62824-0.10248-1.4503-0.91117-4.7786-5.995-4.7786-6.3113 0-5.6074 6.1354-5.6074 6.1354" fill="#F0E4F6" opacity=".78"/>
<path d="m55.565 31.108v-28.984c0-0.88666-0.4166-1.6062-0.92676-1.6062h-6.9708c-0.22724 0-0.41883 0.16708-0.53244 0.51017-0.52799 1.6307-2.5686 3.9632-5.7299 3.9632-3.1211 0-4.8455-2.3503-5.3801-3.9722-0.11362-0.33862-0.30521-0.50125-0.53022-0.50125h-6.973c-0.51239 0-0.92676 0.71958-0.92676 1.6062l-0.35003 27.803c-0.010871 0.83097 0.32553 1.6062 0.88248 2.0295l12.545 9.5461c0.58368 0.44333 1.3122 0.42774 1.8825-0.044556l13.01-10.35z" fill="#fff"/>
<polyline points="52.95 33.189 55.566 31.108 55.566 27.767" stroke="#3B3D44" stroke-linecap="round" stroke-width="1.1139"/>
<path d="m55.565 25.486v-23.361c0-0.88666-0.4166-1.6062-0.92676-1.6062h-6.9708c-0.22724 0-0.41883 0.16708-0.53244 0.51017-0.52799 1.6307-2.5686 3.9632-5.7299 3.9632-3.1211 0-4.8455-2.3503-5.3801-3.9722-0.11362-0.33862-0.30521-0.50125-0.53022-0.50125h-6.973c-0.51239 0-0.92676 0.71958-0.92676 1.6062l-0.35003 27.803c-0.010871 0.83097 0.32553 1.6062 0.88248 2.0295l12.545 9.5461c0.58368 0.44333 1.3122 0.42774 1.8825-0.044556l10.395-8.2696" stroke="#3B3D44" stroke-dasharray="6.843789607286453,2.281263202428818,0,0,0,0" stroke-linecap="round" stroke-width="1.3125"/>
<path d="m64.509 55.138h-45.596c-0.92231 0-1.6686-0.74631-1.6686-1.6686v-26.936c0-1.0359 1.1406-1.6619 2.0139-1.1094l20.83 13.191c0.98914 0.62824 2.2545 0.62824 3.2459 0l20.828-13.191c0.8733-0.55249 2.0162 0.073517 2.0162 1.1094v26.936c0 0.92231-0.74854 1.6686-1.6686 1.6686" fill="#F5F0E3"/>
<path d="m64.509 55.138h-45.596c-0.92231 0-1.6686-0.74631-1.6686-1.6686v-26.936c0-1.0359 1.1406-1.6619 2.0139-1.1094l20.83 13.191c0.98914 0.62824 2.2545 0.62824 3.2459 0l20.828-13.191c0.8733-0.55249 2.0162 0.073517 2.0162 1.1094v26.936c0 0.92231-0.74854 1.6686-1.6686 1.6686z" stroke="#3B3D44" stroke-width="1.3125"/>
<line x1="43.943" x2="17.671" y1="38.228" y2="54.575" stroke="#3B3D44" stroke-width="1.3125"/>
<path d="m56.105 31.245l8.2941-5.3177s1.0693-0.71067 1.2052 0.28961c0.26065 1.9337 0 7.7928 0 7.7928v19.582s-0.11585 1.0983-1.3411 1.0003l-8.1582 0.0066834v-23.354z" fill="#D8D0C0"/>
<path d="m28.146 2.7647c0.0044556-0.40323 0.0066834-0.53244 0.011139-0.77082 0.011139-0.58591 0.18936-0.90003 0.36759-0.91562 0.13144-0.013367 6.8037-0.0022278 6.8037-0.0022278 0.064606 0 0.12253 0.044556 0.14481 0.10693 0.90671 2.5419 2.787 3.5377 3.2971 3.7672 0.082428 0.037873 0.16263 0.057923 0.24951 0.084656 6.1175 1.936 8.1515-2.9496 8.6193-3.8652 0.055695-0.10916 0.14481-0.16708 0.26956-0.16492 0.97355 0.0089731 5.3668 0.055757 5.3668 0.055757 1.1651-0.06015 1.3344 0.0066834 1.3344 0.0066834s0.12921 0.080201 0.24729 0.29852c0.086884 0.15817 0.12921 0.63492 0.12921 0.63492l0.015595 8.0758h-0.16263-26.624c-0.09134 0-0.16263-0.073517-0.16263-0.16486l0.093568-7.1468z" fill="#FFA952"/>
<path d="m48.56 22.196c0 3.9499-3.2036 7.1535-7.1535 7.1535-3.9521 0-7.1579-3.2036-7.1579-7.1535s3.2058-7.1535 7.1579-7.1535c3.9499 0 7.1535 3.2036 7.1535 7.1535z" stroke="#FFA952" stroke-width="1.1139"/>
<line x1="40.995" x2="45.096" y1="23.02" y2="23.02" stroke="#FFA952" stroke-linecap="round" stroke-linejoin="round" stroke-width="1.1139"/>
<line x1="40.995" x2="40.995" y1="19.545" y2="23.023" stroke="#FFA952" stroke-linecap="round" stroke-linejoin="round" stroke-width="1.1139"/>
<path d="m41.368 16.683c0 0.20719-0.16708 0.37204-0.37204 0.37204-0.20719 0-0.37427-0.16486-0.37427-0.37204 0-0.21164 0.16708-0.37427 0.37427-0.37427 0.20496 0 0.37204 0.16263 0.37204 0.37427" fill="#FFA952"/>
</g>
<g transform="translate(39.841 15.375)">
<mask id="b" fill="white">
<use xlink:href="#d"/>
</mask>
<polygon points="-5.3929 7.8892 7.6977 7.8892 7.6977 -5.1991 -5.3929 -5.1991" fill="#FFA952" mask="url(#b)"/>
<polygon points="-5.3929 7.8892 7.6977 7.8892 7.6977 -5.1991 -5.3929 -5.1991" mask="url(#b)" stroke="#FFA952" stroke-width=".55695"/>
</g>
<g transform="translate(34.729 15.375)">
<path d="m6.6383 1.3475c0 0.20719-0.16708 0.37204-0.37204 0.37204-0.20719 0-0.37427-0.16486-0.37427-0.37204 0-0.21164 0.16708-0.37427 0.37427-0.37427 0.20496 0 0.37204 0.16263 0.37204 0.37427" stroke="#FFA952" stroke-width=".55695"/>
<path d="m1.6605 7.685c0 0.21164-0.16931 0.37427-0.37427 0.37427-0.20941 0-0.3765-0.16263-0.3765-0.37427 0-0.20719 0.16708-0.37204 0.3765-0.37204 0.20496 0 0.37427 0.16486 0.37427 0.37204" fill="#FFA952"/>
</g>
<g transform="translate(34.729 21.402)">
<mask id="a" fill="white">
<use xlink:href="#c"/>
</mask>
<polygon points="-5.2602 8.2024 7.8326 8.2024 7.8326 -4.8859 -5.2602 -4.8859" fill="#FFA952" mask="url(#a)"/>
<polygon points="-5.2602 8.2024 7.8326 8.2024 7.8326 -4.8859 -5.2602 -4.8859" mask="url(#a)" stroke="#FFA952" stroke-width=".55695"/>
</g>
<g transform="translate(3.7993 6.5842)">
<path d="m32.591 16.475c0 0.21164-0.16931 0.37427-0.37427 0.37427-0.20941 0-0.3765-0.16263-0.3765-0.37427 0-0.20718 0.16708-0.37204 0.3765-0.37204 0.20496 0 0.37427 0.16486 0.37427 0.37204" stroke="#FFA952" stroke-width=".55695"/>
<g transform="translate(36.042 19.273)">
<path d="m1.5264 1.6948c0 0.21164-0.16708 0.3765-0.37204 0.3765-0.20719 0-0.37427-0.16486-0.37427-0.3765 0-0.20719 0.16708-0.37204 0.37427-0.37204 0.20496 0 0.37204 0.16486 0.37204 0.37204" fill="#FFA952"/>
<path d="m1.5264 1.6948c0 0.21164-0.16708 0.3765-0.37204 0.3765-0.20719 0-0.37427-0.16486-0.37427-0.3765 0-0.20719 0.16708-0.37204 0.37427-0.37204 0.20496 0 0.37204 0.16486 0.37204 0.37204" stroke="#FFA952" stroke-width=".55695"/>
</g>
<g transform="translate(41.413 14.817)">
<path d="m1.9578 1.6578c0 0.21164-0.16708 0.37427-0.37204 0.37427-0.20719 0-0.37873-0.16263-0.37873-0.37427 0-0.20719 0.17154-0.37204 0.37873-0.37204 0.20496 0 0.37204 0.16486 0.37204 0.37204" fill="#FFA952"/>
<path d="m1.9578 1.6578c0 0.21164-0.16708 0.37427-0.37204 0.37427-0.20719 0-0.37873-0.16263-0.37873-0.37427 0-0.20719 0.17154-0.37204 0.37873-0.37204 0.20496 0 0.37204 0.16486 0.37204 0.37204" stroke="#FFA952" stroke-width=".55695"/>
</g>
<g transform="translate(8.0132 7.197)" stroke="#F0E4F6" stroke-linecap="round" stroke-width="1.7822">
<line x1="2.2552" x2="2.2552" y1="1.0865e-13" y2="4.5055"/>
<line x1="4.5091" x2="-4.3365e-13" y1="2.2538" y2="2.2538"/>
</g>
<g transform="translate(71.669 13.76)" stroke="#F0E4F6" stroke-linecap="round" stroke-width="1.7822">
<line x1="2.1697" x2="2.3408" y1="1.0865e-13" y2="4.5055"/>
<line x1="4.5055" x2="-8.4632e-13" y1="2.1668" y2="2.3379"/>
</g>
<g transform="translate(60.513 .63453)" stroke="#F0E4F6" stroke-linecap="round" stroke-width="1.7822">
<line x1="1.918" x2="2.5418" y1="-7.6006e-14" y2="4.4627"/>
<line x1="4.4627" x2="-1.031e-12" y1="1.9195" y2="2.5433"/>
</g>
<g transform="translate(.13816 21.635)" stroke="#F0E4F6" stroke-linecap="round" stroke-width="1.7822">
<line x1="2.2517" x2="2.2517" y1="4.1966e-14" y2="4.5091"/>
<line x1="4.5055" x2="-8.4726e-13" y1="2.2538" y2="2.2538"/>
</g>
</g>
</g>
</g>
</g>
</svg>
