<?xml version="1.0" encoding="UTF-8"?>
<svg width="84px" height="57px" viewBox="0 0 84 57" version="1.1" xmlns="http://www.w3.org/2000/svg" xmlns:xlink="http://www.w3.org/1999/xlink">
    <!-- Generator: Sketch 64 (93537) - https://sketch.com -->
    <title>Group 46</title>
    <desc>Created with Sketch.</desc>
    <g id="Hotels-1st-Draft-🖥" stroke="none" stroke-width="1" fill="none" fill-rule="evenodd" opacity="0.800000012">
        <g id="Confirmation-Desktop" transform="translate(-220.000000, -99.000000)">
            <g id="Group-46" transform="translate(220.000000, 100.000000)">
                <path d="M19.3919308,50.3590784 L0.700939753,50.3590784 C0.279404826,50.3590784 -0.0516435461,49.9971321 0.00573817178,49.5800112 C0.257334935,47.7769011 1.45352305,43.4754792 7.17403892,43.5615518 C7.5448131,43.5659658 7.87144749,43.309955 7.89793136,42.9369739 C7.99945286,41.5002239 8.80279691,38.2051891 13.8391461,38.2051891 C20.0893394,38.2051891 19.3919308,44.2810303 19.3919308,44.2810303" id="Fill-1" fill="#F0E4F6" opacity="0.78"></path>
                <path d="M63.6868651,41.2702557 L82.3800632,41.2702557 C82.7993911,41.2702557 83.1304395,40.9083094 83.0730578,40.4911885 C82.821461,38.6880784 81.6252729,34.3844495 75.904757,34.4727291 C75.5339829,34.4771431 75.2073485,34.2211323 75.1808646,33.8481512 C75.0793431,32.4114012 74.2759991,29.1163664 69.2418568,29.1163664 C62.9894566,29.1163664 63.6868651,35.1922075 63.6868651,35.1922075" id="Fill-4" fill="#F0E4F6" opacity="0.78"></path>
                <path d="M76.0970537,12.9023981 C76.0970537,13.9552338 75.2416247,14.8106628 74.188789,14.8106628 C73.1359533,14.8106628 72.2805244,13.9552338 72.2805244,12.9023981 C72.2805244,11.8495624 73.1359533,10.9941334 74.188789,10.9941334 C75.2416247,10.9941334 76.0970537,11.8495624 76.0970537,12.9023981" id="Fill-6" fill="#40BFC1"></path>
                <path d="M20.6167419,15.4828777 C20.6167419,16.5357134 19.7613129,17.3911424 18.7084772,17.3911424 C17.6517708,17.3911424 16.8002126,16.5357134 16.8002126,15.4828777 C16.8002126,14.430042 17.6517708,13.574613 18.7084772,13.574613 C19.7613129,13.574613 20.6167419,14.430042 20.6167419,15.4828777" id="Fill-8" fill="#40BFC1"></path>
                <path d="M7.71434382,30.9657554 C7.71434382,32.0185911 6.85891483,32.8740201 5.80607914,32.8740201 C4.75324346,32.8740201 3.89781446,32.0185911 3.89781446,30.9657554 C3.89781446,29.9129197 4.75324346,29.0574907 5.80607914,29.0574907 C6.85891483,29.0574907 7.71434382,29.9129197 7.71434382,30.9657554" id="Fill-10" fill="#40BFC1"></path>
                <path d="M19.8562814,25.600412 L26.7222246,16.8452861 C26.8281601,16.7128667 27.0775498,16.7768694 27.0731937,16.9357726 L26.647187,29.3191887 C26.642773,29.4427801 26.4750418,29.5134038 26.3492434,29.4427801 L19.9092491,25.8166969 C19.8231765,25.7681432 19.8011066,25.6732427 19.8562814,25.600412" id="Fill-12" fill="#D8D0C0"></path>
                <path d="M20.5014013,25.600412 L27.3673445,16.8452861 C27.47328,16.7128667 27.7226698,16.7768694 27.7183136,16.9357726 L27.2923069,29.3191887 C27.2878929,29.4427801 27.1201617,29.5134038 26.9943633,29.4427801 L20.554369,25.8166969 C20.4682964,25.7681432 20.4462265,25.6732427 20.5014013,25.600412 Z" id="Stroke-14" stroke="#3B3D44" stroke-width="1.29023981"></path>
                <path d="M61.9367227,25.3741956 L55.0972634,16.6190697 C55.2914784,16.8684595 55.0398816,16.9302551 55.0465026,17.0891584 L55.4702445,29.4725745 C55.4746585,29.5961659 55.6423897,29.6667895 55.7659811,29.5983729 L62.1816985,25.9700827 C62.2655641,25.9215289 62.289841,25.8266284 61.9367227,25.3741956" id="Fill-16" fill="#D8D0C0"></path>
                <path d="M61.2916028,25.3741956 L54.4521435,16.6190697 C54.6463585,16.8684595 54.3947617,16.9302551 54.4013827,17.0891584 L54.8251246,29.4725745 C54.8295386,29.5961659 54.9972698,29.6667895 55.1208612,29.5983729 L61.5365786,25.9700827 C61.6204442,25.9215289 61.6447211,25.8266284 61.2916028,25.3741956 Z" id="Stroke-18" stroke="#3B3D44" stroke-width="1.29023981"></path>
                <path d="M55.0462819,30.856136 L55.0462819,2.14320716 C55.0462819,1.26482548 54.6335749,0.551967986 54.1259674,0.551967986 L47.2225054,0.551967986 C46.9973925,0.551967986 46.8053844,0.717492172 46.695035,1.05957549 C46.1741855,2.67288456 44.1503765,4.98360219 41.0186589,4.98360219 C37.9288741,4.98360219 36.2184575,2.65522864 35.6887801,1.04854054 C35.5762237,0.713078194 35.3886296,0.551967986 35.1635167,0.551967986 L28.2556407,0.551967986 C27.7480332,0.551967986 27.3375332,1.26482548 27.3375332,2.14320716 L26.9907701,29.6864317 C26.9800009,30.5118457 27.3132563,31.2776709 27.8650036,31.6969988 L40.2925595,41.1561543 C40.8707906,41.5953452 41.5924761,41.5776892 42.1574653,41.1098075 L55.0462819,30.856136 Z" id="Fill-20" fill="#FFFFFF"></path>
                <path d="M55.0462819,30.856136 L55.0462819,2.14320716 C55.0462819,1.26482548 54.6335749,0.551967986 54.1259674,0.551967986 L47.2225054,0.551967986 C46.9973925,0.551967986 46.8053844,0.717492172 46.695035,1.05957549 C46.1741855,2.67288456 44.1503765,4.98360219 41.0186589,4.98360219 C37.9288741,4.98360219 36.2184575,2.65522864 35.6887801,1.04854054 C35.5762237,0.713078194 35.3886296,0.551967986 35.1635167,0.551967986 L28.2556407,0.551967986 C27.7480332,0.551967986 27.3375332,1.26482548 27.3375332,2.14320716 L26.9907701,29.6864317 C26.9800009,30.5118457 27.3132563,31.2776709 27.8650036,31.6969988 L40.2925595,41.1561543 C40.8707906,41.5953452 41.5924761,41.5776892 42.1574653,41.1098075 L55.0462819,30.856136 Z" id="Stroke-22" stroke="#3B3D44" stroke-width="1.29023981"></path>
                <path d="M63.9055778,54.6620451 L18.7351309,54.6620451 C17.8236444,54.6620451 17.082096,53.9227037 17.082096,53.0090102 L17.082096,26.3220975 C17.082096,25.2980545 18.2120744,24.6756836 19.0772142,25.2252239 L39.7125627,38.2928066 C40.6946729,38.9151775 41.9460357,38.9151775 42.9303529,38.2928066 L63.5634944,25.2252239 C64.4286342,24.6756836 65.5586126,25.2980545 65.5586126,26.3220975 L65.5586126,53.0090102 C65.5586126,53.9227037 64.8192713,54.6620451 63.9055778,54.6620451" id="Fill-24" fill="#F5F0E3"></path>
                <path d="M63.9055778,54.6620451 L18.7351309,54.6620451 C17.8236444,54.6620451 17.082096,53.9227037 17.082096,53.0090102 L17.082096,26.3220975 C17.082096,25.2980545 18.2120744,24.6756836 19.0772142,25.2252239 L39.7125627,38.2928066 C40.6946729,38.9151775 41.9460357,38.9151775 42.9303529,38.2928066 L63.5634944,25.2252239 C64.4286342,24.6756836 65.5586126,25.2980545 65.5586126,26.3220975 L65.5586126,53.0090102 C65.5586126,53.9227037 64.8192713,54.6620451 63.9055778,54.6620451 Z" id="Stroke-26" stroke="#3B3D44" stroke-width="1.29023981"></path>
                <line x1="43.5330816" y1="37.9092319" x2="17.5060586" y2="54.1041183" id="Stroke-28" stroke="#3B3D44" stroke-width="1.29023981"></line>
                <path d="M38.5338098,27.0843915 L34.5347455,21.705959 C34.3074256,21.4786391 34.3074256,21.094623 34.5347455,20.8673031 C34.7775143,20.6399832 35.1460815,20.6399832 35.3822293,20.8673031 L38.5338098,25.4070798 C38.7611297,25.6343996 39.1363179,25.6343996 39.3724657,25.4070798 L48.1673174,16.2811796 C48.4122932,16.0538598 48.7874814,16.0538598 49.0148013,16.2811796 C49.2421212,16.5084995 49.2421212,16.8858947 49.0148013,17.1198355 L39.3724657,27.0843915 C39.1363179,27.3117114 38.7611297,27.3117114 38.5338098,27.0843915" id="Fill-30" fill="#40BFC1"></path>
                <path d="M38.5338098,27.0843915 L34.5347455,21.705959 C34.3074256,21.4786391 34.3074256,21.094623 34.5347455,20.8673031 C34.7775143,20.6399832 35.1460815,20.6399832 35.3822293,20.8673031 L38.5338098,25.4070798 C38.7611297,25.6343996 39.1363179,25.6343996 39.3724657,25.4070798 L48.1673174,16.2811796 C48.4122932,16.0538598 48.7874814,16.0538598 49.0148013,16.2811796 C49.2421212,16.5084995 49.2421212,16.8858947 49.0148013,17.1198355 L39.3724657,27.0843915 C39.1363179,27.3117114 38.7611297,27.3117114 38.5338098,27.0843915 Z" id="Stroke-32" stroke="#40BFC1" stroke-width="2.20698915"></path>
                <path d="M55.5797112,30.9918658 L63.7963318,25.7237827 C63.7963318,25.7237827 64.8578936,25.0197532 64.9903129,26.0106913 C65.2485306,27.9263579 64.9903129,33.7307393 64.9903129,33.7307393 L64.9903129,53.1301739 C64.9903129,53.1301739 64.8755495,54.2204266 63.6639124,54.1211121 L55.5797112,54.127733 L55.5797112,30.9918658 Z" id="Fill-34" fill="#D8D0C0"></path>
                <path d="M27.8824388,2.77727514 C27.8890598,2.3800171 27.8890598,2.25201173 27.8934737,2.01586389 C27.9045087,1.43321875 28.0810678,1.12203328 28.2576269,1.10658436 C28.3878393,1.09334242 34.9977718,1.10437737 34.9977718,1.10437737 C35.0617745,1.10437737 35.1191562,1.15072414 35.1412261,1.21031285 C36.0394707,3.72848747 37.9021695,4.71501161 38.40757,4.9423315 C38.4892286,4.9820573 38.5686802,4.99971321 38.6547528,5.02619708 C44.717352,6.94407065 46.7301261,2.10414345 47.1935938,1.19707091 C47.2487686,1.08892845 47.3370481,1.03154673 47.4606395,1.03369236 C48.4250938,1.04258167 52.7772764,1.08892845 52.7772764,1.08892845 C53.9315317,1.02933974 54.1014699,1.09554941 54.1014699,1.09554941 C54.1014699,1.09554941 54.2272682,1.17500102 54.3442387,1.39128596 C54.4303112,1.54798219 54.472244,2.02027787 54.472244,2.02027787 L54.487693,10.0206135 L54.3243758,10.0206135 L27.9508555,10.0206135 C27.8603689,10.0206135 27.7897452,9.94778288 27.7897452,9.85950332 L27.8824388,2.77727514 Z" id="Fill-36" fill="#40BFC1"></path>
                <path d="M73.0556806,20.077401 L74.0246509,20.9441936 C74.101682,21.011173 74.2030387,21.0387528 74.3043954,21.015113 L75.5895987,20.7314354 C75.8369091,20.6723359 76.0396225,20.9166138 75.9342115,21.1451319 L75.3868852,22.3074219 C75.3463425,22.3980411 75.3503968,22.5044202 75.4031023,22.5871595 L76.0801652,23.68641 C76.2099018,23.8991682 76.0355682,24.1631459 75.7801493,24.1355662 L74.4706204,23.9897874 C74.373318,23.9779675 74.2719613,24.0173672 74.207093,24.0922266 L73.3394794,25.0575183 C73.1692001,25.2426967 72.8570214,25.1638974 72.8043159,24.9196195 L72.5448427,23.6627702 C72.5245714,23.5682111 72.4556488,23.4854718 72.3624006,23.4460721 L71.1501743,22.9456964 C70.9150267,22.8471973 70.8988096,22.532 71.1177401,22.409861 L72.2691525,21.7794664 C72.3583464,21.7321868 72.4151061,21.6455076 72.4232147,21.5470084 L72.5407885,20.2704594 C72.5610598,20.0222415 72.8691842,19.9119225 73.0556806,20.077401" id="Fill-38" fill="#FFA952"></path>
                <path d="M9.18690579,9.10953165 L10.1599877,9.97646594 C10.2329688,10.0434563 10.3343315,10.0710406 10.4356942,10.0473969 L11.7209731,9.76367298 C11.9682981,9.70456382 12.175078,9.95282228 12.0656063,10.1774371 L11.5182478,11.3399171 C11.4777027,11.4305512 11.4817572,11.5369477 11.5344658,11.6197005 L12.2115686,12.7191308 C12.3453673,12.9319237 12.166969,13.1998852 11.9155895,13.1683604 L10.6059835,13.0225578 C10.5046208,13.0107359 10.4032581,13.050142 10.338386,13.1250136 L9.47072133,14.0904632 C9.30448652,14.2756719 8.98823491,14.1968597 8.93552631,13.9525418 L8.67603781,12.6954871 C8.65576528,12.6009125 8.59089315,12.5181596 8.49763947,12.4787535 L7.28128715,11.978296 C7.0501802,11.8797808 7.02990766,11.5645319 7.25290559,11.442373 L8.40033129,10.8118753 C8.48953046,10.764588 8.54629357,10.6778946 8.55440258,10.5793793 L8.67603781,9.30262156 C8.69631035,9.05830372 9.00039844,8.94402602 9.18690579,9.10953165" id="Fill-40" fill="#FFA952"></path>
                <path d="M64.3175756,8.62273546 L65.4940835,9.14816755 C65.5841224,9.18811268 65.6891678,9.18196728 65.7702028,9.12665864 L66.8596731,8.43222792 C67.0697638,8.30010172 67.3398805,8.47217305 67.3158701,8.72413464 L67.192817,10.0300331 C67.1808118,10.1314323 67.2198286,10.2297588 67.294861,10.2942855 L68.2762847,11.1392786 C68.4653664,11.3052045 68.390334,11.6186202 68.147229,11.6739288 L66.8956887,11.9535447 C66.7996472,11.9781263 66.7186122,12.0457258 66.6825967,12.1409796 L66.1993881,13.3577697 C66.1063479,13.591295 65.7912118,13.6158767 65.6651574,13.3946421 L65.0168775,12.2638877 C64.9658555,12.1747793 64.8788179,12.1194707 64.7797752,12.1133252 L63.5012231,12.0180715 C63.2551169,11.9996353 63.1320638,11.6985104 63.297135,11.5080029 L64.149503,10.5278109 C64.2155315,10.4509933 64.2395419,10.3495941 64.2155315,10.2512677 L63.9093994,8.97609622 C63.8493735,8.73028004 64.0894771,8.52133629 64.3175756,8.62273546" id="Fill-42" fill="#FFA952"></path>
                <path d="M9.48286785,20.8800137 L10.6592357,21.4054457 C10.7492638,21.4453909 10.8542967,21.4392455 10.935322,21.3839368 L12.0246626,20.6895061 C12.2347283,20.5573799 12.5048128,20.7294512 12.4808052,20.9814128 L12.3577668,22.2873113 C12.345763,22.3887105 12.3847752,22.4870369 12.4597987,22.5515637 L13.4411055,23.3965568 C13.6301646,23.5624827 13.5551412,23.8758984 13.3120652,23.931207 L12.0606739,24.2138956 C11.9646439,24.2354045 11.8836185,24.303004 11.8476073,24.3982578 L11.3644562,25.6150479 C11.2714271,25.8485732 10.9563286,25.8731548 10.8302892,25.6519203 L10.1790855,24.5211658 C10.1310705,24.4351302 10.0440433,24.3767488 9.94501235,24.3706034 L8.66661262,24.2753497 C8.41753473,24.2569135 8.2974972,23.9557886 8.46254881,23.7683538 L9.3148153,22.7850891 C9.38083594,22.7113442 9.40484345,22.6068723 9.38083594,22.5085459 L9.07474023,21.2333744 C9.01472146,20.9875582 9.25479653,20.7786145 9.48286785,20.8800137" id="Fill-44" fill="#FFA952"></path>
            </g>
        </g>
    </g>
</svg>