<?xml version="1.0" encoding="UTF-8"?>
<svg width="61px" height="66px" viewBox="0 0 61 66" version="1.1" xmlns="http://www.w3.org/2000/svg" xmlns:xlink="http://www.w3.org/1999/xlink">
    <title>filterIcon</title>
    <g id="Actual---mobile" stroke="none" stroke-width="1" fill="none" fill-rule="evenodd">
        <g id="filterIcon" transform="translate(2.000000, 1.000000)" fill="#FFFFFF" fill-rule="nonzero" stroke="#FFFFFF" stroke-width="2.30999993">
            <g id="filtersIcon">
                <path d="M54.6607867,28.9901338 L49.0545521,28.9901338 C47.8742922,24.8592242 44.1122138,21.8348082 39.6862392,21.8348082 C35.2602645,21.8348082 31.4981861,24.9329904 30.24416,28.9901338 L2.87688351,28.9901338 C1.40155863,28.9901338 0.147532488,30.1703937 0.147532488,31.7194848 C0.147532488,33.1948097 1.32779239,34.4488359 2.87688351,34.4488359 L30.24416,34.4488359 C31.4244199,38.5797455 35.1864983,41.6041615 39.6124729,41.6041615 C44.0384476,41.6041615 47.800526,38.5797455 48.9807859,34.4488359 L54.5870204,34.4488359 C56.0623453,34.4488359 57.3163714,33.268576 57.3163714,31.7194848 C57.3901377,30.24416 56.2098778,28.9901338 54.6607867,28.9901338 Z M39.6862392,36.1454595 C37.3257194,36.1454595 35.2602645,34.2275371 35.2602645,31.7194848 C35.2602645,29.2114325 37.1781869,27.2935102 39.6862392,27.2935102 C42.1942915,27.2935102 44.1122138,29.2114325 44.1122138,31.7194848 C44.1122138,34.2275371 42.046759,36.1454595 39.6862392,36.1454595 Z" id="Shape"></path>
                <path d="M2.87688351,12.8353264 L8.70441677,12.8353264 C9.88467667,16.9662361 13.6467551,19.9906521 18.0727297,19.9906521 C22.4987044,19.9906521 26.2607828,16.9662361 27.4410427,12.8353264 L54.6607867,12.8353264 C56.1361115,12.8353264 57.3901377,11.6550665 57.3901377,10.1059754 C57.3901377,8.55688428 56.2098778,7.37662438 54.6607867,7.37662438 L27.4410427,7.37662438 C26.2607828,3.24571473 22.4987044,0.221298731 18.0727297,0.221298731 C13.6467551,0.221298731 9.88467667,3.24571473 8.70441677,7.37662438 L2.87688351,7.37662438 C1.40155863,7.37662438 0.147532488,8.55688428 0.147532488,10.1059754 C0.147532488,11.6550665 1.32779239,12.8353264 2.87688351,12.8353264 Z M18.0727297,5.68000077 C20.4332495,5.68000077 22.4987044,7.59792311 22.4987044,10.1059754 C22.4987044,12.6140277 20.580782,14.53195 18.0727297,14.53195 C15.5646774,14.53195 13.6467551,12.4664952 13.6467551,10.1059754 C13.6467551,7.7454556 15.7122099,5.68000077 18.0727297,5.68000077 Z" id="Shape"></path>
                <path d="M54.6607867,50.6036433 L27.4410427,50.6036433 C26.2607828,46.4727336 22.4987044,43.4483176 18.0727297,43.4483176 C13.6467551,43.4483176 9.88467667,46.4727336 8.70441677,50.6036433 L2.87688351,50.6036433 C1.40155863,50.6036433 0.147532488,51.7839032 0.147532488,53.3329943 C0.147532488,54.8820854 1.32779239,56.0623453 2.87688351,56.0623453 L8.70441677,56.0623453 C9.88467667,60.1932549 13.6467551,63.2176709 18.0727297,63.2176709 C22.4987044,63.2176709 26.2607828,60.1932549 27.4410427,56.0623453 L54.6607867,56.0623453 C56.1361115,56.0623453 57.3901377,54.8820854 57.3901377,53.3329943 C57.3901377,51.7839032 56.2098778,50.6036433 54.6607867,50.6036433 Z M18.0727297,57.7589689 C15.7122099,57.7589689 13.6467551,55.8410466 13.6467551,53.3329943 C13.6467551,50.824942 15.5646774,48.9070196 18.0727297,48.9070196 C20.580782,48.9070196 22.4987044,50.824942 22.4987044,53.3329943 C22.4987044,55.8410466 20.4332495,57.7589689 18.0727297,57.7589689 Z" id="Shape"></path>
            </g>
        </g>
    </g>
</svg>