<?xml version="1.0" encoding="UTF-8"?>
<svg width="67px" height="56px" viewBox="0 0 67 56" version="1.1" xmlns="http://www.w3.org/2000/svg" xmlns:xlink="http://www.w3.org/1999/xlink">
    <title>hotel-selected</title>
    <g id="Actual---mobile" stroke="none" stroke-width="1" fill="none" fill-rule="evenodd">
        <g id="hotel-selected" fill="#FFFFFF" fill-rule="nonzero">
            <path d="M67,54.6657973 L67,20.304439 C67,18.8206531 65.7374372,17.6492431 64.138191,17.6492431 L54.2060302,17.6492431 C53.7851759,17.6492431 53.4484925,17.3368672 53.4484925,16.9463972 L53.4484925,2.65519587 C53.4484925,1.17140994 52.1859296,0 50.5866834,0 L16.6658291,0 C15.0665829,0 13.8040201,1.17140994 13.8040201,2.65519587 L13.8040201,12.5731334 C13.8040201,12.9636034 13.4673367,13.2759793 13.0464824,13.2759793 L2.86180905,13.2759793 C1.26256281,13.2759793 0,14.4473893 0,15.9311752 L0,54.5877033 C0,55.3686433 0.673366834,55.9933953 1.51507538,55.9933953 L13.8040201,55.9933953 L27.6080402,55.9933953 L39.3077889,55.9933953 L53.3643216,55.9933953 L65.4849246,55.9933953 C66.3266332,56.0714893 67,55.4467373 67,54.6657973 Z M14.2248744,45.6068938 C14.2248744,45.6849878 14.1407035,45.7630818 14.0565327,45.7630818 L6.14447236,45.7630818 C6.06030151,45.7630818 5.97613065,45.6849878 5.97613065,45.6068938 L5.97613065,38.2660581 C5.97613065,38.1879641 6.06030151,38.1098701 6.14447236,38.1098701 L14.0565327,38.1098701 C14.1407035,38.1098701 14.2248744,38.1879641 14.2248744,38.2660581 L14.2248744,45.6068938 L14.2248744,45.6068938 Z M14.2248744,32.1747264 C14.2248744,32.2528204 14.1407035,32.3309144 14.0565327,32.3309144 L6.14447236,32.3309144 C6.06030151,32.3309144 5.97613065,32.2528204 5.97613065,32.1747264 L5.97613065,24.8338908 C5.97613065,24.7557968 6.06030151,24.6777028 6.14447236,24.6777028 L14.0565327,24.6777028 C14.1407035,24.6777028 14.2248744,24.7557968 14.2248744,24.8338908 L14.2248744,32.1747264 L14.2248744,32.1747264 Z M29.8806533,45.6068938 C29.8806533,45.6849878 29.7964824,45.7630818 29.7123116,45.7630818 L21.8002513,45.7630818 C21.7160804,45.7630818 21.6319095,45.6849878 21.6319095,45.6068938 L21.6319095,38.2660581 C21.6319095,38.1879641 21.7160804,38.1098701 21.8002513,38.1098701 L29.7123116,38.1098701 C29.7964824,38.1098701 29.8806533,38.1879641 29.8806533,38.2660581 L29.8806533,45.6068938 Z M29.8806533,32.1747264 C29.8806533,32.2528204 29.7964824,32.3309144 29.7123116,32.3309144 L21.8002513,32.3309144 C21.7160804,32.3309144 21.6319095,32.2528204 21.6319095,32.1747264 L21.6319095,24.8338908 C21.6319095,24.7557968 21.7160804,24.6777028 21.8002513,24.6777028 L29.7123116,24.6777028 C29.7964824,24.6777028 29.8806533,24.7557968 29.8806533,24.8338908 L29.8806533,32.1747264 Z M29.8806533,18.1178071 C29.8806533,18.1959011 29.7964824,18.2739951 29.7123116,18.2739951 L21.8002513,18.2739951 C21.7160804,18.2739951 21.6319095,18.1959011 21.6319095,18.1178071 L21.6319095,10.7769715 C21.6319095,10.6988775 21.7160804,10.6207835 21.8002513,10.6207835 L29.7123116,10.6207835 C29.7964824,10.6207835 29.8806533,10.6988775 29.8806533,10.7769715 L29.8806533,18.1178071 Z M44.3580402,45.6068938 C44.3580402,45.6849878 44.2738693,45.7630818 44.1896985,45.7630818 L36.2776382,45.7630818 C36.1934673,45.7630818 36.1092965,45.6849878 36.1092965,45.6068938 L36.1092965,38.2660581 C36.1092965,38.1879641 36.1934673,38.1098701 36.2776382,38.1098701 L44.1896985,38.1098701 C44.2738693,38.1098701 44.3580402,38.1879641 44.3580402,38.2660581 L44.3580402,45.6068938 Z M44.3580402,32.1747264 C44.3580402,32.2528204 44.2738693,32.3309144 44.1896985,32.3309144 L36.2776382,32.3309144 C36.1934673,32.3309144 36.1092965,32.2528204 36.1092965,32.1747264 L36.1092965,24.8338908 C36.1092965,24.7557968 36.1934673,24.6777028 36.2776382,24.6777028 L44.1896985,24.6777028 C44.2738693,24.6777028 44.3580402,24.7557968 44.3580402,24.8338908 L44.3580402,32.1747264 Z M44.3580402,18.1178071 C44.3580402,18.1959011 44.2738693,18.2739951 44.1896985,18.2739951 L36.2776382,18.2739951 C36.1934673,18.2739951 36.1092965,18.1959011 36.1092965,18.1178071 L36.1092965,10.7769715 C36.1092965,10.6988775 36.1934673,10.6207835 36.2776382,10.6207835 L44.1896985,10.6207835 C44.2738693,10.6207835 44.3580402,10.6988775 44.3580402,10.7769715 L44.3580402,18.1178071 Z M60.0138191,45.6068938 C60.0138191,45.6849878 59.9296482,45.7630818 59.8454774,45.7630818 L51.9334171,45.7630818 C51.8492462,45.7630818 51.7650754,45.6849878 51.7650754,45.6068938 L51.7650754,38.2660581 C51.7650754,38.1879641 51.8492462,38.1098701 51.9334171,38.1098701 L59.8454774,38.1098701 C59.9296482,38.1098701 60.0138191,38.1879641 60.0138191,38.2660581 L60.0138191,45.6068938 Z M60.0138191,32.1747264 C60.0138191,32.2528204 59.9296482,32.3309144 59.8454774,32.3309144 L51.9334171,32.3309144 C51.8492462,32.3309144 51.7650754,32.2528204 51.7650754,32.1747264 L51.7650754,24.8338908 C51.7650754,24.7557968 51.8492462,24.6777028 51.9334171,24.6777028 L59.8454774,24.6777028 C59.9296482,24.6777028 60.0138191,24.7557968 60.0138191,24.8338908 L60.0138191,32.1747264 Z" id="Shape"></path>
        </g>
    </g>
</svg>