<?xml version="1.0" encoding="UTF-8"?>
<svg width="21px" height="24px" viewBox="0 0 21 24" version="1.1" xmlns="http://www.w3.org/2000/svg" xmlns:xlink="http://www.w3.org/1999/xlink">
    <g id="hotelLocation" stroke="none" stroke-width="1" fill="none" fill-rule="evenodd">
        <g id="HotelDetailView-2.1" transform="translate(-5.000000, -572.000000)">
            <g id="location" transform="translate(5.000000, 572.000000)">
                <g id="Group-3-Copy-5" fill="#CF348C">
                    <path d="M17.399999,0 C19.0568531,-7.4844838e-16 20.3999988,1.34314567 20.3999988,2.99999982 L20.3999988,16.199999 C20.3999988,17.8568532 19.0568531,19.1999989 17.399999,19.1999989 L13.932,19.199 L10.1999994,23.9999986 L6.466,19.199 L2.99999982,19.1999989 C1.34314567,19.1999989 6.46995323e-16,17.8568532 0,16.199999 L0,2.99999982 C2.41183097e-16,1.34314567 1.34314567,-1.3973004e-16 2.99999982,0 L17.399999,0 Z" id="Rectangle-2"></path>
                </g>
                <path d="M15.5999991,13.5855738 L15.5999991,8.06321293 C15.5999991,7.82474735 15.407788,7.63648505 15.1643207,7.63648505 L13.6522605,7.63648505 C13.5881901,7.63648505 13.5369339,7.58628177 13.5369339,7.52352767 L13.5369339,5.2267276 C13.5369339,4.98826201 13.3447228,4.79999971 13.1012555,4.79999971 L7.93718546,4.79999971 C7.69371813,4.79999971 7.50150709,4.98826201 7.50150709,5.2267276 L7.50150709,6.82068174 C7.50150709,6.88343584 7.45025081,6.93363913 7.38618046,6.93363913 L5.83567804,6.93363913 C5.59221072,6.93363913 5.39999968,7.12190143 5.39999968,7.36036701 L5.39999968,13.5730229 C5.39999968,13.6985311 5.50251223,13.7989377 5.63065293,13.7989377 L7.50150709,13.7989377 L9.6030145,13.7989377 L11.3841702,13.7989377 L13.5241198,13.7989377 L15.3693458,13.7989377 C15.4974865,13.8114885 15.5999991,13.711082 15.5999991,13.5855738 Z M7.56557744,12.1296786 C7.56557744,12.1422295 7.55276337,12.1547803 7.5399493,12.1547803 L6.33542676,12.1547803 C6.32261269,12.1547803 6.30979862,12.1422295 6.30979862,12.1296786 L6.30979862,10.9499015 C6.30979862,10.9373507 6.32261269,10.9247999 6.33542676,10.9247999 L7.5399493,10.9247999 C7.55276337,10.9247999 7.56557744,10.9373507 7.56557744,10.9499015 L7.56557744,12.1296786 L7.56557744,12.1296786 Z M7.56557744,9.97093758 C7.56557744,9.9834884 7.55276337,9.99603922 7.5399493,9.99603922 L6.33542676,9.99603922 C6.32261269,9.99603922 6.30979862,9.9834884 6.30979862,9.97093758 L6.30979862,8.79116049 C6.30979862,8.77860967 6.32261269,8.76605885 6.33542676,8.76605885 L7.5399493,8.76605885 C7.55276337,8.76605885 7.56557744,8.77860967 7.56557744,8.79116049 L7.56557744,9.97093758 L7.56557744,9.97093758 Z M9.94899438,12.1296786 C9.94899438,12.1422295 9.93618031,12.1547803 9.92336624,12.1547803 L8.7188437,12.1547803 C8.70602963,12.1547803 8.69321556,12.1422295 8.69321556,12.1296786 L8.69321556,10.9499015 C8.69321556,10.9373507 8.70602963,10.9247999 8.7188437,10.9247999 L9.92336624,10.9247999 C9.93618031,10.9247999 9.94899438,10.9373507 9.94899438,10.9499015 L9.94899438,12.1296786 Z M9.94899438,9.97093758 C9.94899438,9.9834884 9.93618031,9.99603922 9.92336624,9.99603922 L8.7188437,9.99603922 C8.70602963,9.99603922 8.69321556,9.9834884 8.69321556,9.97093758 L8.69321556,8.79116049 C8.69321556,8.77860967 8.70602963,8.76605885 8.7188437,8.76605885 L9.92336624,8.76605885 C9.93618031,8.76605885 9.94899438,8.77860967 9.94899438,8.79116049 L9.94899438,9.97093758 Z M9.94899438,7.71178997 C9.94899438,7.72434079 9.93618031,7.73689161 9.92336624,7.73689161 L8.7188437,7.73689161 C8.70602963,7.73689161 8.69321556,7.72434079 8.69321556,7.71178997 L8.69321556,6.53201288 C8.69321556,6.51946206 8.70602963,6.50691124 8.7188437,6.50691124 L9.92336624,6.50691124 C9.93618031,6.50691124 9.94899438,6.51946206 9.94899438,6.53201288 L9.94899438,7.71178997 Z M12.1530144,12.1296786 C12.1530144,12.1422295 12.1402003,12.1547803 12.1273862,12.1547803 L10.9228637,12.1547803 C10.9100496,12.1547803 10.8972355,12.1422295 10.8972355,12.1296786 L10.8972355,10.9499015 C10.8972355,10.9373507 10.9100496,10.9247999 10.9228637,10.9247999 L12.1273862,10.9247999 C12.1402003,10.9247999 12.1530144,10.9373507 12.1530144,10.9499015 L12.1530144,12.1296786 Z M12.1530144,9.97093758 C12.1530144,9.9834884 12.1402003,9.99603922 12.1273862,9.99603922 L10.9228637,9.99603922 C10.9100496,9.99603922 10.8972355,9.9834884 10.8972355,9.97093758 L10.8972355,8.79116049 C10.8972355,8.77860967 10.9100496,8.76605885 10.9228637,8.76605885 L12.1273862,8.76605885 C12.1402003,8.76605885 12.1530144,8.77860967 12.1530144,8.79116049 L12.1530144,9.97093758 Z M12.1530144,7.71178997 C12.1530144,7.72434079 12.1402003,7.73689161 12.1273862,7.73689161 L10.9228637,7.73689161 C10.9100496,7.73689161 10.8972355,7.72434079 10.8972355,7.71178997 L10.8972355,6.53201288 C10.8972355,6.51946206 10.9100496,6.50691124 10.9228637,6.50691124 L12.1273862,6.50691124 C12.1402003,6.50691124 12.1530144,6.51946206 12.1530144,6.53201288 L12.1530144,7.71178997 Z M14.5364313,12.1296786 C14.5364313,12.1422295 14.5236172,12.1547803 14.5108032,12.1547803 L13.3062806,12.1547803 C13.2934665,12.1547803 13.2806525,12.1422295 13.2806525,12.1296786 L13.2806525,10.9499015 C13.2806525,10.9373507 13.2934665,10.9247999 13.3062806,10.9247999 L14.5108032,10.9247999 C14.5236172,10.9247999 14.5364313,10.9373507 14.5364313,10.9499015 L14.5364313,12.1296786 Z M14.5364313,9.97093758 C14.5364313,9.9834884 14.5236172,9.99603922 14.5108032,9.99603922 L13.3062806,9.99603922 C13.2934665,9.99603922 13.2806525,9.9834884 13.2806525,9.97093758 L13.2806525,8.79116049 C13.2806525,8.77860967 13.2934665,8.76605885 13.3062806,8.76605885 L14.5108032,8.76605885 C14.5236172,8.76605885 14.5364313,8.77860967 14.5364313,8.79116049 L14.5364313,9.97093758 Z" id="Shape" fill="#FFFFFF" fill-rule="nonzero"></path>
            </g>
        </g>
    </g>
</svg>