<?xml version="1.0" encoding="UTF-8"?>
<svg width="58px" height="53px" viewBox="0 0 58 53" version="1.1" xmlns="http://www.w3.org/2000/svg" xmlns:xlink="http://www.w3.org/1999/xlink">
    <title>map</title>
    <g id="Actual---mobile" stroke="none" stroke-width="1" fill="none" fill-rule="evenodd">
        <g id="map" fill="#CF348C" fill-rule="nonzero">
            <polygon id="Path" points="20.7384983 45.9647958 36.6984969 52.3475184 36.6984969 6.38527621 20.7384983 7.17204065e-14"></polygon>
            <path d="M1.18550869,6.5487066 C0.533702351,6.80917377 9.49240674e-15,7.5956825 9.49240674e-15,8.29919924 L9.49240674e-15,30.0047972 L9.49240674e-15,50.4335954 C9.49240674e-15,51.8387136 1.0674047,52.560744 2.37037898,52.0391712 L9.57599912,49.1567955 L17.5559984,45.9647958 L17.5559984,2.10942372e-13 L9.57599912,3.19199971 L1.18550869,6.5487066 Z" id="Path"></path>
            <path d="M55.0666162,0.308985572 L47.8609961,3.19199971 L39.8809968,6.38527621 L39.8809968,52.3475184 L47.8609961,49.1567955 L56.2514865,45.8013654 C56.9032929,45.5396214 57.4369952,44.7524743 57.4369952,44.0508727 L57.4369952,22.3439979 L57.4369952,1.91647662 C57.4369952,0.511358353 56.3695905,-0.21194878 55.0666162,0.308985572 Z" id="Path"></path>
        </g>
    </g>
</svg>