<?xml version="1.0" encoding="UTF-8"?>
<svg width="38px" height="41px" viewBox="0 0 38 41" version="1.1" xmlns="http://www.w3.org/2000/svg" xmlns:xlink="http://www.w3.org/1999/xlink">
    <title>reloadWhite</title>
    <g id="Actual---mobile" stroke="none" stroke-width="1" fill="none" fill-rule="evenodd">
        <path d="M37.0617284,18.0489714 C36.4987654,16.4527533 34.6222222,15.5899326 32.8864198,16.107625 C31.1506173,16.6253174 30.2123457,18.3509586 30.7753086,19.9471768 C31.1975309,21.0688436 31.3851852,22.2767925 31.3851852,23.4847413 C31.3851852,29.7401909 25.8493827,34.8739736 19,34.8739736 C15.6691358,34.8739736 12.5728395,33.7091657 10.2271605,31.5521142 C7.88148148,29.3950626 6.61481481,26.5477546 6.61481481,23.4847413 C6.61481481,17.6175611 11.4938272,12.7857656 17.6864198,12.1817912 L17.6864198,16.5821764 C17.6864198,17.8764073 19.2814815,18.6098048 20.4074074,17.8332663 L31.1037037,10.3267268 C31.9950617,9.7227524 31.9950617,8.4716625 31.1037037,7.86768806 L20.4074074,0.318007608 C19.2814815,-0.458530953 17.6864198,0.274866577 17.6864198,1.56909751 L17.6864198,6.05576475 C7.8345679,6.70288022 0,14.2525607 0,23.5278824 C0,28.1871137 1.97037037,32.5874989 5.58271605,35.9093583 C9.14814815,39.1880767 13.9333333,41 19,41 C29.508642,41 38,33.1483323 38,23.5278824 C38,21.629677 37.7185185,19.8177537 37.0617284,18.0489714 Z" id="reloadWhite" fill="#F9F9F9" fill-rule="nonzero"></path>
    </g>
</svg>