<?xml version="1.0" encoding="UTF-8"?>
<svg width="47px" height="47px" viewBox="0 0 47 47" version="1.1" xmlns="http://www.w3.org/2000/svg" xmlns:xlink="http://www.w3.org/1999/xlink">
    <title>searchWhite</title>
    <g id="Actual---mobile" stroke="none" stroke-width="1" fill="none" fill-rule="evenodd">
        <g id="searchWhite" fill="#F9F9F9" fill-rule="nonzero">
            <path d="M31.5123825,18.783007 C31.5123825,19.1778091 31.5004188,19.5606474 31.4645277,19.9554495 C31.452564,20.1468687 31.4286366,20.3382879 31.4166729,20.529707 C31.3448907,21.2236016 31.5243462,19.8717036 31.4166729,20.5416707 C31.2970359,21.3073475 31.1056167,22.0730242 30.8663428,22.8147735 C30.7586695,23.1736845 30.6151051,23.508668 30.4835044,23.8556153 C30.3040489,24.3102359 30.7825969,23.2095756 30.5074318,23.7957968 C30.4117222,23.987216 30.3279763,24.1786352 30.2322667,24.3700543 C29.8853195,25.0519852 29.5024811,25.6980249 29.0598243,26.3201372 C28.9401873,26.487629 28.8085866,26.6551208 28.6889496,26.8226126 C28.6650222,26.8585037 29.1316064,26.2962098 28.9162599,26.5235201 C28.8684051,26.5833386 28.8205503,26.6431571 28.7726955,26.7029756 C28.5094941,27.0259955 28.234329,27.3370516 27.9352366,27.6361441 C27.6839989,27.8993455 27.4207975,28.1505831 27.1456325,28.3898571 C27.0259955,28.4975304 26.9063585,28.59324 26.7986852,28.7009133 C26.7149393,28.7726955 26.6431571,28.832514 26.5594112,28.9042962 C26.1765729,29.227316 27.0259955,28.5573489 26.7388667,28.7726955 C26.1167544,29.2153523 25.5066057,29.6460455 24.8366386,30.0049565 C24.5136187,30.1844119 24.1905989,30.3519037 23.8556153,30.5074318 C23.7838331,30.5433229 23.7120509,30.5672503 23.6402687,30.6031414 C23.3052852,30.7706332 24.2623811,30.3519037 23.9154338,30.4835044 C23.7120509,30.5552866 23.5206317,30.6390325 23.3172489,30.7108147 C22.5874632,30.9740161 21.8337502,31.1893626 21.0800372,31.332927 C20.888618,31.3688181 20.7091625,31.4047092 20.5177433,31.4286366 C19.8717036,31.5363099 21.1039646,31.3688181 20.5895255,31.4286366 C20.1827598,31.4764914 19.7640303,31.5123825 19.3572646,31.5243462 C18.5556968,31.5482736 17.7541289,31.5123825 16.9525611,31.4286366 C16.4261584,31.3807818 17.670383,31.5363099 17.0243433,31.4286366 C16.8329241,31.3927455 16.6534687,31.3688181 16.4620495,31.332927 C16.0672474,31.2491811 15.6724454,31.1534715 15.289607,31.0457982 C14.930696,30.9500887 14.5717851,30.8304517 14.2248378,30.698851 C14.0453823,30.6390325 13.8778905,30.5672503 13.7103988,30.4954681 C13.5070159,30.4117222 13.3155967,30.2442304 13.9855638,30.6151051 C13.8898542,30.5672503 13.7941447,30.5313592 13.6984351,30.4835044 C13.0045405,30.1604845 12.3465371,29.8015736 11.7124611,29.3828441 C11.4014049,29.1794612 11.1142761,28.9641147 10.8151837,28.7487681 C10.5160912,28.5334215 11.3296227,29.1674975 11.0544576,28.9282236 C10.9946391,28.8803688 10.9348207,28.832514 10.8750022,28.7846592 C10.7194741,28.6530585 10.5519823,28.5214578 10.4084179,28.3778934 C9.84612407,27.8754181 9.31972132,27.3370516 8.84117337,26.7508304 C8.76939118,26.6670845 8.70957269,26.5833386 8.63779049,26.5115564 C8.43440762,26.2722824 8.88902817,26.84654 8.86510077,26.8106489 C8.76939118,26.6551208 8.64975419,26.5235201 8.5420809,26.367992 C8.31477063,26.0449722 8.09942405,25.7219523 7.89604117,25.3869687 C7.70462199,25.0759126 7.52516651,24.7528927 7.35767473,24.4298728 C7.27392884,24.2623811 7.19018295,24.106853 7.11840075,23.9393612 C7.07054596,23.8436516 7.03465486,23.747942 6.98680007,23.6522324 C6.83127198,23.3411763 7.27392884,24.3939817 7.07054596,23.8556153 C6.80734459,23.1617208 6.56807061,22.4558625 6.38861513,21.7260769 C6.30486924,21.3552023 6.22112335,20.9843276 6.16130485,20.6134529 C6.14934116,20.5057797 6.13737746,20.3981064 6.11345006,20.2904331 C6.12541376,20.3143605 6.20915965,21.0920009 6.16130485,20.6014892 C6.13737746,20.3861427 6.11345006,20.1588324 6.10148636,19.9434858 C6.04166787,19.141918 6.04166787,18.3283865 6.11345006,17.5268187 C6.12541376,17.3353995 6.14934116,17.1439803 6.17326855,16.9525611 C6.23308705,16.4381221 6.05363157,17.7302015 6.17326855,17.0243433 C6.23308705,16.6295413 6.31683294,16.2227755 6.41254253,15.8399371 C6.59199801,15.0862241 6.85519938,14.3684022 7.13036445,13.6386166 C7.23803774,13.3395241 6.96287267,14.0214549 6.98680007,13.9855638 C7.03465486,13.9018179 7.07054596,13.7941447 7.11840075,13.6984351 C7.19018295,13.5309433 7.27392884,13.3634515 7.35767473,13.1959597 C7.53713021,12.8490125 7.72854939,12.5020652 7.93193227,12.1670816 C8.12335145,11.8560255 8.31477063,11.5449693 8.53011721,11.2458768 C8.63779049,11.1023124 8.74546378,10.9587481 8.85313707,10.80322 C9.03259255,10.5519823 8.5899357,11.1262398 8.6258268,11.1023124 C8.70957269,11.0185665 8.79331858,10.8989296 8.87706447,10.80322 C9.35561242,10.2289624 9.88201516,9.67863229 10.444309,9.17615694 C10.5759097,9.05651995 10.7194741,8.93688296 10.8510748,8.81724598 C10.9108933,8.76939118 10.9707117,8.72153639 11.0305302,8.67368159 C11.3894412,8.37458912 10.8151837,8.84117337 10.7912563,8.85313707 C11.1142761,8.63779049 11.4253323,8.38655282 11.7483522,8.17120624 C12.3824282,7.75247679 13.0523953,7.38160213 13.7343262,7.07054596 C13.8300358,7.02269116 13.937709,6.98680007 14.0214549,6.93894527 C14.057346,6.91501788 13.3754152,7.20214665 13.6745077,7.08250966 C13.8539631,7.02269116 14.0214549,6.95090897 14.1889467,6.87912678 C14.5598214,6.74752609 14.9426597,6.61592541 15.3254981,6.50825212 C15.6844091,6.40057883 16.0552837,6.31683294 16.4261584,6.24505075 C16.6175776,6.20915965 16.797033,6.17326855 16.9884522,6.13737746 C17.0961255,6.12541376 17.2037988,6.11345006 17.3114721,6.08952266 C17.2277262,6.10148636 16.5816865,6.17326855 17.0004159,6.13737746 C17.8259111,6.05363157 18.66337,6.01774047 19.4888653,6.04166787 C19.8477762,6.05363157 20.2066872,6.08952266 20.5655981,6.12541376 C21.2834201,6.20915965 19.9913406,6.02970417 20.5057797,6.11345006 C20.7211262,6.14934116 20.9364728,6.18523225 21.1398557,6.23308705 C21.9294598,6.38861513 22.6951365,6.60396171 23.4488495,6.89109048 C23.5924139,6.95090897 23.747942,7.01072747 23.8915064,7.05858226 C24.3341632,7.22607404 23.6402687,6.95090897 23.6163413,6.93894527 C23.7000872,6.98680007 23.8197242,7.02269116 23.9034701,7.07054596 C24.2623811,7.23803774 24.6093283,7.41749322 24.9562756,7.6089124 C25.6262427,7.97978706 26.2244277,8.43440762 26.8585037,8.85313707 C26.8943948,8.87706447 26.3321009,8.42244392 26.5594112,8.6258268 C26.6311934,8.69760899 26.726903,8.75742748 26.7986852,8.82920967 C26.9422496,8.94884666 27.0738503,9.06848365 27.2054509,9.18812064 C27.4925797,9.45132201 27.7797085,9.71452338 28.0429099,10.0016522 C28.2941475,10.2648535 28.5334215,10.5400186 28.7726955,10.8151837 C28.9162599,10.9946391 29.2632071,11.5090782 28.7487681,10.7553652 C28.8684051,10.922857 29.0000058,11.0903487 29.1196427,11.2578405 C29.5503359,11.8799529 29.945138,12.5259926 30.2920852,13.2079234 C30.3758311,13.3754152 30.459577,13.542907 30.5313592,13.7103988 C30.5672503,13.782181 30.5911777,13.8539631 30.6270688,13.9257453 C30.7945606,14.2607289 30.3877948,13.303633 30.5074318,13.6505803 C30.6390325,14.0214549 30.7945606,14.3923296 30.9141976,14.775168 C31.1534715,15.5169173 31.332927,16.2706303 31.4645277,17.0482707 C31.572201,17.6943104 31.4047092,16.4620495 31.4645277,16.9764885 C31.4884551,17.1679077 31.5004188,17.3593269 31.5243462,17.5507461 C31.5004188,17.9455481 31.5123825,18.3642776 31.5123825,18.783007 C31.5243462,20.3502516 32.8762442,21.8457139 34.5033072,21.7739317 C36.1184065,21.7021495 37.5062724,20.4579249 37.4942319,18.783007 C37.4703045,15.0144419 36.3457168,11.1860583 34.1443962,8.11138775 C31.8234387,4.88118909 28.7248407,2.50041304 24.9921667,1.12458768 C17.8618022,-1.49546234 9.29579393,0.825495213 4.48638703,6.6996713 C1.9381192,9.81023297 0.442656854,13.4471974 0.107673289,17.4550365 C-0.203382879,21.2355653 0.753713021,25.1716222 2.71575962,28.4137845 C4.60602402,31.5482736 7.46534802,34.2161784 10.8151837,35.7236045 C14.5717851,37.410486 18.6274789,37.9129613 22.6831728,37.0994298 C29.9810291,35.6398586 36.0944791,29.3589167 37.2190668,21.9773146 C37.3745949,20.9125454 37.5062724,19.8597399 37.5062724,18.7949707 C37.5181593,17.2277262 36.1303702,15.7322639 34.5152709,15.804046 C32.8762442,15.8638645 31.5243462,17.1080892 31.5123825,18.783007 Z" id="Path"></path>
            <path d="M28.0668373,31.8234387 C32.0507489,35.8073503 36.0466243,39.8032257 40.030536,43.7871374 C40.5928298,44.3494313 41.14316,44.8997614 41.7054538,45.4620552 C42.8180778,46.5746792 44.8399429,46.6464614 45.9406032,45.4620552 C47.0412635,44.2656854 47.1250094,42.4113121 45.9406032,41.2269059 C41.9566915,37.2429942 37.9608161,33.2471188 33.9769044,29.2632071 C33.4146106,28.7009133 32.8642805,28.1505831 32.3019866,27.5882893 C31.1893626,26.4756653 29.1674975,26.4038831 28.0668373,27.5882893 C26.966177,28.7966229 26.8824311,30.6509962 28.0668373,31.8234387 L28.0668373,31.8234387 Z" id="Path"></path>
        </g>
    </g>
</svg>