<?xml version="1.0" encoding="UTF-8"?>
<svg width="29px" height="29px" viewBox="0 0 29 29" version="1.1" xmlns="http://www.w3.org/2000/svg" xmlns:xlink="http://www.w3.org/1999/xlink">
    <!-- Generator: Sketch 62 (91390) - https://sketch.com -->
    <title>route-detail/flight copy 2</title>
    <desc>Created with Sketch.</desc>
    <g id="UI" stroke="none" stroke-width="1" fill="none" fill-rule="evenodd">
        <g id="Icons" transform="translate(-204.000000, -377.000000)">
            <g id="route-detail/bus" transform="translate(204.000000, 377.000000)">
                <circle id="Oval-5-Copy-8" fill="#66BA5B" cx="14.5" cy="14.5" r="14.5"></circle>
                <path d="M8.72,16.4590629 L20.28,16.4590629 L20.28,10.1626371 L8.72,10.1626371 L8.72,16.4590629 Z M19.43,20.0266878 C18.954,20.0266878 18.648,19.7122163 18.648,19.2224943 C18.648,18.7327723 18.954,18.417951 19.43,18.417951 C19.906,18.417951 20.212,18.7327723 20.212,19.2224943 C20.212,19.7122163 19.838,20.0266878 19.43,20.0266878 L19.43,20.0266878 Z M9.57,20.0266878 C9.094,20.0266878 8.788,19.7122163 8.788,19.2224943 C8.788,18.7327723 9.094,18.417951 9.57,18.417951 C10.046,18.417951 10.352,18.7327723 10.352,19.2224943 C10.318,19.7122163 10.012,20.0266878 9.57,20.0266878 L9.57,20.0266878 Z M10.658,7.74900718 C10.658,7.53912632 10.828,7.39920574 10.998,7.39920574 L17.968,7.39920574 C18.138,7.39920574 18.308,7.53912632 18.308,7.74900718 L18.308,8.4832404 C18.308,8.65814111 18.138,8.83304183 17.968,8.83304183 L11.032,8.83304183 C10.862,8.83304183 10.692,8.65814111 10.692,8.4832404 L10.692,7.74900718 L10.658,7.74900718 Z M22.83,10.1626371 L21.606,10.1626371 L21.606,8.4832404 C21.606,8.4832404 21.674,7.22430503 20.45,6.8045433 C19.226,6.41976172 17.594,6 14.5,6 C11.406,6 9.774,6.38443178 8.55,6.8045433 C7.326,7.18932488 7.394,8.4832404 7.394,8.4832404 L7.394,10.1626371 L6.17,10.1626371 C6.102,10.1626371 6,10.2322476 6,10.3375378 L6,13.2055598 C6,13.2758699 6.068,13.3804605 6.17,13.3804605 L7.394,13.3804605 L7.394,20.6916603 C7.394,21.2509928 7.768,21.3912632 7.938,21.4962036 C7.938,22.3003971 8.55,23 9.4,23 C10.182,23 10.862,22.3707072 10.862,21.4962036 L14.5,21.4962036 L18.138,21.4962036 C18.138,22.3003971 18.75,23 19.6,23 C20.382,23 21.062,22.3707072 21.062,21.4962036 C21.3,21.4258935 21.606,21.2509928 21.606,20.6916603 L21.606,13.3804605 L22.83,13.3804605 C22.898,13.3804605 23,13.31085 23,13.2055598 L23,10.3375378 C23,10.2675775 22.932,10.1626371 22.83,10.1626371 L22.83,10.1626371 Z" id="Fill-3-Copy-9" fill="#FFFFFF"></path>
            </g>
        </g>
    </g>
</svg>