<?xml version="1.0" encoding="UTF-8"?>
<svg width="29px" height="29px" viewBox="0 0 29 29" version="1.1" xmlns="http://www.w3.org/2000/svg" xmlns:xlink="http://www.w3.org/1999/xlink">
    <!-- Generator: Sketch 62 (91390) - https://sketch.com -->
    <title>route-detail/flight copy</title>
    <desc>Created with Sketch.</desc>
    <g id="UI" stroke="none" stroke-width="1" fill="none" fill-rule="evenodd">
        <g id="Icons" transform="translate(-59.000000, -377.000000)">
            <g id="route-detail/flight" transform="translate(59.000000, 377.000000)">
                <g id="Group-7">
                    <circle id="Oval-5-Copy-10" fill="#00ABCB" cx="14.5" cy="14.5" r="14.5"></circle>
                    <path d="M12.5802494,14.7098912 L13.0428399,13.7610033 L15.9571601,13.7610033 L16.4197506,14.7098912 L12.5802494,14.7098912 Z M25.6736424,16.0610506 L25.6736424,16.0586843 L17.8931014,14.7098912 C17.5991251,13.2927118 16.4752615,12.1874113 15.0689863,11.9484146 L14.7289823,9.23426408 L14.7264381,9.21083767 C14.7148733,9.09488878 14.6179606,9 14.5,9 C14.3820394,9 14.2848954,9.09252248 14.2730994,9.20823474 L14.2710177,9.21083767 L13.9310137,11.9484146 C12.5224256,12.185045 11.4004123,13.2927118 11.1068986,14.7098912 L3.32589501,16.0586843 L3.32589501,16.0610506 C3.13877715,16.0965452 3,16.2645528 3,16.4656886 C3,16.6954567 3.180179,16.8797918 3.40476669,16.8797918 L5.03979284,16.8797918 C5.01458166,16.9912447 5.0027856,17.1069569 5.0027856,17.2278751 C5.0027856,18.1341694 5.72442679,18.8722196 6.61028761,18.8722196 C7.49846138,18.8722196 8.22010257,18.1341694 8.22010257,17.2278751 C8.22010257,17.1069569 8.20876911,16.9912447 8.18309533,16.8797918 L11.3240849,16.8797918 C11.8609212,18.1292002 13.0798471,19 14.5,19 C15.9178399,19 17.1390788,18.1292002 17.6754525,16.8797918 L20.8164421,16.8797918 C20.7912309,16.9912447 20.7794348,17.1069569 20.7794348,17.2278751 C20.7794348,18.1341694 21.4989944,18.8722196 22.3869368,18.8722196 C23.2751106,18.8722196 23.9946702,18.1341694 23.9946702,17.2278751 C23.9946702,17.1069569 23.9831054,16.9912447 23.9574316,16.8797918 L25.5952333,16.8797918 C25.8170455,16.8797918 26,16.6954567 26,16.4656886 C26,16.2645528 25.8589099,16.0965452 25.6736424,16.0610506 L25.6736424,16.0610506 Z" id="Fill-1-Copy-11" fill="#FFFFFF"></path>
                </g>
            </g>
        </g>
    </g>
</svg>