<?xml version="1.0" encoding="UTF-8"?>
<svg width="10px" height="7px" viewBox="0 0 10 7" version="1.1" xmlns="http://www.w3.org/2000/svg" xmlns:xlink="http://www.w3.org/1999/xlink">
    <!-- Generator: Sketch 63.1 (92452) - https://sketch.com -->
    <title>Path@3x</title>
    <desc>Created with Sketch.</desc>
    <g id="Hoteles" stroke="none" stroke-width="1" fill="none" fill-rule="evenodd">
        <g id="ListView2" transform="translate(-154.000000, -496.000000)" fill="#FFFFFF" fill-rule="nonzero">
            <g id="Group" transform="translate(5.000000, 195.000000)">
                <g id="Group-4" transform="translate(141.000000, 294.000000)">
                    <path d="M11.7386018,14 L11.7386018,14 C11.4802432,13.9852008 11.2370821,13.8816068 11.0547112,13.7040169 L11.0091185,13.6596195 L10.993921,13.6448203 L8.30395137,11.0401691 C8.10638298,10.8477801 8,10.6109937 8,10.3446089 C8,10.0782241 8.10638298,9.82663848 8.2887538,9.64904863 C8.47112462,9.45665962 8.72948328,9.35306554 9.00303951,9.35306554 C9.27659574,9.35306554 9.51975684,9.45665962 9.71732523,9.63424947 L11.7841945,11.6321353 L16.2826748,7.28118393 C16.4650456,7.10359408 16.7234043,7 16.9969605,7 C17.2705167,7 17.5288754,7.10359408 17.7112462,7.29598309 C17.893617,7.48837209 18,7.72515856 18,7.99154334 C18,8.25792812 17.893617,8.49471459 17.6960486,8.68710359 L12.5592705,13.6448203 C12.5440729,13.6596195 12.5288754,13.6892178 12.4984802,13.7040169 C12.331307,13.8668076 12.1033435,13.9704017 11.8601824,13.9852008 L11.8449848,13.9852008 L11.7386018,13.9852008 L11.7386018,14 Z" id="Path"></path>
                </g>
            </g>
        </g>
    </g>
</svg>