<?xml version="1.0" encoding="UTF-8"?>
<svg width="58px" height="58px" viewBox="0 0 58 58" version="1.1" xmlns="http://www.w3.org/2000/svg" xmlns:xlink="http://www.w3.org/1999/xlink">
    <title>Group</title>
    <g id="PackagesPages" stroke="none" stroke-width="1" fill="none" fill-rule="evenodd">
        <g id="PriceAlertSuccess" transform="translate(-20.000000, -704.000000)" fill="#5FA900" fill-rule="nonzero">
            <g id="Group" transform="translate(20.000000, 704.000000)">
                <path d="M28.8,0.299999982 C13.0799992,0.299999982 0.299999982,13.0799992 0.299999982,28.8 C0.299999982,44.5199973 13.0799992,57.3 28.8,57.3 C44.5199973,57.3 57.3,44.5199973 57.3,28.8 C57.3,13.0799992 44.5199973,0.299999982 28.8,0.299999982 Z M28.7999983,53.8199968 C14.9999991,53.8199968 3.77999977,42.5999975 3.77999977,28.7999983 C3.77999977,14.9999991 14.9999991,3.77999977 28.7999983,3.77999977 C42.5999975,3.77999977 53.8199968,14.9999991 53.8199968,28.7999983 C53.8199968,42.5999975 42.5999975,53.8199968 28.7999983,53.8199968 Z" id="Shape"></path>
                <polygon id="Path" points="25.1999985 34.079998 16.619999 25.4999985 13.5599992 28.5599983 25.1999985 40.1999976 45.1199973 20.2799988 41.9999975 17.219999"></polygon>
            </g>
        </g>
    </g>
</svg>