<?xml version="1.0" encoding="UTF-8"?>
<svg width="20px" height="20px" viewBox="0 0 20 20" version="1.1" xmlns="http://www.w3.org/2000/svg" xmlns:xlink="http://www.w3.org/1999/xlink">
    <!-- Generator: Sketch 62 (91390) - https://sketch.com -->
    <title>Path</title>
    <desc>Created with Sketch.</desc>
    <g id="Mobile" stroke="none" stroke-width="1" fill="none" fill-rule="evenodd">
        <g id="sidebar" transform="translate(-349.000000, -20.000000)" fill="#CE348B" fill-rule="nonzero">
            <path d="M360.806108,29.9778054 L368.576468,22.2072088 C369.08215,21.7017638 369.08215,20.8845289 368.576468,20.3790838 C368.071023,19.8736387 367.253788,19.8736387 366.748343,20.3790838 L358.977746,28.1496804 L351.207386,20.3790838 C350.701705,19.8736387 349.884706,19.8736387 349.379261,20.3790838 C348.87358,20.8845289 348.87358,21.7017638 349.379261,22.2072088 L357.149621,29.9778054 L349.379261,37.748402 C348.87358,38.2538471 348.87358,39.0710819 349.379261,39.576527 C349.631155,39.8286577 349.962358,39.9553149 350.293324,39.9553149 C350.62429,39.9553149 350.955256,39.8286577 351.207386,39.576527 L358.977746,31.8059304 L366.748343,39.576527 C367.000473,39.8286577 367.331439,39.9553149 367.662405,39.9553149 C367.993371,39.9553149 368.324337,39.8286577 368.576468,39.576527 C369.08215,39.0710819 369.08215,38.2538471 368.576468,37.748402 L360.806108,29.9778054 Z" id="Path"></path>
        </g>
    </g>
</svg>