<?xml version="1.0" encoding="UTF-8"?>
<svg width="28px" height="19px" viewBox="0 0 28 19" version="1.1" xmlns="http://www.w3.org/2000/svg" xmlns:xlink="http://www.w3.org/1999/xlink">
    <!-- Generator: Sketch 62 (91390) - https://sketch.com -->
    <title>breadcrumbs/payment</title>
    <desc>Created with Sketch.</desc>
    <g id="Icons" stroke="none" stroke-width="1" fill="none" fill-rule="evenodd">
        <g id="propuestas-copy-2" transform="translate(-41.000000, -184.000000)">
            <g id="breadcrumbs/payment" transform="translate(37.000000, 176.000000)">
                <g id="funnel-seats" transform="translate(5.200000, 8.857868)">
                    <polygon id="Fill-1" fill="#FF79A4" points="7.12527692 6.16473846 25.3252769 6.16473846 25.3252769 0.564738462 7.12527692 0.564738462"></polygon>
                    <path d="M24.1038523,17.3914892 L1.42019077,17.3914892 C0.648790769,17.3914892 0.0226676923,16.7653662 0.0226676923,15.9939662 L0.0226676923,1.96144308 C0.0226676923,1.19004308 0.648790769,0.56392 1.42019077,0.56392 L24.1038523,0.56392 C24.8752523,0.56392 25.5013754,1.19004308 25.5013754,1.96144308 L25.5013754,15.9939662 C25.5013754,16.7653662 24.8752523,17.3914892 24.1038523,17.3914892 Z" id="Stroke-2" stroke="#181212" stroke-width="1.218"></path>
                    <line x1="0.0234861538" y1="5.90376769" x2="25.5001477" y2="5.90376769" id="Stroke-4" stroke="#181212" stroke-width="1.218"></line>
                    <path d="M22.1305415,14.7079585 L16.1537262,14.7079585 C15.7485877,14.7079585 15.4191569,14.3805738 15.4191569,13.9754354 L15.4191569,12.6720354 C15.4191569,12.2668969 15.7485877,11.9374662 16.1537262,11.9374662 L22.1305415,11.9374662 C22.53568,11.9374662 22.8651108,12.2668969 22.8651108,12.6720354 L22.8651108,13.9754354 C22.8651108,14.3805738 22.53568,14.7079585 22.1305415,14.7079585" id="Fill-6" fill="#FF79A4"></path>
                </g>
            </g>
        </g>
    </g>
</svg>