<?xml version="1.0" encoding="UTF-8"?>
<svg width="15px" height="15px" viewBox="0 0 15 15" version="1.1" xmlns="http://www.w3.org/2000/svg" xmlns:xlink="http://www.w3.org/1999/xlink">
    <!-- Generator: Sketch 64 (93537) - https://sketch.com -->
    <title>ticket</title>
    <desc>Created with Sketch.</desc>
    <g id="Symbols" stroke="none" stroke-width="1" fill="none" fill-rule="evenodd">
        <g id="eTicket/small" transform="translate(0.000000, -1.000000)" fill-rule="nonzero">
            <g id="Group-4">
                <g id="ticket" transform="translate(7.500000, 8.500000) rotate(-90.000000) translate(-7.500000, -8.500000) translate(0.000000, 1.000000)">
                    <path d="M14.8124664,8.85585202 L9.59384529,3.63723094 C9.5411435,3.58452915 9.47085202,3.53179372 9.38300448,3.51423767 L8.32873318,3.1628139 L7.97730942,2.1085426 C7.95975336,2.03825112 7.90701794,1.96795964 7.85431614,1.89770179 L6.11475336,0.158139013 C5.90391256,-0.0527017937 5.57004484,-0.0527017937 5.37676009,0.158139013 L3.88321749,1.65168161 C3.70752242,1.82737668 3.67237668,2.1085426 3.81292601,2.31938341 C4.11164798,2.75865471 4.05891256,3.33850897 3.68993274,3.68993274 C3.32095291,4.05891256 2.74109865,4.11164798 2.31938341,3.8305157 C2.1085426,3.68993274 1.82737668,3.70752242 1.65168161,3.90080717 L0.158139013,5.37676009 C-0.0527017937,5.5876009 -0.0527017937,5.92146861 0.158139013,6.11475336 L1.89766816,7.85428251 C1.95036996,7.9069843 2.02066143,7.95971973 2.10850897,7.97727578 L3.16278027,8.32869955 L3.51420404,9.38297085 C3.53176009,9.45326233 3.58449552,9.52355381 3.63719731,9.59381166 L8.85581839,14.8124327 C8.96125561,14.91787 9.10180493,14.9705717 9.22479821,14.9705717 C9.34779148,14.9705717 9.48837444,14.91787 9.59377803,14.8124327 L10.9643274,13.4418834 C11.1576121,13.2485987 11.1751682,12.9498767 10.9994731,12.7390359 C10.6480493,12.3173206 10.6656054,11.6847646 11.0697646,11.280639 C11.4738901,10.8765135 12.0888901,10.8413677 12.5281614,11.2103475 C12.7390022,11.3860426 13.0377242,11.3684865 13.231009,11.1752018 L14.8123991,9.59381166 C15.0233408,9.40056054 15.0233408,9.06672646 14.8124664,8.85585202 Z" id="Path" fill="#F845AA"></path>
                    <path d="M2.56540359,7.01088565 L3.74266816,7.41501121 C3.8305157,7.45015695 3.90080717,7.50285874 3.95350897,7.55559417 L7.57315022,3.93595291 C7.55559417,3.93595291 7.55559417,3.93595291 7.55559417,3.93595291 C7.50289238,3.86566143 7.46774664,3.79536996 7.4326009,3.72511211 L7.02847534,2.5478139 L5.74577354,1.26511211 L4.90234305,2.1085426 C5.21862108,2.89923767 5.04292601,3.8305157 4.42792601,4.42792601 C3.81292601,5.02533632 2.89923767,5.20106502 2.12609865,4.884787 L1.28266816,5.72821749 L2.56540359,7.01088565 Z" id="Path" fill="#A41A69"></path>
                </g>
            </g>
        </g>
    </g>
</svg>