<?xml version="1.0" encoding="UTF-8"?>
<svg width="32px" height="29px" viewBox="0 0 32 29" version="1.1" xmlns="http://www.w3.org/2000/svg" xmlns:xlink="http://www.w3.org/1999/xlink">
    <!-- Generator: Sketch 64 (93537) - https://sketch.com -->
    <title>Group 3</title>
    <desc>Created with Sketch.</desc>
    <g id="Funnel" stroke="none" stroke-width="1" fill="none" fill-rule="evenodd">
        <g id="Passengers-Desktop-Copy" transform="translate(-130.000000, -230.000000)">
            <g id="Group-3" transform="translate(130.000000, 230.000000)">
                <g id="ticket" transform="translate(12.500000, 12.500000) rotate(-90.000000) translate(-12.500000, -12.500000) " fill-rule="nonzero">
                    <path d="M24.6874439,14.7597534 L15.9897422,6.06205157 C15.9019058,5.97421525 15.7847534,5.88632287 15.6383408,5.85706278 L13.881222,5.2713565 L13.2955157,3.51423767 C13.2662556,3.3970852 13.1783632,3.27993274 13.0905269,3.16283632 L10.1912556,0.263565022 C9.83985426,-0.0878363229 9.28340807,-0.0878363229 8.96126682,0.263565022 L6.47202915,2.75280269 C6.17920404,3.0456278 6.1206278,3.51423767 6.35487668,3.86563901 C6.85274664,4.59775785 6.76485426,5.56418161 6.14988789,6.14988789 C5.53492152,6.76485426 4.56849776,6.85274664 3.86563901,6.38419283 C3.51423767,6.14988789 3.0456278,6.17920404 2.75280269,6.50134529 L0.263565022,8.96126682 C-0.0878363229,9.31266816 -0.0878363229,9.86911435 0.263565022,10.1912556 L3.16278027,13.0904709 C3.25061659,13.1783072 3.36776906,13.2661996 3.51418161,13.2954596 L5.27130045,13.8811659 L5.85700673,15.6382848 C5.88626682,15.7554372 5.97415919,15.8725897 6.06199552,15.9896861 L14.7596973,24.6873879 C14.935426,24.8631166 15.1696749,24.9509529 15.3746637,24.9509529 C15.5796525,24.9509529 15.8139574,24.8631166 15.98963,24.6873879 L18.2738789,22.403139 C18.5960202,22.0809978 18.6252803,21.5831278 18.3324552,21.2317265 C17.7467489,20.5288677 17.776009,19.4746076 18.4496076,18.801065 C19.1231502,18.1275224 20.1481502,18.0689462 20.8802691,18.6839126 C21.2316704,18.9767377 21.7295404,18.9474776 22.0516816,18.6253363 L24.6873318,15.9896861 C25.0389013,15.6676009 25.0389013,15.1112108 24.6874439,14.7597534 Z" id="Path" fill="#F845AA"></path>
                    <path d="M4.27567265,11.6848094 L6.23778027,12.358352 C6.38419283,12.4169283 6.50134529,12.5047646 6.58918161,12.592657 L12.621917,6.55992152 C12.592657,6.55992152 12.592657,6.55992152 12.592657,6.55992152 C12.5048206,6.44276906 12.4462444,6.32561659 12.3876682,6.20852018 L11.7141256,4.2463565 L9.57628924,2.10852018 L8.17057175,3.51423767 C8.69770179,4.83206278 8.40487668,6.38419283 7.37987668,7.37987668 C6.35487668,8.37556054 4.83206278,8.6684417 3.54349776,8.14131166 L2.13778027,9.54702915 L4.27567265,11.6848094 Z" id="Path" fill="#A41A69"></path>
                </g>
                <g id="Group" transform="translate(15.338639, 12.338639)">
                    <circle id="Oval" stroke="#686868" stroke-width="1.77821995" fill="#FFD26A" cx="7.55743478" cy="7.55743478" r="7.55743478"></circle>
                    <path d="M10.2803341,5.55792965 L7.06608453,8.82939044 L5.72364546,7.4631653 C5.43154067,7.16547223 4.95700744,7.16547223 4.66490266,7.4631653 C4.37243227,7.76067231 4.37243227,8.24330722 4.66490266,8.54081422 L6.53671313,10.4460499 C6.68276552,10.5948964 6.87451641,10.6693197 7.06608453,10.6693197 C7.25765265,10.6693197 7.44940353,10.5948964 7.59545593,10.4460499 L11.3390769,6.63557856 C11.6315473,6.33807156 11.6315473,5.85543665 11.3390769,5.55792965 C11.0469721,5.26023657 10.5724389,5.26023657 10.2803341,5.55792965 Z" id="Path" fill="#686868" fill-rule="nonzero"></path>
                </g>
            </g>
        </g>
    </g>
</svg>