<?xml version="1.0" encoding="UTF-8"?>
<svg width="33px" height="35px" viewBox="0 0 33 35" version="1.1" xmlns="http://www.w3.org/2000/svg" xmlns:xlink="http://www.w3.org/1999/xlink">
    <!-- Generator: Sketch 62 (91390) - https://sketch.com -->
    <title>Icons/Badges/Warranty</title>
    <desc>Created with Sketch.</desc>
    <g id="UI" stroke="none" stroke-width="1" fill="none" fill-rule="evenodd">
        <g id="Componentes" transform="translate(-537.000000, -2624.000000)">
            <g id="Group" transform="translate(536.000000, 2623.000000)">
                <g id="icons/guarantee" transform="translate(0.000000, 1.000000)">
                    <g id="garantiÌa" transform="translate(1.029412, 0.000000)">
                        <ellipse id="Oval" fill="#ECBD00" fill-rule="nonzero" cx="16.072549" cy="17.2492308" rx="14.7686275" ry="14.8984615"></ellipse>
                        <ellipse id="Oval" fill-opacity="0.2" fill="#000000" fill-rule="nonzero" cx="16.072549" cy="17.2492308" rx="13.1352941" ry="13.2507692"></ellipse>
                        <path d="M31.4588235,19.4230769 C30.965071,18.0451702 30.965071,16.5363683 31.4588235,15.1584615 L31.9666667,13.9261538 C32.4425205,12.6985677 31.9947008,11.3027556 30.8960784,10.5892308 L29.7568627,9.89692308 C28.5631968,9.06716837 27.6866164,7.85066357 27.272549,6.44923077 L26.9705882,5.14769231 C26.6125818,3.89941976 25.4423324,3.07016428 24.1568627,3.15384615 L22.7843137,3.26461538 C21.3353818,3.29430075 19.9187474,2.83094447 18.7627451,1.94923077 L17.8431373,1.00769231 C16.8326715,0.175299788 15.381054,0.175299788 14.3705882,1.00769231 L13.3686275,1.88 C12.1961335,2.75585313 10.763959,3.20490172 9.30588235,3.15384615 L8.00196078,3.15384615 C6.71649112,3.07016428 5.54624172,3.89941976 5.18823529,5.14769231 L4.87254902,6.44923077 C4.46356323,7.85319159 3.58585292,9.07126443 2.38823529,9.89692308 L1.2627451,10.5892308 C0.164122756,11.3027556 -0.283696987,12.6985677 0.192156863,13.9261538 L0.7,15.1584615 C1.18023705,16.5387242 1.18023705,18.0428142 0.7,19.4230769 L0.192156863,20.6553846 C-0.283696987,21.8829708 0.164122756,23.2787829 1.2627451,23.9923077 L2.38823529,24.6846154 C3.57575364,25.4963289 4.45236712,26.6933366 4.87254902,28.0769231 L5.18823529,29.3784615 C5.5194555,30.6543511 6.69671138,31.5175374 8.00196078,31.4415385 L9.3745098,31.3307692 C10.8298729,31.2856402 12.255802,31.7504502 13.4098039,32.6461538 L14.4117647,33.5184615 C15.3920038,34.3571926 16.8179108,34.3974689 17.8431373,33.6153846 L18.845098,32.7430769 C19.9948838,31.8493975 21.4158085,31.3846379 22.8666667,31.4276923 L24.2392157,31.5384615 C25.519292,31.5809903 26.6584113,30.7248858 26.9843137,29.4753846 L27.2862745,28.1738462 C27.7003419,26.7724134 28.5769223,25.5559086 29.7705882,24.7261538 L30.9098039,24.0338462 C32.0084263,23.3203213 32.456246,21.9245092 31.9803922,20.6969231 L31.4588235,19.4230769 Z M16.072549,32.1061538 C10.1257055,32.1061538 4.76468583,28.4916252 2.4902117,22.9486213 C0.215737571,17.4056175 1.47592488,11.026216 5.68294184,6.78617694 C9.88995879,2.54613788 16.2149408,1.28083182 21.7075125,3.58047829 C27.2000842,5.88012475 30.7781016,11.2916484 30.7725555,17.2907692 C30.7649736,25.4753195 24.1857777,32.1061538 16.072549,32.1061538 Z" id="Shape" fill="#ECBD00" fill-rule="nonzero"></path>
                        <path d="M16.072549,29.8076923 C9.25926984,29.7695074 3.76312001,24.1734915 3.78823348,17.3002563 C3.81351957,10.4270211 9.35055253,4.87217118 16.1639253,4.88480724 C22.9772981,4.89748647 28.4941176,10.4728716 28.4941176,17.3461538 C28.4488869,24.2364918 22.9029862,29.800238 16.072549,29.8076923 L16.072549,29.8076923 Z M16.072549,5.49384615 C9.61406618,5.49384615 4.37843137,10.7755085 4.37843137,17.2907692 C4.37843137,23.8060299 9.61406618,29.0876923 16.072549,29.0876923 C22.5310319,29.0876923 27.7666667,23.8060299 27.7666667,17.2907692 C27.7591033,10.7786715 22.5278964,5.50147604 16.072549,5.49384615 Z" id="Shape" fill="#ECBD00" fill-rule="nonzero"></path>
                        <path d="M26.2843137,22.94 L25.6529412,23.2030769 C24.6661297,23.7438196 23.4650181,23.6959905 22.5235294,23.0784615 L22.5235294,23.0784615 C21.6313725,22.5523077 21.0686275,21.8323077 20.0254902,19.7969231 C21.5983739,19.0297689 22.7327259,17.5738205 23.1,15.8507692 L23.1,15.8507692 C23.8053975,13.1062234 22.6022343,10.2250077 20.1627451,8.81692308 C17.5435777,7.44040498 14.3672456,7.74402314 12.0509804,9.59230769 C11.4781252,10.0600824 10.9621229,10.594564 10.5137255,11.1846154 C9.81638053,10.3325796 9.01377851,9.57410705 8.1254902,8.92769231 L8.00196078,8.83076923 C7.63319887,9.18898137 7.28492443,9.56805463 6.95882353,9.96615385 L7.15098039,10.1046154 C8.08485926,10.7682497 8.91328126,11.5712734 9.60784314,12.4861538 C8.08291985,15.0966745 7.50548958,18.1609529 7.9745098,21.1538462 L7.9745098,21.2923077 C8.22156863,24.0615385 9.34705882,25.7923077 10.8568627,25.8753846 L10.9803922,25.8753846 C11.4196078,25.8753846 12.7647059,25.8753846 13.2862745,23.3 L13.2862745,23.3 C14.0137255,18.8138462 13.4647059,15.5738462 11.4882353,12.5138462 C11.9541057,11.8582655 12.4778084,11.246542 13.0529412,10.6861538 C14.8548225,9.20687357 17.3620023,8.96651564 19.4078431,10.0769231 C21.2448867,11.1544689 22.1520536,13.3293434 21.6313725,15.4076923 C21.3804205,16.7156002 20.5228534,17.8227301 19.3254902,18.3846154 L18.9411765,17.6092308 C17.7607843,15.2 16.2784314,15.38 15.6882353,15.56 C14.5553189,15.9693275 13.8660632,17.128186 14.0411765,18.3292308 C14.0411765,18.8138462 14.5490196,20.3646154 17.0607843,20.3646154 L17.0607843,20.3646154 C17.5579662,20.3623051 18.0539875,20.3159734 18.5431373,20.2261538 C19.7647059,22.6076923 20.4509804,23.6184615 21.754902,24.38 C22.6786497,25.0019078 23.8156385,25.2122718 24.8980392,24.9615468 C25.4347004,24.3429618 25.8997882,23.6647464 26.2843137,22.94 L26.2843137,22.94 Z M11.7764706,22.94 C11.5980392,23.7707692 11.2823529,24.3246154 10.9529412,24.3246154 C10.6235294,24.3246154 9.70392157,23.4938462 9.48431373,21.1261538 L9.48431373,20.96 C9.11885979,18.5572476 9.50256368,16.099308 10.5823529,13.9261538 C12.0603518,16.6971679 12.4849592,19.9171043 11.7764706,22.9815385 L11.7764706,22.94 Z M17.0607843,18.7861538 L17.0607843,18.7861538 C16.6352941,18.7861538 15.6882353,18.7169231 15.5372549,18.0661538 C15.4885641,17.6124706 15.7391722,17.1798826 16.154902,17 L16.3058824,17 C16.7176471,17 17.1843137,17.4846154 17.5960784,18.3015385 L17.8294118,18.7723077 C17.5746529,18.8095688 17.318057,18.8326805 17.0607843,18.8415385 L17.0607843,18.7861538 Z" id="Shape" fill="#FFFFFF" fill-rule="nonzero"></path>
                        <path d="M27.6980392,7.59846154 L27.6980392,7.59846154 C27.5137195,7.25215411 27.3708861,6.88495944 27.272549,6.50461538 L26.9705882,5.21692308 C26.639368,3.94103356 25.4621122,3.07784721 24.1568627,3.15384615 L22.7843137,3.26461538 C21.3353818,3.29430075 19.9187474,2.83094447 18.7627451,1.94923077 L17.8431373,1.00769231 C16.8326715,0.175299788 15.381054,0.175299788 14.3705882,1.00769231 L13.3686275,1.88 C12.1961335,2.75585313 10.763959,3.20490172 9.30588235,3.15384615 L8.00196078,3.15384615 C6.71649112,3.07016428 5.54624172,3.89941976 5.18823529,5.14769231 L4.87254902,6.43538462 C4.46743007,7.84494903 3.58921014,9.06862382 2.38823529,9.89692308 L1.2627451,10.5892308 C0.164122756,11.3027556 -0.283696987,12.6985677 0.192156863,13.9261538 L0.7,15.1584615 C0.952826883,15.8493408 1.07390702,16.5822083 1.05686275,17.3184615 L27.6980392,7.59846154 Z" id="Shape" fill="#FFFFFF" fill-rule="nonzero" opacity="0.2"></path>
                    </g>
                </g>
            </g>
        </g>
    </g>
</svg>