<?xml version="1.0" encoding="UTF-8"?>
<svg width="20px" height="15px" viewBox="0 0 20 15" version="1.1" xmlns="http://www.w3.org/2000/svg" xmlns:xlink="http://www.w3.org/1999/xlink">
    <!-- Generator: Sketch 62 (91390) - https://sketch.com -->
    <title>menu</title>
    <desc>Created with Sketch.</desc>
    <g id="Mobile" stroke="none" stroke-width="1" fill="none" fill-rule="evenodd">
        <g id="Personal-info-Copy-2" transform="translate(-15.000000, -22.000000)" fill="#FFFFFF" fill-rule="nonzero">
            <g id="menu" transform="translate(15.000000, 22.000000)">
                <path d="M19.1666667,8.05562339 L0.833333333,8.05562339 C0.373331719,8.05562339 0,7.68229167 0,7.22229005 C0,6.76228844 0.373331719,6.38895672 0.833333333,6.38895672 L19.1666667,6.38895672 C19.6266683,6.38895672 20,6.76228844 20,7.22229005 C20,7.68229167 19.6266683,8.05562339 19.1666667,8.05562339 Z" id="Path"></path>
                <path d="M19.1666667,1.66666667 L0.833333333,1.66666667 C0.373331719,1.66666667 0,1.29333495 0,0.833333333 C0,0.373331719 0.373331719,0 0.833333333,0 L19.1666667,0 C19.6266683,0 20,0.373331719 20,0.833333333 C20,1.29333495 19.6266683,1.66666667 19.1666667,1.66666667 Z" id="Path"></path>
                <path d="M19.1666667,14.4443766 L0.833333333,14.4443766 C0.373331719,14.4443766 0,14.0710449 0,13.6110433 C0,13.1510417 0.373331719,12.7777099 0.833333333,12.7777099 L19.1666667,12.7777099 C19.6266683,12.7777099 20,13.1510417 20,13.6110433 C20,14.0710449 19.6266683,14.4443766 19.1666667,14.4443766 Z" id="Path"></path>
            </g>
        </g>
    </g>
</svg>