<?xml version="1.0" encoding="UTF-8"?>
<svg width="25px" height="25px" viewBox="0 0 25 25" version="1.1" xmlns="http://www.w3.org/2000/svg" xmlns:xlink="http://www.w3.org/1999/xlink">
    <title>PlusAmenities</title>
    <defs>
        <polygon id="path-1" points="0.51649375 0.40825 22.0785625 0.40825 22.0785625 21.3994875 0.51649375 21.3994875"></polygon>
    </defs>
    <g id="PlusAmenities" stroke="none" stroke-width="1" fill="none" fill-rule="evenodd">
        <g id="Group-6" transform="translate(1.000000, 2.000000)">
            <mask id="mask-2" fill="white">
                <use xlink:href="#path-1"></use>
            </mask>
            <g id="Clip-5"></g>
            <path d="M14.8986812,13.074925 L19.9974937,13.074925 C21.1417438,13.074925 22.0789937,12.137675 22.0789937,10.993425 L22.0789937,10.5018 C22.0789937,9.35755 21.1417438,8.4203 19.9974937,8.4203 L14.8986812,8.4203 L13.7544313,8.4203 L13.7544313,7.589425 L13.7544313,2.4906125 C13.7544313,1.344925 12.8186187,0.407675 11.6729313,0.407675 L11.1827437,0.407675 C10.0370563,0.407675 9.09980625,1.344925 9.09980625,2.4906125 L9.09980625,7.589425 L9.09980625,8.4203 L7.69680625,8.4203 L2.59799375,8.4203 C1.45230625,8.4203 0.51649375,9.35755 0.51649375,10.5018 L0.51649375,10.993425 C0.51649375,12.137675 1.45230625,13.074925 2.59799375,13.074925 L7.69680625,13.074925 L9.09980625,13.074925 L9.09980625,13.339425 L9.09980625,19.31655 C9.09980625,20.4622375 10.0370563,21.3994875 11.1827437,21.3994875 L11.6729313,21.3994875 C12.8186187,21.3994875 13.7544313,20.4622375 13.7544313,19.31655 L13.7544313,13.6801125 L13.7544313,13.074925 L14.8986812,13.074925 Z" id="Fill-4" fill="#79BDD9" mask="url(#mask-2)"></path>
        </g>
    </g>
</svg>