<?xml version="1.0" encoding="UTF-8"?>
<svg width="40px" height="40px" viewBox="0 0 40 40" version="1.1" xmlns="http://www.w3.org/2000/svg" xmlns:xlink="http://www.w3.org/1999/xlink">
    <!-- Generator: Sketch 62 (91390) - https://sketch.com -->
    <title>instagram</title>
    <desc>Created with Sketch.</desc>
    <defs>
        <linearGradient x1="9.1540625%" y1="90.8465625%" x2="90.0290188%" y2="9.97036875%" id="linearGradient-1">
            <stop stop-color="#FFC107" offset="0%"></stop>
            <stop stop-color="#F44336" offset="50.7%"></stop>
            <stop stop-color="#9C27B0" offset="100%"></stop>
        </linearGradient>
    </defs>
    <g id="UI" stroke="none" stroke-width="1" fill="none" fill-rule="evenodd">
        <g id="Icons" transform="translate(-199.000000, -232.000000)">
            <g id="instagram" transform="translate(199.000000, 232.000000)">
                <circle id="Oval-Copy" fill="url(#linearGradient-1)" cx="20" cy="20" r="20"></circle>
                <g transform="translate(8.000000, 8.000000)" fill="#FFFFFF" fill-rule="nonzero">
                    <path d="M16.5,0 L7.5,0 C3.3585,0 0,3.3585 0,7.5 L0,16.5 C0,20.6415 3.3585,24 7.5,24 L16.5,24 C20.6415,24 24,20.6415 24,16.5 L24,7.5 C24,3.3585 20.6415,0 16.5,0 Z M21.75,16.5 C21.75,19.395 19.395,21.75 16.5,21.75 L7.5,21.75 C4.605,21.75 2.25,19.395 2.25,16.5 L2.25,7.5 C2.25,4.605 4.605,2.25 7.5,2.25 L16.5,2.25 C19.395,2.25 21.75,4.605 21.75,7.5 L21.75,16.5 Z" id="Shape"></path>
                    <path d="M12,6 C8.6865,6 6,8.6865 6,12 C6,15.3135 8.6865,18 12,18 C15.3135,18 18,15.3135 18,12 C18,8.6865 15.3135,6 12,6 Z M12,15.75 C9.933,15.75 8.25,14.067 8.25,12 C8.25,9.9315 9.933,8.25 12,8.25 C14.067,8.25 15.75,9.9315 15.75,12 C15.75,14.067 14.067,15.75 12,15.75 Z" id="Shape"></path>
                    <circle id="Oval" cx="18.45" cy="5.55" r="1"></circle>
                </g>
            </g>
        </g>
    </g>
</svg>