<?xml version="1.0" encoding="UTF-8"?>
<svg width="25px" height="25px" viewBox="0 0 25 25" version="1.1" xmlns="http://www.w3.org/2000/svg" xmlns:xlink="http://www.w3.org/1999/xlink">
    <title>ticketBlue</title>
    <g id="ticketBlue" stroke="none" stroke-width="1" fill="none" fill-rule="evenodd">
        <g id="ticket-blue" transform="translate(2.000000, 6.000000)" fill="#79BDD9" fill-rule="nonzero">
            <path d="M21.4238827,4.92514484 C21.7420635,4.92514484 22,4.66834409 22,4.3515643 L22,2.48551564 C21.997885,1.1136764 20.8813981,0.00210566641 19.5034916,-4.45155024e-12 L16.2810754,-4.45155024e-12 L16.2810754,1.52954809 C16.2810754,1.84632787 16.0231389,2.10312862 15.7049581,2.10312862 C15.3867773,2.10312862 15.1288408,1.84632787 15.1288408,1.52954809 L15.1288408,-4.45155024e-12 L2.49650838,-4.45155024e-12 C1.11860188,0.00210566641 0.00211497918,1.1136764 0,2.48551564 L0,4.3515643 C0,4.66834409 0.257936509,4.92514484 0.576117319,4.92514484 C1.50520528,4.92514484 2.25837989,5.67500305 2.25837989,6.6 C2.25837989,7.52499695 1.50520528,8.27485516 0.576117319,8.27485516 C0.257936509,8.27485516 0,8.53165591 0,8.8484357 L0,10.7144843 C0.00211497918,12.0863236 1.11860188,13.1978943 2.49650838,13.2 L15.1288408,13.2 L15.1288408,11.9878331 C15.1288408,11.6710534 15.3867773,11.4142526 15.7049581,11.4142526 C16.0231389,11.4142526 16.2810754,11.6710534 16.2810754,11.9878331 L16.2810754,13.2 L19.5034916,13.2 C20.8813981,13.1978943 21.997885,12.0863236 22,10.7144843 L22,8.8484357 C22,8.53165591 21.7420635,8.27485516 21.4238827,8.27485516 C20.4947947,8.27485516 19.7416201,7.52499695 19.7416201,6.6 C19.7416201,5.67500305 20.4947947,4.92514484 21.4238827,4.92514484 L21.4238827,4.92514484 Z M10.4164728,5.97142857 L5.61209864,5.97142857 C5.28982545,5.97142857 5.02857143,5.69000756 5.02857143,5.34285714 C5.02857143,4.99570673 5.28982545,4.71428571 5.61209864,4.71428571 L10.4164728,4.71428571 C10.738746,4.71428571 11,4.99570673 11,5.34285714 C11,5.69000756 10.738746,5.97142857 10.4164728,5.97142857 L10.4164728,5.97142857 Z M11.986711,3.77142857 L5.613289,3.77142857 C5.29035842,3.77142857 5.02857143,3.49000756 5.02857143,3.14285714 C5.02857143,2.79570674 5.29035842,2.51428571 5.613289,2.51428571 L11.986711,2.51428571 C12.3096416,2.51428571 12.5714286,2.79570673 12.5714286,3.14285714 C12.5714286,3.49000756 12.3096416,3.77142857 11.986711,3.77142857 L11.986711,3.77142857 Z M16.3428571,9.50737194 C16.3428571,9.81100202 16.0614361,10.0571429 15.7142857,10.0571429 C15.3671353,10.0571429 15.0857143,9.81100202 15.0857143,9.50737194 L15.0857143,8.09262806 C15.0857143,7.78899798 15.3671353,7.54285714 15.7142857,7.54285714 C16.0614361,7.54285714 16.3428571,7.78899798 16.3428571,8.09262806 L16.3428571,9.50737194 Z M16.3428571,5.42165765 C16.3428571,5.72528773 16.0614361,5.97142857 15.7142857,5.97142857 C15.3671353,5.97142857 15.0857143,5.72528773 15.0857143,5.42165765 L15.0857143,4.00691377 C15.0857143,3.7032837 15.3671353,3.45714286 15.7142857,3.45714286 C16.0614361,3.45714286 16.3428571,3.7032837 16.3428571,4.00691377 L16.3428571,5.42165765 Z" id="Shape"></path>
        </g>
    </g>
</svg>