<?xml version="1.0" encoding="UTF-8"?>
<svg width="26px" height="23px" viewBox="0 0 26 23" version="1.1" xmlns="http://www.w3.org/2000/svg" xmlns:xlink="http://www.w3.org/1999/xlink">
    <!-- Generator: Sketch 62 (91390) - https://sketch.com -->
    <title>wallet</title>
    <desc>Created with Sketch.</desc>
    <g id="UI" stroke="none" stroke-width="1" fill="none" fill-rule="evenodd">
        <g id="Componentes" transform="translate(-420.000000, -676.000000)">
            <g id="Group-2" transform="translate(420.000000, 676.000000)">
                <g id="icons/wallet">
                    <g id="icon-wallet">
                        <path d="M11.517853,7.32411995 C11.517853,10.0786654 9.28497101,12.3115474 6.53042553,12.3115474 C3.77588008,12.3115474 1.54299806,10.0786654 1.54299806,7.32411995 C1.54299806,4.56957447 3.77588008,2.33669246 6.53042553,2.33669246 C9.28497101,2.33669246 11.517853,4.56957447 11.517853,7.32411995" id="Fill-7" fill="#FFD26A" fill-rule="nonzero"></path>
                        <path d="M11.517853,7.32411995 C11.517853,10.0786654 9.28497101,12.3115474 6.53042553,12.3115474 C3.77588008,12.3115474 1.54299806,10.0786654 1.54299806,7.32411995 C1.54299806,4.56957447 3.77588008,2.33669246 6.53042553,2.33669246 C9.28497101,2.33669246 11.517853,4.56957447 11.517853,7.32411995 Z" id="Stroke-9" stroke="#686868" stroke-width="0.580270793"></path>
                        <path d="M14.9171373,10.844971 C12.1631721,10.844971 9.93029016,8.61208899 9.93029016,5.85754351 C9.93029016,3.10299806 12.1631721,0.870116053 14.9171373,0.870116053 C16.3388992,0.870116053 17.709141,1.52669632 18.6176402,2.48112186 C19.4692828,3.37581646 19.9045648,4.52475995 19.9045648,5.85754351 C19.9045648,8.61208899 17.6716828,10.844971 14.9171373,10.844971 Z" id="Fill-1" fill="#FFD26A" fill-rule="nonzero"></path>
                        <path d="M19.9045648,5.85754354 C19.9045648,8.61208902 17.6716828,10.844971 14.9171373,10.844971 C12.1631721,10.844971 9.93029015,8.61208902 9.93029015,5.85754354 C9.93029015,3.10299809 12.1631721,0.87011608 14.9171373,0.87011608 C17.6716828,0.87011608 19.9045648,3.10299809 19.9045648,5.85754354 Z" id="Stroke-3" stroke="#686868" stroke-width="0.580270793" transform="translate(14.917427, 5.857544) rotate(-8.000000) translate(-14.917427, -5.857544) "></path>
                        <path d="M15.7158221,6.64340427 C15.5562476,6.48789172 15.2875822,6.34688592 14.9098259,6.22096714 C14.3835203,6.06023214 13.9999613,5.85133464 13.7585687,5.59253384 C13.5177563,5.33431336 13.3976402,5.00646036 13.3976402,4.60897487 C13.3976402,4.20336558 13.5154352,3.87087042 13.7516054,3.61206965 C13.9790715,3.36139266 14.2889362,3.20878144 14.6806189,3.15423599 C14.7055706,3.15075436 14.7241393,3.13044489 14.7241393,3.10491297 L14.7241393,2.48112187 C14.7241393,2.40162477 14.7891296,2.33663444 14.8686267,2.33663444 L15.1326499,2.33663444 C15.212147,2.33663444 15.2765571,2.40162477 15.2765571,2.48112187 L15.2765571,3.10955514 C15.2765571,3.13392651 15.2951257,3.15481626 15.3194971,3.15829789 C15.713501,3.2215474 16.0227853,3.39330756 16.2456093,3.67473889 C16.4539265,3.93818183 16.5688201,4.28866539 16.5891296,4.72676984 C16.5926112,4.80626694 16.5264604,4.87183754 16.4469632,4.87183754 L16.0471567,4.87183754 C15.9734623,4.87183754 15.910793,4.814971 15.9061509,4.74185688 C15.8875822,4.45288202 15.8063443,4.21845263 15.6624371,4.03914895 C15.4964797,3.83315282 15.2730754,3.73044489 14.9910638,3.73044489 C14.6974468,3.73044489 14.4723018,3.80646036 14.3167892,3.95849131 C14.1612766,4.11110253 14.0829401,4.32348164 14.0829401,4.59562864 C14.0829401,4.84804643 14.1653385,5.04882013 14.3295551,5.19911026 C14.4937718,5.34882012 14.7647582,5.48460347 15.141354,5.60762092 C15.5179497,5.73005805 15.812147,5.86468086 16.0233656,6.01148938 C16.2345842,6.15829789 16.3900967,6.32947778 16.4904836,6.525029 C16.5902902,6.72000001 16.6407737,6.94862672 16.6407737,7.21032884 C16.6407737,7.62812379 16.514855,7.9641006 16.2641779,8.21883948 C16.0216247,8.464294 15.6850677,8.61342363 15.2545068,8.66564799 C15.2295551,8.66854932 15.2098259,8.69001938 15.2098259,8.71497102 L15.2098259,9.23605416 C15.2098259,9.31497102 15.1459961,9.37880081 15.0676596,9.37880081 L14.8471567,9.37880081 C14.7444487,9.37880081 14.66147,9.29524177 14.66147,9.19253384 L14.66147,8.71555129 C14.66147,8.69001938 14.6417408,8.66912959 14.6162089,8.66622826 C14.1781045,8.61806576 13.8328434,8.45558996 13.5810058,8.17996134 C13.347737,7.92464219 13.2189168,7.58808512 13.1945455,7.16970985 C13.189323,7.08789172 13.2543134,7.01767895 13.3361315,7.01767895 L13.7394197,7.01767895 C13.8125338,7.01767895 13.8752031,7.07338491 13.8798453,7.14649906 C13.9001547,7.42793039 13.9889362,7.64959384 14.1461896,7.81090911 C14.3266538,7.99601549 14.5819729,8.08885879 14.9133076,8.08885879 C15.2370987,8.08885879 15.4912572,8.01110251 15.6769439,7.85558996 C15.8620503,7.70007741 15.9548936,7.48711799 15.9548936,7.21787235 C15.9548936,6.99040618 15.8753965,6.79891682 15.7158221,6.64340427 Z" id="Fill-5" fill="#686868" fill-rule="nonzero" transform="translate(14.917513, 5.857718) rotate(-3.000000) translate(-14.917513, -5.857718) "></path>
                        <path d="M7.56783367,8.68439069 C7.56783367,8.45692457 7.48833654,8.26543521 7.32876207,8.1099226 C7.1691876,7.95441005 6.9011025,7.81340425 6.52276595,7.68748548 C5.99646037,7.52675048 5.61290133,7.31727271 5.37208899,7.05905223 C5.13127659,6.8008317 5.01058027,6.47297872 5.01058027,6.07491298 C5.01058027,5.66988393 5.12837524,5.33738877 5.36454548,5.07800774 C5.59201159,4.82791102 5.90187622,4.6752998 6.29355899,4.62075435 C6.31851063,4.61727273 6.33707931,4.59638298 6.33707931,4.57143133 L6.33707931,3.94764023 C6.33707931,3.86814313 6.40206962,3.8031528 6.48156675,3.8031528 L6.74558994,3.8031528 C6.82508702,3.8031528 6.89007739,3.86814313 6.89007739,3.94764023 L6.89007739,4.5760735 C6.89007739,4.60044487 6.90806574,4.62133462 6.93243712,4.62481625 C7.32702127,4.68748549 7.63572532,4.85982592 7.85854931,5.14125725 C8.06744681,5.40470021 8.18176016,5.75518377 8.20206962,6.19328819 C8.20555127,6.27278532 8.13998063,6.3383559 8.06048356,6.3383559 L7.6600967,6.3383559 C7.58640234,6.3383559 7.52373308,6.28148936 7.51967117,6.20779494 C7.5011025,5.91940037 7.41928431,5.68497101 7.27537718,5.50566728 C7.10941973,5.29967118 6.88601548,5.19696325 6.60400388,5.19696325 C6.31038686,5.19696325 6.08524175,5.27297872 5.9297292,5.42500968 C5.77421665,5.5776209 5.69588005,5.78941973 5.69588005,6.06156675 C5.69588005,6.31456478 5.77827851,6.51533851 5.94249516,6.66562861 C6.10671181,6.81475824 6.37769824,6.95112186 6.75429399,7.07413925 C7.13147,7.19657638 7.42508702,7.33061893 7.63630558,7.47800771 C7.8475242,7.62481622 8.00303675,7.79599611 8.10342361,7.99154739 C8.20323016,8.18651835 8.25371372,8.41514505 8.25371372,8.67684718 C8.25371372,9.09464218 8.12779494,9.43061893 7.87711798,9.68535782 C7.63514505,9.93081239 7.29858803,10.079942 6.86744681,10.1321663 C6.84249516,10.1350677 6.82276595,10.1559574 6.82276595,10.1814894 L6.82276595,10.7025725 C6.82276595,10.7814894 6.75893617,10.8453191 6.68059962,10.8453191 L6.46067696,10.8453191 C6.35796904,10.8453191 6.27441005,10.7617602 6.27441005,10.6590522 L6.27441005,10.1820696 C6.27441005,10.1565377 6.25468085,10.1350677 6.22914893,10.1327466 C5.79104446,10.0840039 5.44636361,9.92210829 5.19394584,9.64589941 C4.96067698,9.39116053 4.83243713,9.05460345 4.80748549,8.63622824 C4.80284332,8.55441005 4.86725338,8.48419728 4.94965183,8.48419728 L5.35235978,8.48419728 C5.42547388,8.48419728 5.48814313,8.53990329 5.49336558,8.61301739 C5.51309478,8.89444872 5.60187622,9.11611218 5.75912957,9.27742744 C5.93959383,9.46253383 6.19549324,9.55537718 6.5262476,9.55537718 C6.85003867,9.55537718 7.10477755,9.4776209 7.28988393,9.32210829 C7.47499032,9.16601548 7.56783367,8.95363638 7.56783367,8.68439069" id="Fill-11" fill="#686868" fill-rule="nonzero" transform="translate(6.530482, 7.324236) rotate(-1.000000) translate(-6.530482, -7.324236) "></path>
                        <path d="M20.6993037,21.3194391 L19.9043327,21.3194391 L19.9043327,9.04903287 L20.6993037,9.04903287 C22.0536557,9.04903287 23.1521083,10.1469052 23.1521083,11.5018375 L23.1521083,18.8666344 C23.1521083,20.2215668 22.0536557,21.3194391 20.6993037,21.3194391" id="Fill-13" fill="#CE348B" fill-rule="nonzero"></path>
                        <path d="M20.6993037,21.3194391 L19.9043327,21.3194391 L19.9043327,9.04903287 L20.6993037,9.04903287 C22.0536557,9.04903287 23.1521083,10.1469052 23.1521083,11.5018375 L23.1521083,18.8666344 C23.1521083,20.2215668 22.0536557,21.3194391 20.6993037,21.3194391 Z" id="Stroke-15" stroke="#686868" stroke-width="0.580270793"></path>
                        <path d="M19.0395551,22.4426112 L2.89584139,22.4426112 C1.45676982,22.4426112 0.289845261,21.2762669 0.289845261,19.8371954 L0.289845261,10.6410638 C0.289845261,9.20199229 1.45676982,8.03506771 2.89584139,8.03506771 L19.0395551,8.03506771 C20.4786267,8.03506771 21.6455513,9.20199229 21.6455513,10.6410638 L21.6455513,19.8371954 C21.6455513,21.2762669 20.4786267,22.4426112 19.0395551,22.4426112" id="Fill-17" fill="#CE348B" fill-rule="nonzero"></path>
                        <path d="M19.0395551,22.4426112 L2.89584139,22.4426112 C1.45676982,22.4426112 0.289845261,21.2762669 0.289845261,19.8371954 L0.289845261,10.6410638 C0.289845261,9.20199229 1.45676982,8.03506771 2.89584139,8.03506771 L19.0395551,8.03506771 C20.4786267,8.03506771 21.6455513,9.20199229 21.6455513,10.6410638 L21.6455513,19.8371954 C21.6455513,21.2762669 20.4786267,22.4426112 19.0395551,22.4426112 Z" id="Stroke-19" stroke="#686868" stroke-width="0.580270793"></path>
                        <path d="M16.3849323,17.3363443 C15.2075629,17.3363443 14.2530174,16.3812186 14.2530174,15.2038491 L14.2530174,14.7117795 C14.2530174,13.5338298 15.2075629,12.5792843 16.3849323,12.5792843 L22.6129787,12.5792843 C23.7903481,12.5792843 24.7448936,13.5338298 24.7448936,14.7117795 L24.7448936,15.2038491 C24.7448936,16.3812186 23.7903481,17.3363443 22.6129787,17.3363443 L16.3849323,17.3363443 Z" id="Fill-23" fill="#FFFFFF" fill-rule="nonzero"></path>
                        <path d="M22.6129787,17.3363443 L16.3849323,17.3363443 C15.2075629,17.3363443 14.2530174,16.3812186 14.2530174,15.2038491 L14.2530174,14.7117795 C14.2530174,13.5338298 15.2075629,12.5792843 16.3849323,12.5792843 L22.6129787,12.5792843 C23.7903481,12.5792843 24.7448936,13.5338298 24.7448936,14.7117795 L24.7448936,15.2038491 C24.7448936,16.3812186 23.7903481,17.3363443 22.6129787,17.3363443 Z" id="Stroke-25" stroke="#686868" stroke-width="0.580270793"></path>
                        <path d="M18.6176402,14.9579884 C18.6176402,15.7581818 17.9688975,16.4069246 17.168704,16.4069246 C16.3685106,16.4069246 15.7197679,15.7581818 15.7197679,14.9579884 C15.7197679,14.1572147 16.3685106,13.508472 17.168704,13.508472 C17.9688975,13.508472 18.6176402,14.1572147 18.6176402,14.9579884" id="Fill-27" fill="#FFD26A" fill-rule="nonzero"></path>
                        <path d="M18.6176402,14.9579884 C18.6176402,15.7581818 17.9688975,16.4069246 17.168704,16.4069246 C16.3685106,16.4069246 15.7197679,15.7581818 15.7197679,14.9579884 C15.7197679,14.1572147 16.3685106,13.508472 17.168704,13.508472 C17.9688975,13.508472 18.6176402,14.1572147 18.6176402,14.9579884 Z" id="Stroke-29" stroke="#686868" stroke-width="0.580270793"></path>
                    </g>
                </g>
            </g>
        </g>
    </g>
</svg>