<?xml version="1.0" encoding="UTF-8"?>
<svg width="25px" height="25px" viewBox="0 0 25 25" version="1.1" xmlns="http://www.w3.org/2000/svg" xmlns:xlink="http://www.w3.org/1999/xlink">
    <title>starFullBlue</title>
    <defs>
        <polygon id="path-1" points="0 -0.00021 20.9999375 -0.00021 20.9999375 20.0521414 0 20.0521414"></polygon>
    </defs>
    <g id="starFullBlue" stroke="none" stroke-width="1" fill="none" fill-rule="evenodd">
        <g id="Group-3" transform="translate(2.000000, 2.000000)">
            <mask id="mask-2" fill="white">
                <use xlink:href="#path-1"></use>
            </mask>
            <g id="Clip-2"></g>
            <path d="M11.2308,0.45444 L13.5982,5.25084 C13.8712,5.80384 14.399,6.18604 15.008,6.27564 L20.3014,7.04424 C20.9706,7.14084 21.2366,7.96264 20.7522,8.43444 L16.9232,12.16824 C16.4808,12.59804 16.2792,13.21824 16.3842,13.82584 L17.2886,19.09684 C17.4034,19.76324 16.7034,20.27144 16.1056,19.95644 L11.3722,17.46724 C10.8262,17.18164 10.1738,17.18164 9.6278,17.46724 L4.8944,19.95644 C4.2966,20.27144 3.5966,19.76324 3.7114,19.09684 L4.6158,13.82584 C4.7194,13.21824 4.5192,12.59804 4.0768,12.16824 L0.2464,8.43444 C-0.2366,7.96264 0.0294,7.14084 0.6986,7.04424 L5.992,6.27564 C6.601,6.18604 7.1288,5.80384 7.4018,5.25084 L9.7692,0.45444 C10.0674,-0.15176 10.9326,-0.15176 11.2308,0.45444" id="Fill-1" fill="#79BDD9" mask="url(#mask-2)"></path>
        </g>
    </g>
</svg>