<?xml version="1.0" encoding="UTF-8"?>
<svg width="9px" height="20px" viewBox="0 0 9 20" version="1.1" xmlns="http://www.w3.org/2000/svg" xmlns:xlink="http://www.w3.org/1999/xlink">
    <!-- Generator: Sketch 63.1 (92452) - https://sketch.com -->
    <title>alert-info@3x</title>
    <desc>Created with Sketch.</desc>
    <g id="Price-alert" stroke="none" stroke-width="1" fill="none" fill-rule="evenodd">
        <g id="Results-modal-info" transform="translate(-34.000000, -58.000000)" fill="#FFFFFF" fill-rule="nonzero">
            <path d="M40.8795217,58 C42.1896087,58 42.8444565,58.9134 42.8444565,59.9578 C42.8444565,61.2622 41.7069348,62.4688 40.2244783,62.4688 C38.9832609,62.4688 38.2591522,61.7184 38.293587,60.4794 C38.293587,59.4352 39.1554348,58 40.8795217,58 Z M36.8453696,78 C35.8109565,78 35.052413,77.3476 35.7765217,74.477 L36.9641304,69.3856 C37.1709348,68.5702 37.2047826,68.2442 36.9641304,68.2442 C36.6534348,68.2442 35.3106739,68.8074 34.5165217,69.3622 L34,68.4812 C36.5166739,66.296 39.4121304,65.0144 40.6529565,65.0144 C41.6869782,65.0144 41.8597392,66.2866 41.3426304,68.244 L39.9830435,73.596 C39.7416087,74.5418 39.8455,74.8678 40.0861522,74.8678 C40.3964565,74.8678 41.4140435,74.4752 42.4136304,73.6596 L43,74.4754 C40.552,77.02 37.8797826,78 36.8453696,78 Z" id="alert-info"></path>
        </g>
    </g>
</svg>