<?xml version="1.0" encoding="UTF-8"?>
<svg width="30px" height="30px" viewBox="0 0 30 30" version="1.1" xmlns="http://www.w3.org/2000/svg" xmlns:xlink="http://www.w3.org/1999/xlink">
    <!-- Generator: Sketch 52.1 (67048) - http://www.bohemiancoding.com/sketch -->
    <title>notification-error</title>
    <desc>Created with Sketch.</desc>
    <g id="notification-error" stroke="none" stroke-width="1" fill="none" fill-rule="evenodd">
        <path d="M19.0425,14.667 L25.6085,8.1 C26.5715,7.137 26.5715,5.561 25.6085,4.598 L24.7335,3.723 C23.7705,2.759 22.1945,2.759 21.2315,3.723 L14.6655,10.29 L8.0985,3.723 C7.1365,2.76 5.5605,2.76 4.5975,3.723 L3.7215,4.598 C2.7595,5.561 2.7595,7.137 3.7215,8.1 L10.2875,14.666 L3.7215,21.233 C2.7595,22.196 2.7595,23.772 3.7215,24.734 L4.5975,25.609 C5.5605,26.572 7.1365,26.572 8.0985,25.609 L14.6655,19.044 L21.2315,25.609 C22.1945,26.572 23.7705,26.572 24.7335,25.609 L25.6085,24.734 C26.5715,23.771 26.5715,22.195 25.6085,21.233 L19.0425,14.667 Z" id="Path-Copy-2" fill="#ff666c"></path>
    </g>
</svg>