<svg height="30" viewBox="0 0 30 30" width="30" xmlns="http://www.w3.org/2000/svg"><path d="m29.8619938 27.566953-2.3256617-6.4283181c.7251456-1.7336459 1.1238627-3.6398565 1.1238627-5.6386349.0011295-8.00882724-6.4144891-14.5-14.3289679-14.5-7.91447878 0-14.3312269 6.49117276-14.3312269 14.5 0 8.0076844 6.41674812 14.5 14.3312269 14.5 3.395308 0 6.509368-1.2010955 8.9649234-3.1964455l5.2397984 2.0764896c1.1554891.4571249 1.753-.133709 1.3260451-1.3130911zm-22.66136552-10.2110261c-1.01204124 0-1.83545427-.8331101-1.83545427-1.8570697 0-1.0239597.82341303-1.8570697 1.83545427-1.8570697 1.01317076 0 1.83545427.8319672 1.83545427 1.8582125s-.82228351 1.8559269-1.83545427 1.8559269zm6.77706192 0c-1.0120412 0-1.8354543-.8331101-1.8354543-1.8570697 0-1.0239597.8234131-1.8570697 1.8354543-1.8570697 1.0131708 0 1.8354543.8319672 1.8354543 1.8582125s-.8222835 1.8559269-1.8354543 1.8559269zm6.7770619 0c-1.0120412 0-1.8354543-.8331101-1.8354543-1.8570697 0-1.0239597.8234131-1.8570697 1.8354543-1.8570697 1.0131708 0 1.8354543.8319672 1.8354543 1.8582125s-.8222835 1.8559269-1.8354543 1.8559269z" fill="#fff"/></svg>