<?xml version="1.0" encoding="UTF-8"?>
<svg width="25px" height="25px" viewBox="0 0 25 25" version="1.1" xmlns="http://www.w3.org/2000/svg" xmlns:xlink="http://www.w3.org/1999/xlink">
    <!-- Generator: Sketch 64 (93537) - https://sketch.com -->
    <title>Reservamos/Atoms/Icons/Amenities/air-conditioning</title>
    <desc>Created with Sketch.</desc>
    <g id="Reservamos/Atoms/Icons/Amenities/air-conditioning" stroke="none" stroke-width="1" fill="none" fill-rule="evenodd">
        <g id="Group-9" transform="translate(2.000000, 1.000000)" stroke="#181212" stroke-width="0.7">
            <path d="M10.6269545,11.8638636 L16.0360455,8.69636364 L16.2137727,8.59977273 L16.4478636,8.73568182 L18.9196818,10.2954545 C19.3274091,10.5215909 19.6935455,10.2925 19.8212727,9.95545455 C19.9492273,9.61795455 19.8092273,9.31590909 19.4003636,9.04363636 L17.6965,7.91318182 L17.5612727,7.81681818 L17.7226364,7.72613636 L19.6687727,6.58863636 C19.9771818,6.40840909 20.0828636,6.01636364 19.9053636,5.71318182 C19.7278636,5.40977273 19.3342273,5.31 19.0258182,5.49022727 L17.0912727,6.59136364 L16.9230909,6.6925 L16.9078636,6.51659091 L16.7178636,4.52136364 C16.7069545,4.06636364 16.5208182,3.76113636 16.1637727,3.70727273 C15.8069545,3.65318182 15.4312727,3.92931818 15.4253636,4.32568182 L15.519,7.24590909 L15.5365,7.52840909 L15.3719545,7.62613636 L9.94218182,10.8 L9.48786364,11.0825 L4.02968182,14.2072727 L3.86309091,14.3011364 L3.6265,14.1454545 L1.14059091,12.6090909 C0.793772727,12.4165909 0.366954545,12.6047727 0.236045455,12.9409091 C0.105136364,13.2772727 0.276954545,13.5906818 0.666272727,13.8268182 L2.30195455,14.9856818 L2.44695455,15.0865909 L2.27536364,15.1820455 L0.3565,16.3097727 C0.0465,16.4872727 -0.0630454545,16.8784091 0.111272727,17.1834091 C0.286045455,17.4884091 0.679,17.5918182 0.988772727,17.4145455 L2.94513636,16.2945455 L3.10422727,16.1997727 L3.12036364,16.3652273 L3.25195455,18.405 C3.284,18.8952273 3.4765,19.1668182 3.83263636,19.2240909 C4.18922727,19.2813636 4.57013636,19.0784091 4.57695455,18.6122727 L4.45581818,15.6927273 L4.45468182,15.4220455 L4.62695455,15.3161364 L10.0694545,12.2061364 L10.6269545,11.8638636 Z" id="Stroke-1"></path>
            <path d="M10.6309545,11.0760682 L16.0100455,14.2940227 L16.1866364,14.3922045 L16.4220909,14.2585682 L18.9086818,12.7219773 C19.3184545,12.4997045 19.6820909,12.7322045 19.8068636,13.0706136 C19.9314091,13.40925 19.7889091,13.7099318 19.3770909,13.9783409 L17.663,15.0926591 L17.5268636,15.1876591 L17.6873182,15.2799318 L19.6227727,16.4358409 C19.9293636,16.6187955 20.0316364,17.01175 19.8511818,17.3133409 C19.6709545,17.6151591 19.2761818,17.7112955 18.9695909,17.5281136 L17.0457273,16.4087955 L16.8782273,16.3060682 L16.8614091,16.4819773 L16.6525455,18.4751591 C16.6375455,18.9301591 16.4484545,19.2335682 16.0909545,19.28425 C15.7336818,19.3347045 15.3605,19.0551591 15.3584545,18.6587955 L15.4793636,15.7397045 L15.4993636,15.4572045 L15.3359545,15.3581136 L9.93595455,12.1333409 L9.48436364,11.8465227 L4.0555,8.67084091 L3.89004545,8.57561364 L3.65209091,8.72902273 L1.15163636,10.2419773 C0.803454545,10.4312955 0.378454545,10.2390227 0.2505,9.90175 C0.122772727,9.56425 0.297545455,9.25220455 0.688909091,9.01993182 L2.33527273,7.87629545 L2.48140909,7.77697727 L2.31072727,7.67993182 L0.402318182,6.53402273 C0.0941363636,6.35356818 -0.0117727273,5.96152273 0.1655,5.65834091 C0.343,5.35493182 0.736863636,5.25515909 1.04481818,5.43538636 L2.99095455,6.57356818 L3.14913636,6.66993182 L3.16663636,6.50470455 L3.31731818,4.46629545 C3.35413636,3.97629545 3.54913636,3.70629545 3.90595455,3.65243182 C4.26254545,3.59856818 4.64163636,3.80515909 4.64436364,4.27129545 L4.49572727,7.18947727 L4.49209091,7.46015909 L4.66345455,7.56765909 L10.0764091,10.7283409 L10.6309545,11.0760682 Z" id="Stroke-3"></path>
            <path d="M10.6573636,11.1385455 L10.6123636,4.87036364 L10.6171364,4.66831818 L10.8516818,4.53309091 L13.4371364,3.16968182 C13.8364545,2.92922727 13.821,2.49786364 13.5923636,2.21877273 C13.3637273,1.93945455 13.0323636,1.90990909 12.5923636,2.12854545 L10.7623636,3.04059091 L10.6114545,3.10990909 L10.6135,2.92490909 L10.5987273,0.670363636 C10.5964545,0.313318182 10.3098636,0.0258181818 9.95827273,0.0283020003 C9.60690909,0.0308181818 9.32395455,0.322409091 9.32622727,0.679227273 L9.31486364,2.90513636 L9.3185,3.10172727 L9.15827273,3.02695455 L7.33486364,2.19581818 C6.93509091,1.97809091 6.57781818,1.98718182 6.35281818,2.26968182 C6.12781818,2.55195455 6.17963636,3.01536364 6.52009091,3.21809091 L9.09736364,4.59445455 L9.35077273,4.72059091 L9.35327273,4.91172727 L9.3935,11.2008182 L9.41190909,11.7355909 L9.39509091,18.0251364 L9.39327273,18.2162727 L9.14031818,18.3433182 L6.5685,19.7310455 C6.22872727,19.9353636 6.17872727,20.399 6.40463636,20.6803636 C6.63054545,20.9617273 6.98804545,20.969 7.38668182,20.7496818 L9.20736364,19.9105909 L9.36713636,19.8353636 L9.36440909,20.0317273 L9.38395455,22.2574091 C9.38304545,22.6144545 9.66736364,22.9046818 10.0185,22.9055931 C10.3700909,22.9065 10.6557727,22.6178636 10.6566818,22.2608182 L10.6625909,20.0065 L10.6600909,19.8215 L10.8114545,19.8899091 L12.6444091,20.794 C13.0855455,21.0108182 13.4169091,20.9796818 13.6444091,20.6994545 C13.8719091,20.4192273 13.886,19.9878636 13.4855455,19.7492273 L10.8950909,18.3971818 L10.6600909,18.2630909 L10.6541818,18.0608182 L10.6757727,11.7926364 L10.6573636,11.1385455 Z" id="Stroke-5"></path>
            <path d="M12.6886136,11.2828182 C12.6886136,12.7621364 11.4892955,13.9614545 10.0099773,13.9614545 C8.53065909,13.9614545 7.33156818,12.7621364 7.33156818,11.2828182 C7.33156818,9.8035 8.53065909,8.60418182 10.0099773,8.60418182 C11.4892955,8.60418182 12.6886136,9.8035 12.6886136,11.2828182" id="Fill-7" fill="#FF79A4"></path>
        </g>
    </g>
</svg>