<?xml version="1.0" encoding="UTF-8"?>
<svg width="18px" height="13px" viewBox="0 0 18 13" version="1.1" xmlns="http://www.w3.org/2000/svg" xmlns:xlink="http://www.w3.org/1999/xlink">
    <!-- Generator: Sketch 64 (93537) - https://sketch.com -->
    <title>Group</title>
    <desc>Created with Sketch.</desc>
    <g id="Hotels-1st-Draft-🖥" stroke="none" stroke-width="1" fill="none" fill-rule="evenodd">
        <g id="HotelDetails2.1" transform="translate(-594.000000, -989.000000)" fill="#4A4A4A" fill-rule="nonzero">
            <g id="Group" transform="translate(594.000000, 989.000000)">
                <path d="M15.4379494,6.05836698 L1.84204769,6.05836698 C0.825983861,6.05836698 0,6.87743884 0,7.88659067 L0,12.4865259 C0,12.6524139 0.134783977,12.7871979 0.304127949,12.7871979 L1.42041576,12.7871979 C1.58975973,12.7871979 1.72454371,12.6524139 1.72454371,12.4865259 L1.72454371,11.4981101 L15.5589094,11.4981101 L15.5589094,12.4865259 C15.5589094,12.6524139 15.6936934,12.7871979 15.8630373,12.7871979 L16.9793251,12.7871979 C17.1486691,12.7871979 17.2834531,12.6524139 17.2834531,12.4865259 L17.2834531,7.88659067 C17.2799971,6.87743884 16.4540132,6.05836698 15.4379494,6.05836698 Z" id="Path"></path>
                <path d="M2.31897561,5.10451114 L3.16569547,5.10451114 C3.29356745,5.10451114 3.39724743,5.00083116 3.39724743,4.87641518 L3.39724743,4.43059126 C3.39724743,4.26124728 3.53548741,4.12646331 3.70483138,4.12646331 L7.65849471,4.12646331 C7.82783868,4.12646331 7.96607866,4.26470328 7.96607866,4.43059126 C7.96607866,4.55846323 8.06975864,4.65868722 8.19763062,4.65868722 L9.04435048,4.65868722 C9.17222246,4.65868722 9.27590244,4.55500723 9.27590244,4.43059126 L9.27590244,4.43059126 C9.27590244,4.26124728 9.41414242,4.12646331 9.58348639,4.12646331 L13.5855337,4.12646331 C13.7548777,4.12646331 13.8931177,4.26470328 13.8931177,4.43059126 L13.8931177,4.87641518 C13.8931177,5.00428716 13.9967976,5.10451114 14.1246696,5.10451114 L14.9713895,5.10451114 C15.0992615,5.10451114 15.2029414,5.00083116 15.2029414,4.87641518 L15.2029414,1.38585577 C15.2029414,0.618623896 14.5774056,-9.82254113e-16 13.8067177,-9.82254113e-16 L3.48364741,-9.82254113e-16 C2.71295954,-9.82254113e-16 2.08742365,0.622079895 2.08742365,1.38585577 L2.08742365,4.87295918 C2.08742365,5.00083116 2.19110363,5.10451114 2.31897561,5.10451114 Z" id="Path"></path>
            </g>
        </g>
    </g>
</svg>