<?xml version="1.0" encoding="UTF-8"?>
<svg width="25px" height="25px" viewBox="0 0 25 25" version="1.1" xmlns="http://www.w3.org/2000/svg" xmlns:xlink="http://www.w3.org/1999/xlink">
    <!-- Generator: Sketch 64 (93537) - https://sketch.com -->
    <title>Reservamos/Atoms/Icons/Amenities/bed</title>
    <desc>Created with Sketch.</desc>
    <g id="Reservamos/Atoms/Icons/Amenities/bed" stroke="none" stroke-width="1" fill="none" fill-rule="evenodd">
        <g id="Group-17" transform="translate(1.000000, 4.000000)">
            <path d="M21.8720316,13.450634 L1.12304561,13.450634 C0.502852632,13.450634 0,12.9478621 0,12.3275884 L0,8.18621649 C0,7.56594281 0.502852632,7.06309018 1.12304561,7.06309018 L21.8720316,7.06309018 C22.4923053,7.06309018 22.9950772,7.56594281 22.9950772,8.18621649 L22.9950772,12.3275884 C22.9950772,12.9478621 22.4923053,13.450634 21.8720316,13.450634 Z" id="Stroke-1" stroke="#181212" stroke-width="0.952857143"></path>
            <path d="M17.9523232,7.06309825 L13.4087337,7.06309825 C12.8211442,7.06309825 12.3448425,6.58679649 12.3448425,5.99920702 L12.3448425,4.49581404 C12.3448425,3.90822456 12.8211442,3.43184211 13.4087337,3.43184211 L17.9523232,3.43184211 C18.5399126,3.43184211 19.0162951,3.90822456 19.0162951,4.49581404 L19.0162951,5.99920702 C19.0162951,6.58679649 18.5399126,7.06309825 17.9523232,7.06309825" id="Fill-11" fill="#FF79A4"></path>
            <path d="M9.80144596,7.06309825 L5.25785649,7.06309825 C4.67026702,7.06309825 4.19396526,6.58679649 4.19396526,5.99920702 L4.19396526,4.49581404 C4.19396526,3.90822456 4.67026702,3.43184211 5.25785649,3.43184211 L9.80144596,3.43184211 C10.3890354,3.43184211 10.8654179,3.90822456 10.8654179,4.49581404 L10.8654179,5.99920702 C10.8654179,6.58679649 10.3890354,7.06309825 9.80144596,7.06309825" id="Fill-9" fill="#FF79A4"></path>
            <path d="M20.0619154,7.06309825 L3.0675786,7.06309825 L3.0675786,0.751817544 C3.0675786,0.336607018 3.40418561,0 3.81939614,0 L19.3100979,0 C19.7253084,0 20.0619154,0.336607018 20.0619154,0.751817544 L20.0619154,7.06309825 Z" id="Stroke-3" stroke="#181212" stroke-width="0.952857143"></path>
            <path d="M3.06757053,16.1696698 L3.06757053,16.1696698 C2.69521263,16.1696698 2.39338807,15.8677646 2.39338807,15.4954067 L2.39338807,13.4506663 L3.74183368,13.4506663 L3.74183368,15.4954067 C3.74183368,15.8677646 3.43992842,16.1696698 3.06757053,16.1696698" id="Fill-5" fill="#181212"></path>
            <path d="M20.0619154,16.3605053 L20.0619154,16.3605053 C19.6895575,16.3605053 19.3876523,16.0586 19.3876523,15.6863228 L19.3876523,13.4506421 L20.7360979,13.4506421 L20.7360979,15.6863228 C20.7360979,16.0586 20.4342733,16.3605053 20.0619154,16.3605053" id="Fill-7" fill="#181212"></path>
        </g>
    </g>
</svg>