<?xml version="1.0" encoding="UTF-8"?>
<svg width="25px" height="25px" viewBox="0 0 25 25" version="1.1" xmlns="http://www.w3.org/2000/svg" xmlns:xlink="http://www.w3.org/1999/xlink">
    <!-- Generator: Sketch 64 (93537) - https://sketch.com -->
    <title>Reservamos/Atoms/Icons/Amenities/breakfast</title>
    <desc>Created with Sketch.</desc>
    <g id="Reservamos/Atoms/Icons/Amenities/breakfast" stroke="none" stroke-width="1" fill="none" fill-rule="evenodd">
        <g id="Group-7" transform="translate(1.000000, 3.000000)">
            <path d="M2.71113333,14.6015467 C3.89424444,15.1539911 4.91846667,16.9286578 4.91846667,16.9286578 C5.83513333,19.2631022 8.21602222,18.6055467 9.35024444,18.1313244 C9.80002222,17.9406578 10.2669111,17.7671022 10.7558,17.7475467 C12.7431333,17.6644356 15.2095778,18.4246578 15.2095778,18.4246578 C19.1133556,19.0186578 20.3404667,17.5837689 21.0444667,16.0999911 C21.5309111,15.0782133 21.3793556,13.7019911 21.0958,12.60688 C20.6069111,10.7173244 21.2815778,9.00132444 21.2815778,9.00132444 C23.0171333,1.11799111 17.0624667,0.0522133333 15.1704667,0.763546667 C13.2784667,1.47243556 11.7018,0.841768889 11.7018,0.841768889 C8.72202222,-0.321786667 6.72002222,0.629102222 5.57846667,1.60443556 C4.81335556,2.25710222 4.40757778,3.22754667 4.40757778,4.22976889 C4.40757778,5.93110222 3.65957778,7.54688 2.35913333,8.64932444 L2.13424444,8.83999111 C-0.449533333,9.95710222 -0.249088889,13.6824356 2.4398,14.5159911 L2.71113333,14.6015467 Z" id="Stroke-1" stroke="#181212" stroke-width="0.87" fill="#FFFFFF"></path>
            <path d="M15.7234,9.16119111 C15.7234,11.2414133 14.0391778,12.9256356 11.9565111,12.9256356 C9.87628889,12.9256356 8.19206667,11.2414133 8.19206667,9.16119111 C8.19206667,7.08096889 9.87628889,5.39430222 11.9565111,5.39430222 C14.0391778,5.39430222 15.7234,7.08096889 15.7234,9.16119111 Z" id="Stroke-3" stroke="#FF79A4" stroke-width="0.6875" fill="#FF79A4"></path>
            <path d="M14.0433333,7.52288889 C14.0433333,8.36377778 13.3637778,9.04577778 12.5228889,9.04577778 C11.6795556,9.04577778 11,8.36377778 11,7.52288889 C11,6.682 11.6795556,6 12.5228889,6 C13.3637778,6 14.0433333,6.682 14.0433333,7.52288889 Z" id="Stroke-5" fill="#FFFFFF"></path>
        </g>
    </g>
</svg>