<?xml version="1.0" encoding="UTF-8"?>
<svg width="25px" height="25px" viewBox="0 0 25 25" version="1.1" xmlns="http://www.w3.org/2000/svg" xmlns:xlink="http://www.w3.org/1999/xlink">
    <!-- Generator: Sketch 64 (93537) - https://sketch.com -->
    <title>Reservamos/Atoms/Icons/Amenities/free-cancellation</title>
    <desc>Created with Sketch.</desc>
    <g id="Reservamos/Atoms/Icons/Amenities/free-cancellation" stroke="none" stroke-width="1" fill="none" fill-rule="evenodd">
        <g id="Group-8" transform="translate(1.000000, 0.000000)">
            <path d="M4.33688,19.90064 C4.33688,19.90064 3.95368,19.33984 2.72728,19.17104 C2.72728,19.17104 0.80408,18.94304 1.32968,17.50384 C1.32968,17.50384 1.66808,16.52864 1.61368,15.28544 C1.61368,15.28544 1.59368,14.60784 0.65288,13.80304 C0.65288,13.80304 -0.60872,12.67344 0.37528,11.64464 C0.37528,11.64464 0.98888,11.13664 1.61368,10.06144 C1.61368,10.06144 2.00168,9.24304 1.55928,8.13504 C1.55928,8.13504 1.01928,6.53104 2.38248,6.12064 C2.38248,6.12064 3.16568,5.98144 4.23928,5.35264 L4.37768,5.26384 C4.37768,5.26384 4.95128,4.90064 5.16248,3.68064 C5.16248,3.68064 5.48968,2.01984 6.87688,2.34064 C6.87688,2.34064 7.62648,2.60864 8.87048,2.59664 C8.87048,2.59664 9.71368,2.57984 10.44248,1.55744 C10.44248,1.55744 11.45448,0.11504 12.59048,1.21104 C12.59048,1.21104 13.11848,1.80784 14.21368,2.39824 C14.21368,2.39824 14.97848,2.77424 16.14408,2.35504 C16.14408,2.35504 17.74968,1.81904 18.15528,3.18304 C18.15528,3.18304 18.30968,4.01584 18.84728,4.98144 L18.99608,5.17424 C18.99608,5.17424 19.38008,5.72304 20.60008,5.93424 C20.60008,5.93424 22.26088,6.25984 21.94088,7.64704 C21.94088,7.64704 21.67368,8.39744 21.68648,9.64064 L21.70728,9.88864 C21.70728,9.88864 21.84248,10.69184 22.74488,11.34064 C22.74488,11.34064 24.14968,12.48384 23.05688,13.49424 C23.05688,13.49424 22.47608,14.00464 21.80008,15.06944 C21.80008,15.06944 21.25208,15.63984 21.83368,17.03504 C21.83368,17.03504 22.63048,18.47264 21.00408,19.04624 C21.00408,19.04624 20.00568,19.44224 18.97928,19.93584 C18.97928,19.93584 18.19288,20.28224 18.29048,21.52464 C18.29048,21.52464 18.73208,23.42304 16.63208,22.93264 C16.63208,22.93264 15.59448,22.60784 14.56328,22.64224 L14.36088,22.64944 C14.36088,22.64944 13.68328,22.67424 12.88488,23.62064 C12.88488,23.62064 11.74728,25.04064 10.72888,23.91344 C10.72888,23.91344 10.21368,23.17744 9.13368,22.56064 C9.13368,22.56064 8.31688,22.19504 7.25528,22.69584 C7.25528,22.69584 5.40248,23.46064 5.20648,21.96544 C5.20648,21.96544 5.12168,20.95264 4.33688,19.90064" id="Fill-1" fill="#8CBA51"></path>
            <path d="M9.11816,16.69128 L6.22376,12.78968 C6.05256,12.62488 6.05256,12.35128 6.22376,12.18088 C6.39416,12.01608 6.66136,12.01608 6.83256,12.18088 L9.11816,15.47448 C9.28936,15.63928 9.56216,15.63928 9.72696,15.47448 L16.11416,8.85368 C16.28456,8.68328 16.55816,8.68328 16.72296,8.85368 C16.89336,9.01848 16.89336,9.29128 16.72296,9.46248 L9.72696,16.69128 C9.56216,16.86168 9.28936,16.86168 9.11816,16.69128 Z" id="Stroke-4" stroke="#FFFFFF" stroke-width="1.4664"></path>
            <path d="M20.37128,12.57408 C20.37128,17.34288 16.50568,21.20928 11.73608,21.20928 C6.96728,21.20928 3.10088,17.34288 3.10088,12.57408 C3.10088,7.80528 6.96728,3.93888 11.73608,3.93888 C16.50568,3.93888 20.37128,7.80528 20.37128,12.57408 Z" id="Stroke-6" stroke="#FFFFFF" stroke-width="0.654545455"></path>
        </g>
    </g>
</svg>