<?xml version="1.0" encoding="UTF-8"?>
<svg width="25px" height="25px" viewBox="0 0 25 25" version="1.1" xmlns="http://www.w3.org/2000/svg" xmlns:xlink="http://www.w3.org/1999/xlink">
    <!-- Generator: Sketch 64 (93537) - https://sketch.com -->
    <title>Reservamos/Atoms/Icons/Amenities/non-refundable</title>
    <desc>Created with Sketch.</desc>
    <g id="Reservamos/Atoms/Icons/Amenities/non-refundable" stroke="none" stroke-width="1" fill="none" fill-rule="evenodd">
        <g id="Group-11" transform="translate(3.000000, 3.000000)">
            <g id="Group" transform="translate(6.000000, 2.000000)" fill="#181212">
                <path d="M0.842319587,10.54625 C1.22731959,10.539375 1.54356959,10.82125 1.59856959,11.20625 C1.69481959,11.715 1.88731959,12.1 2.19669459,12.36125 C2.63669459,12.71875 3.16606959,12.91125 3.78481959,12.91125 C4.49981959,12.91125 5.06356959,12.7325 5.46231959,12.395625 C5.86106959,12.051875 6.06731959,11.5775 6.06731959,10.9725 C6.06731959,10.470625 5.88856959,10.044375 5.54481959,9.69375 C5.18731959,9.33625 4.60294459,9.026875 3.78481959,8.745 C2.66419459,8.408125 1.81856959,7.954375 1.24794459,7.390625 C0.670444587,6.82 0.388569587,6.070625 0.388569587,5.121875 C0.388569587,4.2075 0.649819587,3.458125 1.17919459,2.880625 C1.65356959,2.358125 2.29294459,2.02125 3.09731959,1.876875 C3.24169459,1.849375 3.35169459,1.7325 3.35169459,1.58125 L3.35169459,0.653125 C3.35169459,0.28875 3.64044459,2.81592931e-14 4.00481959,2.81592931e-14 L4.01856959,2.81592931e-14 C4.37606959,2.81592931e-14 4.67169459,0.28875 4.67169459,0.653125 L4.67169459,1.595 C4.67169459,1.739375 4.77481959,1.85625 4.92606959,1.890625 C5.73044459,2.041875 6.36981959,2.40625 6.83044459,2.990625 C7.18794459,3.430625 7.41481959,3.966875 7.52481959,4.613125 C7.60731959,5.10125 7.24981959,5.555 6.74794459,5.555 L6.67231959,5.555 C6.28731959,5.555 5.97794459,5.273125 5.90919459,4.895 C5.83356959,4.4825 5.67544459,4.131875 5.44169459,3.83625 C5.09106959,3.39625 4.60981959,3.183125 3.99106959,3.183125 C3.33794459,3.183125 2.84981959,3.355 2.51981959,3.691875 C2.18981959,4.035625 2.02481959,4.503125 2.02481959,5.10125 C2.02481959,5.6375 2.19669459,6.0775 2.53356959,6.400625 C2.87731959,6.7375 3.48231959,7.05375 4.36231959,7.35625 C5.49669459,7.720625 6.33544459,8.18125 6.88544459,8.724375 C7.43544459,9.2675 7.71044459,10.016875 7.71044459,10.95875 C7.71044459,11.9075 7.42169459,12.6775 6.85106959,13.234375 C6.33544459,13.75 5.63419459,14.073125 4.75419459,14.20375 C4.60981959,14.224375 4.49294459,14.355 4.49294459,14.499375 L4.49294459,15.186875 C4.49294459,15.55125 4.19731959,15.84 3.83981959,15.84 C3.48231959,15.84 3.18669459,15.55125 3.18669459,15.186875 L3.18669459,14.50625 C3.18669459,14.361875 3.06981959,14.23125 2.92544459,14.210625 C2.08669459,14.08 1.39231959,13.743125 0.835444587,13.206875 C0.402319587,12.766875 0.120444587,12.19625 0.0104445867,11.48125 C-0.0651804133,11 0.278569587,10.566875 0.759819587,10.553125 L0.842319587,10.54625 Z" id="Fill-1"></path>
                <polygon id="Fill-3" points="4.49500709 14.50075 3.18875709 14.507625 3.36750709 0.647625 4.66000709 0.647625"></polygon>
            </g>
            <g id="Group-10" stroke="#FF79A4" stroke-width="1.7">
                <path d="M19.1033333,10.0633333 C19.1033333,15.1294444 14.9966667,19.2361111 9.93666667,19.2361111 C4.87055556,19.2361111 0.763888889,15.1294444 0.763888889,10.0633333 C0.763888889,5.00333333 4.87055556,0.896666667 9.93666667,0.896666667 C14.9966667,0.896666667 19.1033333,5.00333333 19.1033333,10.0633333 Z" id="Stroke-6"></path>
                <line x1="2.72727273" y1="4.54545455" x2="17.3144949" y2="15.6737879" id="Stroke-8"></line>
            </g>
        </g>
    </g>
</svg>