<?xml version="1.0" encoding="UTF-8"?>
<svg width="25px" height="25px" viewBox="0 0 25 25" version="1.1" xmlns="http://www.w3.org/2000/svg" xmlns:xlink="http://www.w3.org/1999/xlink">
    <!-- Generator: Sketch 64 (93537) - https://sketch.com -->
    <title>Reservamos/Atoms/Icons/Amenities/parking</title>
    <desc>Created with Sketch.</desc>
    <g id="Reservamos/Atoms/Icons/Amenities/parking" stroke="none" stroke-width="1" fill="none" fill-rule="evenodd">
        <g id="Group-7" transform="translate(2.000000, 3.000000)">
            <path d="M16.9771556,18.8354956 L2.88493333,18.8354956 C1.45982222,18.8354956 0.306044444,17.6792733 0.306044444,16.2541622 L0.306044444,2.88549556 C0.306044444,1.46038444 1.45982222,0.304162222 2.88493333,0.304162222 L16.9771556,0.304162222 C18.4022667,0.304162222 19.5584889,1.46038444 19.5584889,2.88549556 L19.5584889,16.2541622 C19.5584889,17.6792733 18.4022667,18.8354956 16.9771556,18.8354956 Z" id="Stroke-1" stroke="#181212" stroke-width="0.87"></path>
            <path d="M16.3614,17.5260067 L3.50117778,17.5260067 C2.48673333,17.5260067 1.6654,16.7046733 1.6654,15.6902289 L1.6654,3.45089556 C1.6654,2.43645111 2.48673333,1.61511778 3.50117778,1.61511778 L16.3614,1.61511778 C17.3758444,1.61511778 18.1971778,2.43645111 18.1971778,3.45089556 L18.1971778,15.6902289 C18.1971778,16.7046733 17.3758444,17.5260067 16.3614,17.5260067" id="Fill-3" fill="#FF79A4"></path>
            <path d="M8.84668889,9.27136222 C8.84668889,9.36669556 8.92246667,9.44491778 9.0178,9.44491778 L9.7878,9.44491778 C10.6971333,9.44491778 11.3620222,9.28602889 11.7873556,8.97069556 C12.2126889,8.65536222 12.4253556,8.15914 12.4253556,7.48936222 C12.4253556,6.86847333 12.2346889,6.40158444 11.8533556,6.09602889 C11.4744667,5.79047333 10.8804667,5.63647333 10.0762444,5.63647333 L8.98846667,5.63647333 C8.9078,5.63647333 8.84668889,5.70002889 8.84668889,5.77825111 L8.84668889,9.27136222 Z M14.2489111,7.43069556 C14.2489111,8.56002889 13.8798,9.42780667 13.1366889,10.0315844 C12.3935778,10.6329178 11.3424667,10.9360289 9.97357778,10.9360289 L9.0178,10.9360289 C8.92246667,10.9360289 8.84668889,11.0118067 8.84668889,11.1046956 L8.84668889,14.1015844 C8.84668889,14.5904733 8.45068889,14.9864733 7.9618,14.9864733 C7.47291111,14.9864733 7.07446667,14.5904733 7.07446667,14.1015844 L7.07446667,5.04002889 C7.07446667,4.55114 7.47291111,4.15514 7.9618,4.15514 L10.1960222,4.15514 C11.5478,4.15514 12.5622444,4.43136222 13.2369111,4.98625111 C13.9115778,5.53869556 14.2489111,6.35269556 14.2489111,7.43069556 L14.2489111,7.43069556 Z" id="Fill-5" fill="#FFFFFF"></path>
        </g>
    </g>
</svg>