<?xml version="1.0" encoding="UTF-8"?>
<svg width="25px" height="25px" viewBox="0 0 25 25" version="1.1" xmlns="http://www.w3.org/2000/svg" xmlns:xlink="http://www.w3.org/1999/xlink">
    <!-- Generator: Sketch 64 (93537) - https://sketch.com -->
    <title>Reservamos/Atoms/Icons/Amenities/buyable-itinerary-change</title>
    <desc>Created with Sketch.</desc>
    <g id="Reservamos/Atoms/Icons/Amenities/buyable-itinerary-change" stroke="none" stroke-width="1" fill="none" fill-rule="evenodd">
        <g id="Reservamos/Atoms/Icons/Amenities/free-itinerary-change">
            <g id="free-itinerary-change" transform="translate(1.760000, 0.880000)">
                <path d="M18.02648,19.77908 L1.06352,19.77908 C0.47656,19.77908 0,19.30252 0,18.71556 L0,2.84556 C0,2.2586 0.47656,1.78204 1.06352,1.78204 L18.02648,1.78204 C18.61344,1.78204 19.09,2.2586 19.09,2.84556 L19.09,18.71556 C19.09,19.30252 18.61344,19.77908 18.02648,19.77908 Z" id="Stroke-53" stroke="#181212" stroke-width="0.7568"></path>
                <line x1="0.000184" y1="4.915376" x2="19.090184" y2="4.915376" id="Stroke-55" stroke="#181212" stroke-width="0.7568"></line>
                <path d="M4.6506,3.33408 L4.6506,3.33408 C4.12988,3.33408 3.70116,2.9072 3.70116,2.38464 L3.70116,0.9476 C3.70116,0.42504 4.12988,9.80548975e-15 4.6506,9.80548975e-15 C5.17132,9.80548975e-15 5.60004,0.42504 5.60004,0.9476 L5.60004,2.38464 C5.60004,2.9072 5.17132,3.33408 4.6506,3.33408 Z" id="Stroke-59" stroke="#181212" stroke-width="0.7568" fill="#FFFFFF"></path>
                <path d="M14.892776,3.33408 L14.892776,3.33408 C14.372056,3.33408 13.943336,2.9072 13.943336,2.38464 L13.943336,0.9476 C13.943336,0.42504 14.372056,9.80548975e-15 14.892776,9.80548975e-15 C15.413496,9.80548975e-15 15.842216,0.42504 15.842216,0.9476 L15.842216,2.38464 C15.842216,2.9072 15.413496,3.33408 14.892776,3.33408 Z" id="Stroke-63" stroke="#181212" stroke-width="0.7568" fill="#FFFFFF"></path>
                <path d="M5.45744,10.00408 L2.8612,10.00408 C2.46928,10.00408 2.14728,9.68208 2.14728,9.28832 L2.14728,7.89912 C2.14728,7.50904 2.46928,7.18704 2.8612,7.18704 L5.45744,7.18704 C5.8512,7.18704 6.1732,7.50904 6.1732,7.89912 L6.1732,9.28832 C6.1732,9.68208 5.8512,10.00408 5.45744,10.00408 Z" id="Stroke-67" stroke="#FF79A4" stroke-width="0.7568" fill="#FF79A4"></path>
                <path d="M10.86244,10.00408 L8.2662,10.00408 C7.87428,10.00408 7.55228,9.68208 7.55228,9.28832 L7.55228,7.89912 C7.55228,7.50904 7.87428,7.18704 8.2662,7.18704 L10.86244,7.18704 C11.2562,7.18704 11.5782,7.50904 11.5782,7.89912 L11.5782,9.28832 C11.5782,9.68208 11.2562,10.00408 10.86244,10.00408 Z" id="Stroke-71" stroke="#181212" stroke-width="0.7568"></path>
                <path d="M16.209848,10.00408 L13.613608,10.00408 C13.221688,10.00408 12.899688,9.68208 12.899688,9.28832 L12.899688,7.89912 C12.899688,7.50904 13.221688,7.18704 13.613608,7.18704 L16.209848,7.18704 C16.603608,7.18704 16.925608,7.50904 16.925608,7.89912 L16.925608,9.28832 C16.925608,9.68208 16.603608,10.00408 16.209848,10.00408 Z" id="Stroke-75" stroke="#181212" stroke-width="0.7568"></path>
                <path d="M5.45744,14.117032 L2.8612,14.117032 C2.46928,14.117032 2.14728,13.795032 2.14728,13.401272 L2.14728,12.012072 C2.14728,11.621992 2.46928,11.299992 2.8612,11.299992 L5.45744,11.299992 C5.8512,11.299992 6.1732,11.621992 6.1732,12.012072 L6.1732,13.401272 C6.1732,13.795032 5.8512,14.117032 5.45744,14.117032 Z" id="Stroke-79" stroke="#181212" stroke-width="0.7568"></path>
                <path d="M10.86244,14.117032 L8.2662,14.117032 C7.87428,14.117032 7.55228,13.795032 7.55228,13.401272 L7.55228,12.012072 C7.55228,11.621992 7.87428,11.299992 8.2662,11.299992 L10.86244,11.299992 C11.2562,11.299992 11.5782,11.621992 11.5782,12.012072 L11.5782,13.401272 C11.5782,13.795032 11.2562,14.117032 10.86244,14.117032 Z" id="Stroke-83" stroke="#181212" stroke-width="0.7568"></path>
                <path d="M16.209848,14.117032 L13.613608,14.117032 C13.221688,14.117032 12.899688,13.795032 12.899688,13.401272 L12.899688,12.012072 C12.899688,11.621992 13.221688,11.299992 13.613608,11.299992 L16.209848,11.299992 C16.603608,11.299992 16.925608,11.621992 16.925608,12.012072 L16.925608,13.401272 C16.925608,13.795032 16.603608,14.117032 16.209848,14.117032 Z" id="Stroke-87" stroke="#FF79A4" stroke-width="0.7568" fill="#FF79A4"></path>
                <path d="M5.45744,18.230168 L2.8612,18.230168 C2.46928,18.230168 2.14728,17.908168 2.14728,17.514408 L2.14728,16.125208 C2.14728,15.735128 2.46928,15.413128 2.8612,15.413128 L5.45744,15.413128 C5.8512,15.413128 6.1732,15.735128 6.1732,16.125208 L6.1732,17.514408 C6.1732,17.908168 5.8512,18.230168 5.45744,18.230168 Z" id="Stroke-91" stroke="#181212" stroke-width="0.7568"></path>
                <path d="M10.86244,18.230168 L8.2662,18.230168 C7.87428,18.230168 7.55228,17.908168 7.55228,17.514408 L7.55228,16.125208 C7.55228,15.735128 7.87428,15.413128 8.2662,15.413128 L10.86244,15.413128 C11.2562,15.413128 11.5782,15.735128 11.5782,16.125208 L11.5782,17.514408 C11.5782,17.908168 11.2562,18.230168 10.86244,18.230168 Z" id="Stroke-95" stroke="#181212" stroke-width="0.7568"></path>
            </g>
        </g>
        <g id="badge/money" transform="translate(13.000000, 13.000000)">
            <g id="Money">
                <path d="M10.7522338,5.37784722 C10.7522338,8.34362269 8.34362269,10.7556944 5.37438657,10.7556944 C2.40515046,10.7556944 -2.03009955e-13,8.34362269 -2.03009955e-13,5.37784722 C-2.03009955e-13,2.40861111 2.40515046,-1.18029043e-15 5.37438657,-1.18029043e-15 C8.34362269,-1.18029043e-15 10.7522338,2.40861111 10.7522338,5.37784722 Z" id="Stroke-27" stroke="#181212" stroke-width="0.991875" fill="#FFD274"></path>
                <path d="M3.85966088,6.69912269 C4.05345718,6.69566204 4.20918634,6.83754861 4.24379282,7.03134491 C4.28878125,7.28743287 4.3856794,7.48122917 4.54486921,7.6127338 C4.76289005,7.7926875 5.02589931,7.88958565 5.34081829,7.88958565 C5.70072569,7.88958565 5.98449884,7.7996088 6.18521644,7.63003704 C6.38939468,7.45700463 6.48975347,7.21821991 6.48975347,6.91368287 C6.48975347,6.66105556 6.39977662,6.44649537 6.22328356,6.27000231 C6.04679051,6.09004861 5.74917477,5.93431944 5.34081829,5.79243287 C4.77673264,5.62286111 4.35107292,5.39445833 4.06383912,5.11068519 C3.77314468,4.82345139 3.62779745,4.44624074 3.62779745,3.9686713 C3.62779745,3.50840509 3.76276273,3.13119444 4.02923264,2.8405 C4.26801736,2.57749074 4.58985764,2.41137963 4.99475347,2.33524537 C5.06742708,2.32140278 5.12279745,2.26257176 5.12279745,2.1864375 L5.12279745,1.71925 C5.12279745,1.53583565 5.26814468,1.39048843 5.45155903,1.39048843 L5.45501968,1.39048843 C5.63843403,1.39048843 5.78378125,1.53583565 5.78378125,1.71925 L5.78378125,2.18989815 C5.78378125,2.26603241 5.83915162,2.32486343 5.91182523,2.33870602 C6.32018171,2.41830093 6.63856134,2.60171528 6.87388542,2.89240972 C7.05037847,3.11735185 7.16804051,3.39074306 7.22341088,3.71604398 C7.26493866,3.95828935 7.08498495,4.18669213 6.83235764,4.18669213 L6.79082986,4.18669213 C6.60049421,4.18669213 6.44822569,4.04134491 6.41015856,3.85446991 C6.37209144,3.64683102 6.29249653,3.47033796 6.17483449,3.32153009 C5.99834144,3.10350926 5.75609606,2.99276852 5.44463773,2.99276852 C5.11587616,2.99276852 4.87017014,3.07582407 4.70405903,3.24885648 C4.53794792,3.42188889 4.45489236,3.65721296 4.45489236,3.9548287 C4.45489236,4.22821991 4.54140856,4.44970139 4.71098032,4.61235185 C4.88055208,4.78192361 5.18854977,4.94111343 5.62805208,5.09338194 C6.19905903,5.2767963 6.62471875,5.50865972 6.9015706,5.78205093 C7.17842245,6.05544213 7.31684838,6.43265278 7.31684838,6.90676157 C7.31684838,7.38433102 7.17150116,7.77192361 6.88426736,8.05223611 C6.6212581,8.31178472 6.27173264,8.47443519 5.82876968,8.5401875 C5.75263542,8.55056944 5.69726505,8.61632176 5.69726505,8.68899537 L5.69726505,9.03506019 C5.69726505,9.21847454 5.54845718,9.36382176 5.36850347,9.36382176 C5.18508912,9.36382176 5.0397419,9.21847454 5.0397419,9.03506019 L5.0397419,8.69245602 C5.0397419,8.61978241 4.98091088,8.55403009 4.90823727,8.54364815 C4.48603819,8.47789583 4.13651273,8.30832407 3.85620023,8.03839352 C3.63471875,7.81691204 3.49629282,7.52967824 3.43746181,7.16977083 C3.40285532,6.92752546 3.57588773,6.70950463 3.8181331,6.70258333 L3.85966088,6.69912269 Z" id="Fill-29" fill="#181212"></path>
                <polygon id="Fill-31" fill="#181212" points="5.69657292 8.6896875 5.03904977 8.69314815 5.12902662 1.71648148 5.77962847 1.71648148"></polygon>
            </g>
        </g>
    </g>
</svg>