<?xml version="1.0" encoding="UTF-8"?>
<svg width="25px" height="25px" viewBox="0 0 25 25" version="1.1" xmlns="http://www.w3.org/2000/svg" xmlns:xlink="http://www.w3.org/1999/xlink">
    <!-- Generator: Sketch 64 (93537) - https://sketch.com -->
    <title>Reservamos/Atoms/Icons/Amenities/buyable-counter-checkin</title>
    <desc>Created with Sketch.</desc>
    <g id="Reservamos/Atoms/Icons/Amenities/buyable-counter-checkin" stroke="none" stroke-width="1" fill="none" fill-rule="evenodd">
        <g id="counter-checkin" transform="translate(1.000000, 1.000000)">
            <path d="M18.7153285,19.4978446 L3.93672276,19.4978446 C2.89177083,19.4978446 2.04401442,18.6500881 2.04401442,17.6051362 L2.04401442,10.3218029 L20.6080369,10.3218029 L20.6080369,17.6051362 C20.6080369,18.6500881 19.7602804,19.4978446 18.7153285,19.4978446 Z" id="Stroke-17" stroke="#181212" stroke-width="0.855654762"></path>
            <path d="M11.3273157,9.52998588 L6.79181891,9.53161058 L6.79181891,9.52998588 C6.79181891,7.33502244 8.83933494,5.53161058 11.3273157,5.53161058 C13.8152965,5.53161058 15.8609696,7.33502244 15.8609696,9.52998588 L11.3273157,9.52998588 Z" id="Stroke-29" stroke="#FF79A4" stroke-width="0.855654762" fill="#FF79A4"></path>
            <path d="M22.3254808,10.4775321 L0.328044872,10.4775321 C0.147435897,10.4775321 3.18337949e-13,10.3282532 3.18337949e-13,10.1476442 L3.18337949e-13,10.1310577 C3.18337949e-13,9.94860577 0.147435897,9.80116987 0.328044872,9.80116987 L22.3254808,9.80116987 C22.5060897,9.80116987 22.6553686,9.94860577 22.6553686,10.1310577 L22.6553686,10.1476442 C22.6553686,10.3282532 22.5060897,10.4775321 22.3254808,10.4775321" id="Fill-27" fill="#181212"></path>
            <path d="M13.7550321,2.42716346 C13.7550321,3.76883013 12.6676923,4.85432692 11.3278686,4.85432692 C9.98620192,4.85432692 8.89886218,3.76883013 8.89886218,2.42716346 C8.89886218,1.08549679 9.98620192,-2.00025182e-14 11.3278686,-2.00025182e-14 C12.6676923,-2.00025182e-14 13.7550321,1.08549679 13.7550321,2.42716346 Z" id="Stroke-31" fill="#FF79A4"></path>
        </g>
        <g id="badge/money" transform="translate(12.326026, 13.000000)">
            <g id="Money">
                <path d="M10.7522338,5.37784722 C10.7522338,8.34362269 8.34362269,10.7556944 5.37438657,10.7556944 C2.40515046,10.7556944 -2.03009955e-13,8.34362269 -2.03009955e-13,5.37784722 C-2.03009955e-13,2.40861111 2.40515046,-1.18029043e-15 5.37438657,-1.18029043e-15 C8.34362269,-1.18029043e-15 10.7522338,2.40861111 10.7522338,5.37784722 Z" id="Stroke-27" stroke="#181212" stroke-width="0.991875" fill="#FFD274"></path>
                <path d="M3.85966088,6.69912269 C4.05345718,6.69566204 4.20918634,6.83754861 4.24379282,7.03134491 C4.28878125,7.28743287 4.3856794,7.48122917 4.54486921,7.6127338 C4.76289005,7.7926875 5.02589931,7.88958565 5.34081829,7.88958565 C5.70072569,7.88958565 5.98449884,7.7996088 6.18521644,7.63003704 C6.38939468,7.45700463 6.48975347,7.21821991 6.48975347,6.91368287 C6.48975347,6.66105556 6.39977662,6.44649537 6.22328356,6.27000231 C6.04679051,6.09004861 5.74917477,5.93431944 5.34081829,5.79243287 C4.77673264,5.62286111 4.35107292,5.39445833 4.06383912,5.11068519 C3.77314468,4.82345139 3.62779745,4.44624074 3.62779745,3.9686713 C3.62779745,3.50840509 3.76276273,3.13119444 4.02923264,2.8405 C4.26801736,2.57749074 4.58985764,2.41137963 4.99475347,2.33524537 C5.06742708,2.32140278 5.12279745,2.26257176 5.12279745,2.1864375 L5.12279745,1.71925 C5.12279745,1.53583565 5.26814468,1.39048843 5.45155903,1.39048843 L5.45501968,1.39048843 C5.63843403,1.39048843 5.78378125,1.53583565 5.78378125,1.71925 L5.78378125,2.18989815 C5.78378125,2.26603241 5.83915162,2.32486343 5.91182523,2.33870602 C6.32018171,2.41830093 6.63856134,2.60171528 6.87388542,2.89240972 C7.05037847,3.11735185 7.16804051,3.39074306 7.22341088,3.71604398 C7.26493866,3.95828935 7.08498495,4.18669213 6.83235764,4.18669213 L6.79082986,4.18669213 C6.60049421,4.18669213 6.44822569,4.04134491 6.41015856,3.85446991 C6.37209144,3.64683102 6.29249653,3.47033796 6.17483449,3.32153009 C5.99834144,3.10350926 5.75609606,2.99276852 5.44463773,2.99276852 C5.11587616,2.99276852 4.87017014,3.07582407 4.70405903,3.24885648 C4.53794792,3.42188889 4.45489236,3.65721296 4.45489236,3.9548287 C4.45489236,4.22821991 4.54140856,4.44970139 4.71098032,4.61235185 C4.88055208,4.78192361 5.18854977,4.94111343 5.62805208,5.09338194 C6.19905903,5.2767963 6.62471875,5.50865972 6.9015706,5.78205093 C7.17842245,6.05544213 7.31684838,6.43265278 7.31684838,6.90676157 C7.31684838,7.38433102 7.17150116,7.77192361 6.88426736,8.05223611 C6.6212581,8.31178472 6.27173264,8.47443519 5.82876968,8.5401875 C5.75263542,8.55056944 5.69726505,8.61632176 5.69726505,8.68899537 L5.69726505,9.03506019 C5.69726505,9.21847454 5.54845718,9.36382176 5.36850347,9.36382176 C5.18508912,9.36382176 5.0397419,9.21847454 5.0397419,9.03506019 L5.0397419,8.69245602 C5.0397419,8.61978241 4.98091088,8.55403009 4.90823727,8.54364815 C4.48603819,8.47789583 4.13651273,8.30832407 3.85620023,8.03839352 C3.63471875,7.81691204 3.49629282,7.52967824 3.43746181,7.16977083 C3.40285532,6.92752546 3.57588773,6.70950463 3.8181331,6.70258333 L3.85966088,6.69912269 Z" id="Fill-29" fill="#181212"></path>
                <polygon id="Fill-31" fill="#181212" points="5.69657292 8.6896875 5.03904977 8.69314815 5.12902662 1.71648148 5.77962847 1.71648148"></polygon>
            </g>
        </g>
    </g>
</svg>