<?xml version="1.0" encoding="UTF-8"?>
<svg width="25px" height="25px" viewBox="0 0 25 25" version="1.1" xmlns="http://www.w3.org/2000/svg" xmlns:xlink="http://www.w3.org/1999/xlink">
    <!-- Generator: Sketch 64 (93537) - https://sketch.com -->
    <title>Reservamos/Atoms/Icons/Amenities/buyable-snacks</title>
    <desc>Created with Sketch.</desc>
    <g id="Reservamos/Atoms/Icons/Amenities/buyable-snacks" stroke="none" stroke-width="1" fill="none" fill-rule="evenodd">
        <g id="Reservamos/Atoms/Icons/Amenities/free-snacks" transform="translate(2.000000, 3.000000)">
            <g id="Group-28" transform="translate(0.800000, 1.600000)">
                <path d="M17.4720857,8.7362 C17.4720857,13.5611143 13.5608,17.4720857 8.73588571,17.4720857 C3.91128571,17.4720857 -2.45644774e-14,13.5611143 -2.45644774e-14,8.7362 C-2.45644774e-14,3.91128571 3.91128571,-6.69940294e-15 8.73588571,-6.69940294e-15 C13.5608,-6.69940294e-15 17.4720857,3.91128571 17.4720857,8.7362 Z" id="Stroke-1" stroke="#181212" stroke-width="0.697931034"></path>
                <path d="M2.47905429,5.77440286 L3.41499714,4.91011714 C3.51431143,4.81866 3.59225429,4.70614571 3.64316857,4.58106 L4.00522571,3.69068857 C4.23465429,3.12717429 4.75102571,2.73148857 5.35476857,2.65731714 L6.84322571,2.47377429 L7.64151143,1.94137429 C8.14939714,1.60288857 8.80122571,1.56674571 9.34399714,1.84708857 L10.2516543,2.36566 C10.6083686,2.56931714 11.0119114,2.67554571 11.4226829,2.67366 L12.3561114,2.66957429 C12.9931686,2.75631714 13.5246257,3.19946 13.7245114,3.81011714 L13.8112543,4.07443143 C13.9608543,4.53171714 14.2229686,4.94374571 14.5730829,5.27343143 L15.1325114,5.79986 C15.5278829,6.17197429 15.7186543,6.71223143 15.6451114,7.24997429 L15.4502543,8.67148857 C15.4332829,8.79594571 15.4342257,8.92228857 15.4530829,9.04674571 L15.6246829,10.1797457 C15.7107971,10.7460886 15.5017971,11.31746 15.0702829,11.6946029 L14.2977686,12.3706314 C14.1943686,12.4611457 14.1132829,12.5739743 14.0604829,12.7009457 L13.6713971,13.63406 C13.4394543,14.1912886 12.9262257,14.5810029 12.3271971,14.6545457 L11.0584257,14.81106 C10.9081971,14.8296029 10.7648829,14.8849171 10.6416829,14.9719743 L9.88111143,15.5068886 C9.34714,15.8827743 8.64314,15.9148314 8.07711143,15.5889171 L6.96485429,14.9484029 C6.84039714,14.8767457 6.70085429,14.83526 6.55722571,14.8270886 L5.40788286,14.7632886 C4.75794,14.7271457 4.18751143,14.3185743 3.94394,13.7148314 L3.57308286,12.7952314 C3.52374,12.6729743 3.44862571,12.5623457 3.35276857,12.4715171 L2.33574,11.5082314 C1.86902571,11.0657171 1.69585429,10.39566 1.88976857,9.78248857 L2.14685429,8.97068857 C2.19116857,8.83083143 2.20122571,8.68217429 2.17671143,8.53760286 L1.96299714,7.29146 C1.86714,6.73108857 2.06105429,6.16003143 2.47905429,5.77440286 Z" id="Stroke-5" fill="#FF79A4"></path>
                <path d="M11.9122143,8.7362 C11.9122143,10.4905429 10.4903857,11.9123714 8.73604286,11.9123714 C6.9817,11.9123714 5.55955714,10.4905429 5.55955714,8.7362 C5.55955714,6.98185714 6.9817,5.56002857 8.73604286,5.56002857 C10.4903857,5.56002857 11.9122143,6.98185714 11.9122143,8.7362 Z" id="Stroke-3" stroke="#181212" stroke-width="0.697931034" fill="#FFFFFF"></path>
                <line x1="7.83357143" y1="3.70806857" x2="9.24785714" y2="3.89286857" id="Stroke-7" stroke="#181212" stroke-width="0.697931034" stroke-linecap="round"></line>
                <line x1="12.4164857" y1="5.65057429" x2="13.4250286" y2="6.65911714" id="Stroke-9" stroke="#181212" stroke-width="0.697931034" stroke-linecap="round"></line>
                <line x1="13.7691086" y1="10.3938686" x2="13.2200514" y2="11.7100971" id="Stroke-11" stroke="#181212" stroke-width="0.697931034" stroke-linecap="round"></line>
                <line x1="3.62846" y1="7.21219714" x2="4.88780286" y2="6.54308286" id="Stroke-13" stroke="#181212" stroke-width="0.697931034" stroke-linecap="round"></line>
                <line x1="8.17884571" y1="13.6786886" x2="9.54787429" y2="13.2792314" id="Stroke-15" stroke="#181212" stroke-width="0.697931034" stroke-linecap="round"></line>
                <line x1="4.6585" y1="10.9822429" x2="5.61707143" y2="12.0382429" id="Stroke-17" stroke="#181212" stroke-width="0.697931034" stroke-linecap="round"></line>
            </g>
        </g>
        <g id="badge/money" transform="translate(14.000000, 13.000000)">
            <g id="Money">
                <path d="M10.7522338,5.37784722 C10.7522338,8.34362269 8.34362269,10.7556944 5.37438657,10.7556944 C2.40515046,10.7556944 -2.03009955e-13,8.34362269 -2.03009955e-13,5.37784722 C-2.03009955e-13,2.40861111 2.40515046,-1.18029043e-15 5.37438657,-1.18029043e-15 C8.34362269,-1.18029043e-15 10.7522338,2.40861111 10.7522338,5.37784722 Z" id="Stroke-27" stroke="#181212" stroke-width="0.991875" fill="#FFD274"></path>
                <path d="M3.85966088,6.69912269 C4.05345718,6.69566204 4.20918634,6.83754861 4.24379282,7.03134491 C4.28878125,7.28743287 4.3856794,7.48122917 4.54486921,7.6127338 C4.76289005,7.7926875 5.02589931,7.88958565 5.34081829,7.88958565 C5.70072569,7.88958565 5.98449884,7.7996088 6.18521644,7.63003704 C6.38939468,7.45700463 6.48975347,7.21821991 6.48975347,6.91368287 C6.48975347,6.66105556 6.39977662,6.44649537 6.22328356,6.27000231 C6.04679051,6.09004861 5.74917477,5.93431944 5.34081829,5.79243287 C4.77673264,5.62286111 4.35107292,5.39445833 4.06383912,5.11068519 C3.77314468,4.82345139 3.62779745,4.44624074 3.62779745,3.9686713 C3.62779745,3.50840509 3.76276273,3.13119444 4.02923264,2.8405 C4.26801736,2.57749074 4.58985764,2.41137963 4.99475347,2.33524537 C5.06742708,2.32140278 5.12279745,2.26257176 5.12279745,2.1864375 L5.12279745,1.71925 C5.12279745,1.53583565 5.26814468,1.39048843 5.45155903,1.39048843 L5.45501968,1.39048843 C5.63843403,1.39048843 5.78378125,1.53583565 5.78378125,1.71925 L5.78378125,2.18989815 C5.78378125,2.26603241 5.83915162,2.32486343 5.91182523,2.33870602 C6.32018171,2.41830093 6.63856134,2.60171528 6.87388542,2.89240972 C7.05037847,3.11735185 7.16804051,3.39074306 7.22341088,3.71604398 C7.26493866,3.95828935 7.08498495,4.18669213 6.83235764,4.18669213 L6.79082986,4.18669213 C6.60049421,4.18669213 6.44822569,4.04134491 6.41015856,3.85446991 C6.37209144,3.64683102 6.29249653,3.47033796 6.17483449,3.32153009 C5.99834144,3.10350926 5.75609606,2.99276852 5.44463773,2.99276852 C5.11587616,2.99276852 4.87017014,3.07582407 4.70405903,3.24885648 C4.53794792,3.42188889 4.45489236,3.65721296 4.45489236,3.9548287 C4.45489236,4.22821991 4.54140856,4.44970139 4.71098032,4.61235185 C4.88055208,4.78192361 5.18854977,4.94111343 5.62805208,5.09338194 C6.19905903,5.2767963 6.62471875,5.50865972 6.9015706,5.78205093 C7.17842245,6.05544213 7.31684838,6.43265278 7.31684838,6.90676157 C7.31684838,7.38433102 7.17150116,7.77192361 6.88426736,8.05223611 C6.6212581,8.31178472 6.27173264,8.47443519 5.82876968,8.5401875 C5.75263542,8.55056944 5.69726505,8.61632176 5.69726505,8.68899537 L5.69726505,9.03506019 C5.69726505,9.21847454 5.54845718,9.36382176 5.36850347,9.36382176 C5.18508912,9.36382176 5.0397419,9.21847454 5.0397419,9.03506019 L5.0397419,8.69245602 C5.0397419,8.61978241 4.98091088,8.55403009 4.90823727,8.54364815 C4.48603819,8.47789583 4.13651273,8.30832407 3.85620023,8.03839352 C3.63471875,7.81691204 3.49629282,7.52967824 3.43746181,7.16977083 C3.40285532,6.92752546 3.57588773,6.70950463 3.8181331,6.70258333 L3.85966088,6.69912269 Z" id="Fill-29" fill="#181212"></path>
                <polygon id="Fill-31" fill="#181212" points="5.69657292 8.6896875 5.03904977 8.69314815 5.12902662 1.71648148 5.77962847 1.71648148"></polygon>
            </g>
        </g>
    </g>
</svg>