<?xml version="1.0" encoding="UTF-8"?>
<svg width="25px" height="25px" viewBox="0 0 25 25" version="1.1" xmlns="http://www.w3.org/2000/svg" xmlns:xlink="http://www.w3.org/1999/xlink">
    <!-- Generator: Sketch 64 (93537) - https://sketch.com -->
    <title>Reservamos/Atoms/Icons/Amenities/free-flight-fast-forward</title>
    <desc>Created with Sketch.</desc>
    <g id="Reservamos/Atoms/Icons/Amenities/free-flight-fast-forward" stroke="none" stroke-width="1" fill="none" fill-rule="evenodd">
        <g id="free-flight-fast-forward" transform="translate(2.000000, 2.000000)">
            <path d="M3.90673913,12.141087 L7.45456522,8.45195652 C7.60673913,8.29108696 7.54804348,8.02586957 7.34152174,7.9476087 L0.752391304,5.4476087 C0.328478261,5.28673913 0.211086957,4.74108696 0.530652174,4.41934783 L0.980652174,3.96934783 C1.10891304,3.84326087 1.285,3.77369565 1.46326087,3.78673913 L11.1719565,4.40195652 C11.3763043,4.415 11.5741304,4.32804348 11.711087,4.17586957 C16.4502174,-1.22413043 18.3784783,0.706304348 18.3784783,0.706304348 C18.3784783,0.706304348 20.4415217,2.46282609 14.9502174,7.50630435 C14.8045652,7.64326087 14.7241304,7.83891304 14.735,8.03673913 L15.3763043,17.6758696 C15.3893478,17.8541304 15.3241304,18.0302174 15.1980435,18.1584783 L14.7023913,18.665 C14.3784783,18.991087 13.8241304,18.8736957 13.6654348,18.441087 L11.2197826,11.7932609 C11.1415217,11.5802174 10.8676087,11.5215217 10.708913,11.6845652 L7.08934783,15.3976087 C7.02847826,15.4606522 6.99369565,15.5432609 6.99152174,15.6323913 L6.9676087,17.7932609 C6.9676087,17.8823913 6.93282609,17.9671739 6.86978261,18.0280435 L5.85891304,19.0584783 C5.66978261,19.2497826 5.34152174,19.1584783 5.28282609,18.8932609 L4.39804348,15.0715217 C4.3676087,14.9454348 4.27195652,14.8476087 4.14586957,14.815 L0.258913043,13.838913 C-0.00195652174,13.7736957 -0.0889130435,13.4497826 0.104565217,13.2628261 L1.15456522,12.2476087 C1.22413043,12.1823913 1.31326087,12.1476087 1.40673913,12.1519565 L3.64586957,12.2454348 C3.74369565,12.2497826 3.83934783,12.2106522 3.90673913,12.141087" id="plane" fill="#FF79A4"></path>
            <g id="reloj" transform="translate(9.000000, 9.000000)">
                <path d="M11.6153623,5.9173913 C11.6153623,9.1173913 9.01826087,11.7144928 5.81826087,11.7144928 C2.61536232,11.7144928 0.0182608696,9.1173913 0.0182608696,5.9173913 C0.0182608696,2.7173913 2.61536232,0.120289855 5.81826087,0.120289855 C9.01826087,0.120289855 11.6153623,2.7173913 11.6153623,5.9173913 Z" id="Stroke-6" stroke="#181212" stroke-width="1.14545455" fill="#FFFFFF"></path>
                <line x1="5.48434783" y1="6.58550725" x2="8.80898551" y2="6.58550725" id="Stroke-8" stroke="#181212" stroke-width="1.12363636" stroke-linecap="round" stroke-linejoin="round"></line>
                <line x1="5.48434783" y1="3.76898551" x2="5.48434783" y2="6.58637681" id="Stroke-10" stroke="#181212" stroke-width="1.12363636" stroke-linecap="round" stroke-linejoin="round"></line>
                <path d="M5.78724638,1.45072464 C5.78724638,1.61884058 5.65101449,1.75217391 5.4857971,1.75217391 C5.31768116,1.75217391 5.18144928,1.61884058 5.18144928,1.45072464 C5.18144928,1.27971014 5.31768116,1.14637681 5.4857971,1.14637681 C5.65101449,1.14637681 5.78724638,1.27971014 5.78724638,1.45072464" id="Fill-12" stroke="#181212" stroke-width="0.5" fill="#181212"></path>
                <path d="M1.75362319,6.58550725 C1.75362319,6.75652174 1.6173913,6.88985507 1.44927536,6.88985507 C1.28115942,6.88985507 1.14492754,6.75652174 1.14492754,6.58550725 C1.14492754,6.4173913 1.28115942,6.28405797 1.44927536,6.28405797 C1.6173913,6.28405797 1.75362319,6.4173913 1.75362319,6.58550725" id="Fill-14" stroke="#181111" stroke-width="0.5" fill="#181212"></path>
                <path d="M5.78724638,10.2257971 C5.78724638,10.3968116 5.65101449,10.5301449 5.4857971,10.5301449 C5.31768116,10.5301449 5.18144928,10.3968116 5.18144928,10.2257971 C5.18144928,10.0576812 5.31768116,9.92434783 5.4857971,9.92434783 C5.65101449,9.92434783 5.78724638,10.0576812 5.78724638,10.2257971" id="Fill-16" stroke="#181111" stroke-width="0.5" fill="#181212"></path>
                <path d="M10.4889855,6.58550725 C10.4889855,6.75652174 10.3527536,6.88985507 10.1875362,6.88985507 C10.0194203,6.88985507 9.88028986,6.75652174 9.88028986,6.58550725 C9.88028986,6.4173913 10.0194203,6.28405797 10.1875362,6.28405797 C10.3527536,6.28405797 10.4889855,6.4173913 10.4889855,6.58550725" id="Fill-18" stroke="#181111" stroke-width="0.5" fill="#181212"></path>
            </g>
        </g>
    </g>
</svg>