<?xml version="1.0" encoding="UTF-8"?>
<svg width="25px" height="25px" viewBox="0 0 25 25" version="1.1" xmlns="http://www.w3.org/2000/svg" xmlns:xlink="http://www.w3.org/1999/xlink">
    <!-- Generator: Sketch 64 (93537) - https://sketch.com -->
    <title>Reservamos/Atoms/Icons/Amenities/free-itinerary-change</title>
    <desc>Created with Sketch.</desc>
    <g id="Reservamos/Atoms/Icons/Amenities/free-itinerary-change" stroke="none" stroke-width="1" fill="none" fill-rule="evenodd">
        <g id="free-itinerary-change" transform="translate(2.000000, 1.000000)" stroke-width="0.86">
            <path d="M20.4846364,22.4762273 L1.20854545,22.4762273 C0.541545455,22.4762273 0,21.9346818 0,21.2676818 L0,3.23359091 C0,2.56659091 0.541545455,2.02504545 1.20854545,2.02504545 L20.4846364,2.02504545 C21.1516364,2.02504545 21.6931818,2.56659091 21.6931818,3.23359091 L21.6931818,21.2676818 C21.6931818,21.9346818 21.1516364,22.4762273 20.4846364,22.4762273 Z" id="Stroke-53" stroke="#181212"></path>
            <line x1="0.00020909091" y1="5.58565455" x2="21.6933909" y2="5.58565455" id="Stroke-55" stroke="#181212"></line>
            <path d="M5.28477273,3.78872727 L5.28477273,3.78872727 C4.69304545,3.78872727 4.20586364,3.30363636 4.20586364,2.70981818 L4.20586364,1.07681818 C4.20586364,0.483 4.69304545,1.1142602e-14 5.28477273,1.1142602e-14 C5.8765,1.1142602e-14 6.36368182,0.483 6.36368182,1.07681818 L6.36368182,2.70981818 C6.36368182,3.30363636 5.8765,3.78872727 5.28477273,3.78872727 Z" id="Stroke-59" stroke="#181212" fill="#FFFFFF"></path>
            <path d="M16.9236091,3.78872727 L16.9236091,3.78872727 C16.3318818,3.78872727 15.8447,3.30363636 15.8447,2.70981818 L15.8447,1.07681818 C15.8447,0.483 16.3318818,1.1142602e-14 16.9236091,1.1142602e-14 C17.5153364,1.1142602e-14 18.0025182,0.483 18.0025182,1.07681818 L18.0025182,2.70981818 C18.0025182,3.30363636 17.5153364,3.78872727 16.9236091,3.78872727 Z" id="Stroke-63" stroke="#181212" fill="#FFFFFF"></path>
            <path d="M6.20163636,11.3682727 L3.25136364,11.3682727 C2.806,11.3682727 2.44009091,11.0023636 2.44009091,10.5549091 L2.44009091,8.97627273 C2.44009091,8.533 2.806,8.16709091 3.25136364,8.16709091 L6.20163636,8.16709091 C6.64909091,8.16709091 7.015,8.533 7.015,8.97627273 L7.015,10.5549091 C7.015,11.0023636 6.64909091,11.3682727 6.20163636,11.3682727 Z" id="Stroke-67" stroke="#FF79A4" fill="#FF79A4"></path>
            <path d="M12.3436818,11.3682727 L9.39340909,11.3682727 C8.94804545,11.3682727 8.58213636,11.0023636 8.58213636,10.5549091 L8.58213636,8.97627273 C8.58213636,8.533 8.94804545,8.16709091 9.39340909,8.16709091 L12.3436818,8.16709091 C12.7911364,8.16709091 13.1570455,8.533 13.1570455,8.97627273 L13.1570455,10.5549091 C13.1570455,11.0023636 12.7911364,11.3682727 12.3436818,11.3682727 Z" id="Stroke-71" stroke="#181212"></path>
            <path d="M18.4202818,11.3682727 L15.4700091,11.3682727 C15.0246455,11.3682727 14.6587364,11.0023636 14.6587364,10.5549091 L14.6587364,8.97627273 C14.6587364,8.533 15.0246455,8.16709091 15.4700091,8.16709091 L18.4202818,8.16709091 C18.8677364,8.16709091 19.2336455,8.533 19.2336455,8.97627273 L19.2336455,10.5549091 C19.2336455,11.0023636 18.8677364,11.3682727 18.4202818,11.3682727 Z" id="Stroke-75" stroke="#181212"></path>
            <path d="M6.20163636,16.0420818 L3.25136364,16.0420818 C2.806,16.0420818 2.44009091,15.6761727 2.44009091,15.2287182 L2.44009091,13.6500818 C2.44009091,13.2068091 2.806,12.8409 3.25136364,12.8409 L6.20163636,12.8409 C6.64909091,12.8409 7.015,13.2068091 7.015,13.6500818 L7.015,15.2287182 C7.015,15.6761727 6.64909091,16.0420818 6.20163636,16.0420818 Z" id="Stroke-79" stroke="#181212"></path>
            <path d="M12.3436818,16.0420818 L9.39340909,16.0420818 C8.94804545,16.0420818 8.58213636,15.6761727 8.58213636,15.2287182 L8.58213636,13.6500818 C8.58213636,13.2068091 8.94804545,12.8409 9.39340909,12.8409 L12.3436818,12.8409 C12.7911364,12.8409 13.1570455,13.2068091 13.1570455,13.6500818 L13.1570455,15.2287182 C13.1570455,15.6761727 12.7911364,16.0420818 12.3436818,16.0420818 Z" id="Stroke-83" stroke="#181212"></path>
            <path d="M18.4202818,16.0420818 L15.4700091,16.0420818 C15.0246455,16.0420818 14.6587364,15.6761727 14.6587364,15.2287182 L14.6587364,13.6500818 C14.6587364,13.2068091 15.0246455,12.8409 15.4700091,12.8409 L18.4202818,12.8409 C18.8677364,12.8409 19.2336455,13.2068091 19.2336455,13.6500818 L19.2336455,15.2287182 C19.2336455,15.6761727 18.8677364,16.0420818 18.4202818,16.0420818 Z" id="Stroke-87" stroke="#FF79A4" fill="#FF79A4"></path>
            <path d="M6.20163636,20.7161 L3.25136364,20.7161 C2.806,20.7161 2.44009091,20.3501909 2.44009091,19.9027364 L2.44009091,18.3241 C2.44009091,17.8808273 2.806,17.5149182 3.25136364,17.5149182 L6.20163636,17.5149182 C6.64909091,17.5149182 7.015,17.8808273 7.015,18.3241 L7.015,19.9027364 C7.015,20.3501909 6.64909091,20.7161 6.20163636,20.7161 Z" id="Stroke-91" stroke="#181212"></path>
            <path d="M12.3436818,20.7161 L9.39340909,20.7161 C8.94804545,20.7161 8.58213636,20.3501909 8.58213636,19.9027364 L8.58213636,18.3241 C8.58213636,17.8808273 8.94804545,17.5149182 9.39340909,17.5149182 L12.3436818,17.5149182 C12.7911364,17.5149182 13.1570455,17.8808273 13.1570455,18.3241 L13.1570455,19.9027364 C13.1570455,20.3501909 12.7911364,20.7161 12.3436818,20.7161 Z" id="Stroke-95" stroke="#181212"></path>
        </g>
    </g>
</svg>