<?xml version="1.0" encoding="UTF-8"?>
<svg width="25px" height="25px" viewBox="0 0 25 25" version="1.1" xmlns="http://www.w3.org/2000/svg" xmlns:xlink="http://www.w3.org/1999/xlink">
    <!-- Generator: Sketch 64 (93537) - https://sketch.com -->
    <title>Reservamos/Atoms/Icons/Amenities/free-infant-travel</title>
    <desc>Created with Sketch.</desc>
    <g id="Reservamos/Atoms/Icons/Amenities/free-infant-travel" stroke="none" stroke-width="1" fill="none" fill-rule="evenodd">
        <g id="Group-2" transform="translate(1.000000, 2.000000)">
            <g id="Group">
                <path d="M8.98845912,8.65081819 L18.1571759,8.65081819 C18.1571759,12.6571608 13.9399731,15.9532378 8.98845912,15.9532378 C4.32179128,15.9532378 0.424577996,13.021542 0.00285771646,9.31669232 C-0.0341352905,9.00410141 0.293252821,8.73405246 0.681679395,8.73035316 L8.98845912,8.65081819 Z" id="Stroke-5" stroke="#181212" stroke-width="0.752727273"></path>
                <path d="M18.1571759,8.65081819 C18.1571759,4.28194407 15.9893857,0.604839172 13.1927144,0.00925175895 C12.8375815,-0.0665839054 12.5194416,0.33479022 12.512043,0.81015036 L12.3955151,8.65081819 L18.1571759,8.65081819" id="Stroke-7" stroke="#181212" stroke-width="0.752727273"></path>
                <line x1="6.58243394" y1="15.5363266" x2="6.58243394" y2="17.1122287" id="Stroke-9" stroke="#181212" stroke-width="0.752727273"></line>
                <line x1="12.3951451" y1="15.5363266" x2="12.3951451" y2="17.1122287" id="Stroke-11" stroke="#181212" stroke-width="0.752727273"></line>
                <path d="M8.25137345,18.776914 C8.25137345,19.834914 7.39313569,20.6931518 6.33513569,20.6931518 C5.27713569,20.6931518 4.41889793,19.834914 4.41889793,18.776914 C4.41889793,17.718914 5.27713569,16.8606762 6.33513569,16.8606762 C7.39313569,16.8606762 8.25137345,17.718914 8.25137345,18.776914 Z" id="Stroke-13" stroke="#181212" stroke-width="0.752727273" fill="#FF79A4"></path>
                <path d="M14.4920937,18.776914 C14.4920937,19.834914 13.633856,20.6931518 12.575856,20.6931518 C11.517856,20.6931518 10.6596182,19.834914 10.6596182,18.776914 C10.6596182,17.718914 11.517856,16.8606762 12.575856,16.8606762 C13.633856,16.8606762 14.4920937,17.718914 14.4920937,18.776914 Z" id="Stroke-15" stroke="#181212" stroke-width="0.752727273" fill="#FF79A4"></path>
                <path d="M18.3451004,8.990414 L17.9825689,8.35968323 C17.9825689,8.35968323 18.0842997,8.12847693 18.2489186,7.76039651 C18.8408067,6.43419721 20.2261948,3.33233358 20.4795969,2.77558882 C20.769992,2.1430084 20.9734535,2.04682658 20.9734535,2.04682658 L22.3551423,1.29031959 C22.4846179,1.21818323 22.6510864,1.26627414 22.7213731,1.39759931 C22.7935095,1.52707484 22.7454186,1.69354337 22.615943,1.76567973 L21.3618801,2.46854686 C21.3618801,2.46854686 21.2324046,2.54993148 21.0067472,3.08263078 L18.3451004,8.990414 Z" id="Fill-17" fill="#181212"></path>
            </g>
        </g>
    </g>
</svg>