<?xml version="1.0" encoding="UTF-8"?>
<svg width="25px" height="25px" viewBox="0 0 25 25" version="1.1" xmlns="http://www.w3.org/2000/svg" xmlns:xlink="http://www.w3.org/1999/xlink">
    <!-- Generator: Sketch 64 (93537) - https://sketch.com -->
    <title>Reservamos/Atoms/Icons/Amenities/no-carryon</title>
    <desc>Created with Sketch.</desc>
    <g id="Reservamos/Atoms/Icons/Amenities/no-carryon" stroke="none" stroke-width="1" fill="none" fill-rule="evenodd">
        <g id="Reservamos/Atoms/Icons/Amenities/small-carryons">
            <g id="small-carryons" transform="translate(1.920000, 5.760000)">
                <path d="M8.67847491,3.62634082 C8.67847491,3.62634082 8.43601658,-0.0060163255 11.8183856,6.36443279e-14 C11.8183856,6.36443279e-14 14.9598023,-0.00902823026 14.9598023,3.46068606" id="Stroke-21-Copy" stroke="#181212" stroke-width="0.695054945"></path>
                <path d="M20.8249989,8.40176229 C20.8249989,10.9633166 19.486896,13.0391109 17.8350103,13.0391109 C16.1831246,13.0391109 14.8442674,10.9633166 14.8442674,8.40176229 C14.8442674,5.840208 16.1831246,3.76441371 17.8350103,3.76441371 C19.486896,3.76441371 20.8249989,5.840208 20.8249989,8.40176229 Z" id="Stroke-1" stroke="#181212" stroke-width="0.789704348"></path>
                <path d="M4.74332571,13.039488 C2.17045714,7.912608 4.74332571,3.93525943 4.74332571,3.93525943 L6.13196571,3.93525943 C6.13196571,3.93525943 3.55909714,7.912608 6.13196571,13.039488 L4.74332571,13.039488 Z" id="Stroke-7" fill="#FF79A4"></path>
                <path d="M10.7341646,13.039488 C8.161296,7.912608 10.7341646,3.93525943 10.7341646,3.93525943 L12.1228046,3.93525943 C12.1228046,3.93525943 9.54918171,7.912608 12.1228046,13.039488 L10.7341646,13.039488 Z" id="Stroke-9" fill="#FF79A4"></path>
                <path d="M17.8350857,13.039488 L3.14084571,13.039488 L2.95001143,13.039488 C1.32075429,13.039488 1.64805312e-13,10.9636937 1.64805312e-13,8.40213943 C1.64805312e-13,5.84058514 1.32075429,3.76403657 2.95001143,3.76403657 L3.08125714,3.76403657 L17.8350857,3.76403657" id="Stroke-3" stroke="#181212" stroke-width="0.789704348"></path>
                <path d="M5.66133205,3.70916803 C5.66133205,3.70916803 5.41887372,-0.00601649217 8.80124277,-2.84724625e-14 C8.80124277,-2.84724625e-14 11.9411535,-0.00902839693 11.9411535,3.54050136" id="Stroke-19" stroke="#181212" stroke-width="0.695054945"></path>
            </g>
        </g>
        <g id="badge/no-" transform="translate(11.000000, 12.000000)" stroke="#181212">
            <g id="no-">
                <path d="M12,6 C12,9.31274131 9.31573865,12 5.99806888,12 C2.68426135,12 0,9.31274131 0,6 C0,2.68725869 2.68426135,0 5.99806888,0 C9.31573865,0 12,2.68725869 12,6 Z" id="Stroke-45" stroke-width="1.14545455" fill="#B1E8ED"></path>
                <path d="M8.27463826,3.32334975 L8.27463826,3.32334975 C8.16876524,3.24668308 8.00447953,3.25763546 7.91686048,3.3525561 L3.33146366,8.1789053 C3.24019381,8.27017515 3.25844778,8.4125561 3.3643208,8.48557197 C3.4774954,8.56588943 3.63447953,8.55128626 3.72574937,8.45636562 L8.3111462,3.63001642 C8.39876524,3.53874657 8.38416207,3.40001642 8.27463826,3.32334975 Z" id="Stroke-49" stroke-width="1.14488889"></path>
                <path d="M3.36505096,3.32334975 L3.36505096,3.32334975 C3.47457477,3.24668308 3.63520969,3.25763546 3.72647953,3.3525561 L8.30822556,8.1789053 C8.3994954,8.27017515 8.38489223,8.4125561 8.27536842,8.48557197 C8.16584461,8.56588943 8.00520969,8.55128626 7.91759064,8.45636562 L3.32854302,3.63001642 C3.24092397,3.53874657 3.25917794,3.40001642 3.36505096,3.32334975 Z" id="Stroke-53" stroke-width="1.14488889"></path>
            </g>
        </g>
    </g>
</svg>