<?xml version="1.0" encoding="UTF-8"?>
<svg width="25px" height="25px" viewBox="0 0 25 25" version="1.1" xmlns="http://www.w3.org/2000/svg" xmlns:xlink="http://www.w3.org/1999/xlink">
    <!-- Generator: Sketch 64 (93537) - https://sketch.com -->
    <title>Reservamos/Atoms/Icons/Amenities/no-documented-luggage</title>
    <desc>Created with Sketch.</desc>
    <defs>
        <polygon id="path-1" points="1 0.1761 8 0.1761 8 0.8239 1 0.8239"></polygon>
    </defs>
    <g id="Reservamos/Atoms/Icons/Amenities/no-documented-luggage" stroke="none" stroke-width="1" fill="none" fill-rule="evenodd">
        <g id="documented" transform="translate(5.000000, 2.000000)">
            <path d="M8.10524216,20.0486599 L0.832302517,20.0486599 C0.373101128,20.0486599 3.19744231e-14,19.6468587 3.19744231e-14,19.1523341 L3.19744231e-14,7.73463443 C3.19744231e-14,6.38014618 1.0196972,5.28382883 2.2774363,5.28382883 L6.66348486,5.28382883 C7.91953572,5.28382883 8.93754468,6.38014618 8.93754468,7.73463443 L8.93754468,19.1523341 C8.93754468,19.6468587 8.56444355,20.0486599 8.10524216,20.0486599 Z" id="Stroke-4-Copy" stroke="#181212" stroke-width="0.86"></path>
            <path d="M4.46978528,14.9885099 L6.91604562,14.9885099 C7.22330538,14.9885099 7.45797079,15.2921335 7.3955059,15.6157562 C7.12201095,17.082967 5.9081661,18.2029197 4.46978528,18.2029197 C3.02971622,18.2029197 1.81755961,17.082967 1.54237643,15.6157562 C1.47991153,15.2921335 1.71457695,14.9885099 2.0218367,14.9885099 L4.46978528,14.9885099 Z" id="Fill-6-Copy" stroke="#181212" stroke-width="0.86"></path>
            <path d="M3.52521478,20.9168051 C3.52521478,21.3949667 3.16561957,21.7840412 2.71992411,21.7840412 C2.27591688,21.7840412 1.91632168,21.3949667 1.91632168,20.9168051 C1.91632168,20.4368253 2.27591688,20.0477509 2.71992411,20.0477509 C3.16561957,20.0477509 3.52521478,20.4368253 3.52521478,20.9168051 Z" id="Stroke-8-Copy" stroke="#181212" stroke-width="0.86"></path>
            <path d="M7.02358654,20.9168051 C7.02358654,21.3949667 6.66230309,21.7840412 6.21660763,21.7840412 C5.77428864,21.7840412 5.4130052,21.3949667 5.4130052,20.9168051 C5.4130052,20.4368253 5.77428864,20.0477509 6.21660763,20.0477509 C6.66230309,20.0477509 7.02358654,20.4368253 7.02358654,20.9168051 Z" id="Stroke-10-Copy" stroke="#181212" stroke-width="0.86"></path>
            <line x1="2.81784205" y1="5.28364702" x2="2.81784205" y2="0.918376805" id="Stroke-12-Copy" stroke="#181212" stroke-width="0.86"></line>
            <line x1="6.1202091" y1="5.28364702" x2="6.1202091" y2="0.918376805" id="Stroke-14-Copy" stroke="#181212" stroke-width="0.86"></line>
            <path d="M6.32296677,13.8663755 L2.61727909,13.8663755 C2.01457727,13.8663755 1.52836403,13.3409432 1.52836403,12.6936978 L1.52836403,9.09203166 C1.52836403,8.44660437 2.01457727,7.91935391 2.61727909,7.91935391 L6.32296677,7.91935391 C6.92229211,7.91935391 7.41019359,8.44660437 7.41019359,9.09203166 L7.41019359,12.6936978 C7.41019359,13.3409432 6.92229211,13.8663755 6.32296677,13.8663755" id="Fill-16-Copy" fill="#FF79A4"></path>
            <mask id="mask-2" fill="white">
                <use xlink:href="#path-1"></use>
            </mask>
            <use id="Clip-2-Copy" stroke="#181212" stroke-width="0.5" fill="#181212" stroke-linejoin="round" xlink:href="#path-1"></use>
        </g>
        <g id="badge/no-" transform="translate(10.000000, 12.000000)" stroke="#181212">
            <g id="no-">
                <path d="M12,6 C12,9.31274131 9.31573865,12 5.99806888,12 C2.68426135,12 0,9.31274131 0,6 C0,2.68725869 2.68426135,0 5.99806888,0 C9.31573865,0 12,2.68725869 12,6 Z" id="Stroke-45" stroke-width="1.14545455" fill="#B1E8ED"></path>
                <path d="M8.27463826,3.32334975 L8.27463826,3.32334975 C8.16876524,3.24668308 8.00447953,3.25763546 7.91686048,3.3525561 L3.33146366,8.1789053 C3.24019381,8.27017515 3.25844778,8.4125561 3.3643208,8.48557197 C3.4774954,8.56588943 3.63447953,8.55128626 3.72574937,8.45636562 L8.3111462,3.63001642 C8.39876524,3.53874657 8.38416207,3.40001642 8.27463826,3.32334975 Z" id="Stroke-49" stroke-width="1.14488889"></path>
                <path d="M3.36505096,3.32334975 L3.36505096,3.32334975 C3.47457477,3.24668308 3.63520969,3.25763546 3.72647953,3.3525561 L8.30822556,8.1789053 C8.3994954,8.27017515 8.38489223,8.4125561 8.27536842,8.48557197 C8.16584461,8.56588943 8.00520969,8.55128626 7.91759064,8.45636562 L3.32854302,3.63001642 C3.24092397,3.53874657 3.25917794,3.40001642 3.36505096,3.32334975 Z" id="Stroke-53" stroke-width="1.14488889"></path>
            </g>
        </g>
    </g>
</svg>