<?xml version="1.0" encoding="UTF-8"?>
<svg width="25px" height="25px" viewBox="0 0 25 25" version="1.1" xmlns="http://www.w3.org/2000/svg" xmlns:xlink="http://www.w3.org/1999/xlink">
    <!-- Generator: Sketch 64 (93537) - https://sketch.com -->
    <title>Reservamos/Atoms/Icons/Amenities/small-carryons</title>
    <desc>Created with Sketch.</desc>
    <g id="Reservamos/Atoms/Icons/Amenities/small-carryons" stroke="none" stroke-width="1" fill="none" fill-rule="evenodd">
        <g id="small-carryons" transform="translate(2.000000, 6.000000)">
            <path d="M9.04007803,3.77743835 C9.04007803,3.77743835 8.78751727,-0.00626700573 12.3108184,6.62961749e-14 C12.3108184,6.62961749e-14 15.5831274,-0.00940440652 15.5831274,3.60488131" id="Stroke-21-Copy" stroke="#181212" stroke-width="0.724015568"></path>
            <path d="M21.6927071,8.75183571 C21.6927071,11.4201214 20.29885,13.5824071 18.5781357,13.5824071 C16.8574214,13.5824071 15.4627786,11.4201214 15.4627786,8.75183571 C15.4627786,6.08355 16.8574214,3.92126429 18.5781357,3.92126429 C20.29885,3.92126429 21.6927071,6.08355 21.6927071,8.75183571 Z" id="Stroke-1" stroke="#181212" stroke-width="0.822608696"></path>
            <path d="M4.94096429,13.5828 C2.26089286,8.2423 4.94096429,4.09922857 4.94096429,4.09922857 L6.38746429,4.09922857 C6.38746429,4.09922857 3.70739286,8.2423 6.38746429,13.5828 L4.94096429,13.5828 Z" id="Stroke-7" fill="#FF79A4"></path>
            <path d="M11.1814214,13.5828 C8.50135,8.2423 11.1814214,4.09922857 11.1814214,4.09922857 L12.6279214,4.09922857 C12.6279214,4.09922857 9.94706429,8.2423 12.6279214,13.5828 L11.1814214,13.5828 Z" id="Stroke-9" fill="#FF79A4"></path>
            <path d="M18.5782143,13.5828 L3.27171429,13.5828 L3.07292857,13.5828 C1.37578571,13.5828 1.716722e-13,11.4205143 1.716722e-13,8.75222857 C1.716722e-13,6.08394286 1.37578571,3.92087143 3.07292857,3.92087143 L3.20964286,3.92087143 L18.5782143,3.92087143" id="Stroke-3" stroke="#181212" stroke-width="0.822608696"></path>
            <path d="M5.89722089,3.8637167 C5.89722089,3.8637167 5.64466012,-0.00626717934 9.16796121,-2.96588151e-14 C9.16796121,-2.96588151e-14 12.4387015,-0.00940458014 12.4387015,3.68802226" id="Stroke-19" stroke="#181212" stroke-width="0.724015568"></path>
        </g>
    </g>
</svg>