<?xml version="1.0" encoding="UTF-8"?>
<svg width="25px" height="25px" viewBox="0 0 25 25" version="1.1" xmlns="http://www.w3.org/2000/svg" xmlns:xlink="http://www.w3.org/1999/xlink">
    <!-- Generator: Sketch 64 (93537) - https://sketch.com -->
    <title>Reservamos/Atoms/Icons/Amenities/three-documented-luggage</title>
    <desc>Created with Sketch.</desc>
    <defs>
        <polygon id="path-1" points="1 0.1761 8 0.1761 8 0.8239 1 0.8239"></polygon>
    </defs>
    <g id="Reservamos/Atoms/Icons/Amenities/three-documented-luggage" stroke="none" stroke-width="1" fill="none" fill-rule="evenodd">
        <g id="documented" transform="translate(5.000000, 2.000000)">
            <path d="M8.10524216,20.0486599 L0.832302517,20.0486599 C0.373101128,20.0486599 3.19744231e-14,19.6468587 3.19744231e-14,19.1523341 L3.19744231e-14,7.73463443 C3.19744231e-14,6.38014618 1.0196972,5.28382883 2.2774363,5.28382883 L6.66348486,5.28382883 C7.91953572,5.28382883 8.93754468,6.38014618 8.93754468,7.73463443 L8.93754468,19.1523341 C8.93754468,19.6468587 8.56444355,20.0486599 8.10524216,20.0486599 Z" id="Stroke-4-Copy" stroke="#181212" stroke-width="0.86"></path>
            <path d="M4.46978528,14.9885099 L6.91604562,14.9885099 C7.22330538,14.9885099 7.45797079,15.2921335 7.3955059,15.6157562 C7.12201095,17.082967 5.9081661,18.2029197 4.46978528,18.2029197 C3.02971622,18.2029197 1.81755961,17.082967 1.54237643,15.6157562 C1.47991153,15.2921335 1.71457695,14.9885099 2.0218367,14.9885099 L4.46978528,14.9885099 Z" id="Fill-6-Copy" stroke="#181212" stroke-width="0.86"></path>
            <path d="M3.52521478,20.9168051 C3.52521478,21.3949667 3.16561957,21.7840412 2.71992411,21.7840412 C2.27591688,21.7840412 1.91632168,21.3949667 1.91632168,20.9168051 C1.91632168,20.4368253 2.27591688,20.0477509 2.71992411,20.0477509 C3.16561957,20.0477509 3.52521478,20.4368253 3.52521478,20.9168051 Z" id="Stroke-8-Copy" stroke="#181212" stroke-width="0.86"></path>
            <path d="M7.02358654,20.9168051 C7.02358654,21.3949667 6.66230309,21.7840412 6.21660763,21.7840412 C5.77428864,21.7840412 5.4130052,21.3949667 5.4130052,20.9168051 C5.4130052,20.4368253 5.77428864,20.0477509 6.21660763,20.0477509 C6.66230309,20.0477509 7.02358654,20.4368253 7.02358654,20.9168051 Z" id="Stroke-10-Copy" stroke="#181212" stroke-width="0.86"></path>
            <line x1="2.81784205" y1="5.28364702" x2="2.81784205" y2="0.918376805" id="Stroke-12-Copy" stroke="#181212" stroke-width="0.86"></line>
            <line x1="6.1202091" y1="5.28364702" x2="6.1202091" y2="0.918376805" id="Stroke-14-Copy" stroke="#181212" stroke-width="0.86"></line>
            <path d="M6.32296677,13.8663755 L2.61727909,13.8663755 C2.01457727,13.8663755 1.52836403,13.3409432 1.52836403,12.6936978 L1.52836403,9.09203166 C1.52836403,8.44660437 2.01457727,7.91935391 2.61727909,7.91935391 L6.32296677,7.91935391 C6.92229211,7.91935391 7.41019359,8.44660437 7.41019359,9.09203166 L7.41019359,12.6936978 C7.41019359,13.3409432 6.92229211,13.8663755 6.32296677,13.8663755" id="Fill-16-Copy" fill="#FF79A4"></path>
            <mask id="mask-2" fill="white">
                <use xlink:href="#path-1"></use>
            </mask>
            <use id="Clip-2-Copy" stroke="#181212" stroke-width="0.5" fill="#181212" stroke-linejoin="round" xlink:href="#path-1"></use>
        </g>
        <g id="badge/three" transform="translate(10.000000, 12.000000)">
            <g id="quantity">
                <path d="M12,6 C12,9.30888031 9.31573865,12 5.99806888,12 C2.68812359,12 0,9.30888031 0,6 C0,2.68725869 2.68812359,0 5.99806888,0 C9.31573865,0 12,2.68725869 12,6 Z" id="Stroke-64" stroke="#181212" stroke-width="1.14545455" fill="#B1E8ED"></path>
                <path d="M4.16391645,4.0235546 C4.09538068,4.01946661 4.04588262,3.96223477 4.04588262,3.89273895 C4.06492033,3.39400428 4.25529748,2.95250146 4.63605178,2.58867043 C5.03965134,2.20031147 5.56509227,2 6.20095195,2 C6.84061917,2 7.34702239,2.17578353 7.71254651,2.52735059 C8.0742631,2.87482967 8.25702516,3.38174032 8.25702516,4.06034651 C8.25702516,4.40782558 8.17325921,4.72260074 8.00572732,5.00875998 C7.87246332,5.23359938 7.69731634,5.41755889 7.48028639,5.56472649 C7.41175062,5.61378236 7.41555816,5.73233405 7.49170902,5.77730193 C7.74300686,5.92038155 7.94099909,6.11660502 8.08949327,6.35779638 C8.27225533,6.66030757 8.36363636,7.0241386 8.36363636,7.46155344 C8.36363636,8.14015963 8.16183659,8.6756862 7.75823703,9.05995717 C7.36225256,9.44014016 6.84061917,9.63636364 6.20095195,9.63636364 C5.61459033,9.63636364 5.09295694,9.44831614 4.64366687,9.08039712 C4.22864468,8.72883006 4.01542228,8.28323924 4.0001921,7.72727273 C3.99638456,7.6618649 4.04969016,7.60054507 4.11441839,7.60054507 L4.78454596,7.57601713 C4.84927419,7.57192914 4.89877225,7.62916099 4.90257979,7.69456881 C4.92923259,8.00525599 5.05107397,8.2627993 5.26048883,8.47946272 C5.51178667,8.72883006 5.82019765,8.85146973 6.20095195,8.85146973 C6.58170625,8.85146973 6.88250214,8.72065408 7.09953209,8.47128674 C7.31656204,8.21783142 7.42317325,7.8867043 7.42317325,7.48199338 C7.42317325,7.01596262 7.32798467,6.66439556 7.12237735,6.43546817 C6.92438512,6.20654078 6.61216659,6.0879891 6.17810669,6.0879891 L5.5232093,6.0879891 C5.46228861,6.0879891 5.40898301,6.03075725 5.40898301,5.96534943 L5.40898301,5.43391084 C5.40898301,5.36441503 5.46228861,5.30718318 5.5232093,5.30718318 L6.17810669,5.30718318 C6.59693642,5.30718318 6.89011723,5.19680748 7.06526421,4.97196807 C7.23660364,4.75530465 7.32036959,4.44461748 7.32036959,4.03990656 C7.32036959,3.66789955 7.22898855,3.36130037 7.03861141,3.13646097 C6.8520418,2.90344559 6.57409116,2.7889819 6.20095195,2.7889819 C5.83923537,2.7889819 5.53843947,2.91570956 5.30998689,3.14872494 C5.10057203,3.36538836 4.98253819,3.61884368 4.95588539,3.92953085 C4.95207785,3.99493868 4.89877225,4.04808254 4.83785156,4.04808254 L4.16391645,4.0235546 Z" id="Fill-66" fill="#181212"></path>
            </g>
        </g>
    </g>
</svg>