<?xml version="1.0" encoding="UTF-8"?>
<svg width="25px" height="25px" viewBox="0 0 25 25" version="1.1" xmlns="http://www.w3.org/2000/svg" xmlns:xlink="http://www.w3.org/1999/xlink">
    <!-- Generator: Sketch 64 (93537) - https://sketch.com -->
    <title>Reservamos/Atoms/Icons/Amenities/two-documented-luggage</title>
    <desc>Created with Sketch.</desc>
    <defs>
        <polygon id="path-1" points="1 0.1761 8 0.1761 8 0.8239 1 0.8239"></polygon>
    </defs>
    <g id="Reservamos/Atoms/Icons/Amenities/two-documented-luggage" stroke="none" stroke-width="1" fill="none" fill-rule="evenodd">
        <g id="documented" transform="translate(5.000000, 2.000000)">
            <path d="M8.10524216,20.0486599 L0.832302517,20.0486599 C0.373101128,20.0486599 3.19744231e-14,19.6468587 3.19744231e-14,19.1523341 L3.19744231e-14,7.73463443 C3.19744231e-14,6.38014618 1.0196972,5.28382883 2.2774363,5.28382883 L6.66348486,5.28382883 C7.91953572,5.28382883 8.93754468,6.38014618 8.93754468,7.73463443 L8.93754468,19.1523341 C8.93754468,19.6468587 8.56444355,20.0486599 8.10524216,20.0486599 Z" id="Stroke-4-Copy" stroke="#181212" stroke-width="0.86"></path>
            <path d="M4.46978528,14.9885099 L6.91604562,14.9885099 C7.22330538,14.9885099 7.45797079,15.2921335 7.3955059,15.6157562 C7.12201095,17.082967 5.9081661,18.2029197 4.46978528,18.2029197 C3.02971622,18.2029197 1.81755961,17.082967 1.54237643,15.6157562 C1.47991153,15.2921335 1.71457695,14.9885099 2.0218367,14.9885099 L4.46978528,14.9885099 Z" id="Fill-6-Copy" stroke="#181212" stroke-width="0.86"></path>
            <path d="M3.52521478,20.9168051 C3.52521478,21.3949667 3.16561957,21.7840412 2.71992411,21.7840412 C2.27591688,21.7840412 1.91632168,21.3949667 1.91632168,20.9168051 C1.91632168,20.4368253 2.27591688,20.0477509 2.71992411,20.0477509 C3.16561957,20.0477509 3.52521478,20.4368253 3.52521478,20.9168051 Z" id="Stroke-8-Copy" stroke="#181212" stroke-width="0.86"></path>
            <path d="M7.02358654,20.9168051 C7.02358654,21.3949667 6.66230309,21.7840412 6.21660763,21.7840412 C5.77428864,21.7840412 5.4130052,21.3949667 5.4130052,20.9168051 C5.4130052,20.4368253 5.77428864,20.0477509 6.21660763,20.0477509 C6.66230309,20.0477509 7.02358654,20.4368253 7.02358654,20.9168051 Z" id="Stroke-10-Copy" stroke="#181212" stroke-width="0.86"></path>
            <line x1="2.81784205" y1="5.28364702" x2="2.81784205" y2="0.918376805" id="Stroke-12-" stroke="#181212" stroke-width="0.86"></line>
            <line x1="6.1202091" y1="5.28364702" x2="6.1202091" y2="0.918376805" id="Stroke-14-" stroke="#181212" stroke-width="0.86"></line>
            <path d="M6.32296677,13.8663755 L2.61727909,13.8663755 C2.01457727,13.8663755 1.52836403,13.3409432 1.52836403,12.6936978 L1.52836403,9.09203166 C1.52836403,8.44660437 2.01457727,7.91935391 2.61727909,7.91935391 L6.32296677,7.91935391 C6.92229211,7.91935391 7.41019359,8.44660437 7.41019359,9.09203166 L7.41019359,12.6936978 C7.41019359,13.3409432 6.92229211,13.8663755 6.32296677,13.8663755" id="Fill-16-Copy" fill="#FF79A4"></path>
            <mask id="mask-2" fill="white">
                <use xlink:href="#path-1"></use>
            </mask>
            <use id="Clip-2-Copy" stroke="#181212" stroke-width="0.5" fill="#181212" stroke-linejoin="round" xlink:href="#path-1"></use>
        </g>
        <g id="badge/two-" transform="translate(10.000000, 12.000000)">
            <g id="two-">
                <path d="M12,6 C12,9.30888031 9.31573865,12 5.99806888,12 C2.68426135,12 0,9.30888031 0,6 C0,2.68725869 2.68426135,0 5.99806888,0 C9.31573865,0 12,2.68725869 12,6 Z" id="Stroke-27" stroke="#181212" stroke-width="1.14545455" fill="#B1E8ED"></path>
                <path d="M4.19388748,3.96777778 C4.08801446,3.96412698 3.99309383,3.87650794 4.00039542,3.76333333 C4.02960177,3.29968254 4.21214145,2.90539683 4.54801446,2.56952381 C4.927697,2.18984127 5.4461097,2 6.09960177,2 C6.70198272,2 7.16928431,2.16793651 7.5161097,2.50015873 C7.8629351,2.82873016 8.0345224,3.2631746 8.0345224,3.7852381 C8.0345224,4.14301587 7.93595097,4.48984127 7.74245891,4.82206349 C7.54531605,5.15793651 7.24960177,5.58142857 6.85166526,6.09619048 L5.157697,8.07857143 L5.16499859,8.10412698 L8.02722081,8.10412698 C8.13309383,8.10412698 8.22436367,8.18809524 8.22436367,8.30126984 L8.22436367,8.6152381 C8.22436367,8.7247619 8.13309383,8.81238095 8.02722081,8.81238095 L4.25230018,8.81238095 C4.14277637,8.81238095 4.05515732,8.7247619 4.05515732,8.6152381 L4.05515732,8.26111111 C4.05515732,8.21365079 4.0697605,8.16984127 4.10261764,8.13698413 L6.16166526,5.67634921 C6.537697,5.22 6.79325256,4.85857143 6.92103034,4.5884127 C7.0597605,4.32190476 7.12547478,4.04809524 7.12547478,3.77428571 C7.12547478,3.46761905 7.03055415,3.21571429 6.85531605,3.01126984 C6.67277637,2.81777778 6.41722081,2.71555556 6.09960177,2.71555556 C5.70531605,2.71555556 5.39864939,2.83603175 5.19420494,3.08063492 C5.02261764,3.28507937 4.92039542,3.52603175 4.89118907,3.81079365 C4.88023669,3.91301587 4.78896685,3.98603175 4.68674462,3.98238095 L4.19388748,3.96777778 Z" id="Fill-29" fill="#181212"></path>
            </g>
        </g>
    </g>
</svg>