<?xml version="1.0" encoding="UTF-8"?>
<svg width="25px" height="25px" viewBox="0 0 25 25" version="1.1" xmlns="http://www.w3.org/2000/svg" xmlns:xlink="http://www.w3.org/1999/xlink">
    <!-- Generator: Sketch 64 (93537) - https://sketch.com -->
    <title>Reservamos/Atoms/Icons/Amenities/two-small-carryons</title>
    <desc>Created with Sketch.</desc>
    <g id="Reservamos/Atoms/Icons/Amenities/two-small-carryons" stroke="none" stroke-width="1" fill="none" fill-rule="evenodd">
        <g id="Reservamos/Atoms/Icons/Amenities/small-carryons">
            <g id="small-carryons" transform="translate(1.920000, 5.760000)">
                <path d="M8.67847491,3.62634082 C8.67847491,3.62634082 8.43601658,-0.0060163255 11.8183856,6.36443279e-14 C11.8183856,6.36443279e-14 14.9598023,-0.00902823026 14.9598023,3.46068606" id="Stroke-21-Copy" stroke="#181212" stroke-width="0.695054945"></path>
                <path d="M20.8249989,8.40176229 C20.8249989,10.9633166 19.486896,13.0391109 17.8350103,13.0391109 C16.1831246,13.0391109 14.8442674,10.9633166 14.8442674,8.40176229 C14.8442674,5.840208 16.1831246,3.76441371 17.8350103,3.76441371 C19.486896,3.76441371 20.8249989,5.840208 20.8249989,8.40176229 Z" id="Stroke-1" stroke="#181212" stroke-width="0.789704348"></path>
                <path d="M4.74332571,13.039488 C2.17045714,7.912608 4.74332571,3.93525943 4.74332571,3.93525943 L6.13196571,3.93525943 C6.13196571,3.93525943 3.55909714,7.912608 6.13196571,13.039488 L4.74332571,13.039488 Z" id="Stroke-7" fill="#FF79A4"></path>
                <path d="M10.7341646,13.039488 C8.161296,7.912608 10.7341646,3.93525943 10.7341646,3.93525943 L12.1228046,3.93525943 C12.1228046,3.93525943 9.54918171,7.912608 12.1228046,13.039488 L10.7341646,13.039488 Z" id="Stroke-9" fill="#FF79A4"></path>
                <path d="M17.8350857,13.039488 L3.14084571,13.039488 L2.95001143,13.039488 C1.32075429,13.039488 1.64805312e-13,10.9636937 1.64805312e-13,8.40213943 C1.64805312e-13,5.84058514 1.32075429,3.76403657 2.95001143,3.76403657 L3.08125714,3.76403657 L17.8350857,3.76403657" id="Stroke-3" stroke="#181212" stroke-width="0.789704348"></path>
                <path d="M5.66133205,3.70916803 C5.66133205,3.70916803 5.41887372,-0.00601649217 8.80124277,-2.84724625e-14 C8.80124277,-2.84724625e-14 11.9411535,-0.00902839693 11.9411535,3.54050136" id="Stroke-19" stroke="#181212" stroke-width="0.695054945"></path>
            </g>
        </g>
        <g id="badge/two-" transform="translate(11.000000, 12.000000)">
            <g id="two-">
                <path d="M12,6 C12,9.30888031 9.31573865,12 5.99806888,12 C2.68426135,12 0,9.30888031 0,6 C0,2.68725869 2.68426135,0 5.99806888,0 C9.31573865,0 12,2.68725869 12,6 Z" id="Stroke-27" stroke="#181212" stroke-width="1.14545455" fill="#B1E8ED"></path>
                <path d="M4.19388748,3.96777778 C4.08801446,3.96412698 3.99309383,3.87650794 4.00039542,3.76333333 C4.02960177,3.29968254 4.21214145,2.90539683 4.54801446,2.56952381 C4.927697,2.18984127 5.4461097,2 6.09960177,2 C6.70198272,2 7.16928431,2.16793651 7.5161097,2.50015873 C7.8629351,2.82873016 8.0345224,3.2631746 8.0345224,3.7852381 C8.0345224,4.14301587 7.93595097,4.48984127 7.74245891,4.82206349 C7.54531605,5.15793651 7.24960177,5.58142857 6.85166526,6.09619048 L5.157697,8.07857143 L5.16499859,8.10412698 L8.02722081,8.10412698 C8.13309383,8.10412698 8.22436367,8.18809524 8.22436367,8.30126984 L8.22436367,8.6152381 C8.22436367,8.7247619 8.13309383,8.81238095 8.02722081,8.81238095 L4.25230018,8.81238095 C4.14277637,8.81238095 4.05515732,8.7247619 4.05515732,8.6152381 L4.05515732,8.26111111 C4.05515732,8.21365079 4.0697605,8.16984127 4.10261764,8.13698413 L6.16166526,5.67634921 C6.537697,5.22 6.79325256,4.85857143 6.92103034,4.5884127 C7.0597605,4.32190476 7.12547478,4.04809524 7.12547478,3.77428571 C7.12547478,3.46761905 7.03055415,3.21571429 6.85531605,3.01126984 C6.67277637,2.81777778 6.41722081,2.71555556 6.09960177,2.71555556 C5.70531605,2.71555556 5.39864939,2.83603175 5.19420494,3.08063492 C5.02261764,3.28507937 4.92039542,3.52603175 4.89118907,3.81079365 C4.88023669,3.91301587 4.78896685,3.98603175 4.68674462,3.98238095 L4.19388748,3.96777778 Z" id="Fill-29" fill="#181212"></path>
            </g>
        </g>
    </g>
</svg>