<?xml version="1.0" encoding="UTF-8"?>
<svg width="25px" height="25px" viewBox="0 0 25 25" version="1.1" xmlns="http://www.w3.org/2000/svg" xmlns:xlink="http://www.w3.org/1999/xlink">
    <!-- Generator: Sketch 64 (93537) - https://sketch.com -->
    <title>Reservamos/Atoms/Icons/Amenities/web-checkin</title>
    <desc>Created with Sketch.</desc>
    <g id="Reservamos/Atoms/Icons/Amenities/web-checkin" stroke="none" stroke-width="1" fill="none" fill-rule="evenodd">
        <g id="web-checkin" transform="translate(1.000000, 4.000000)">
            <g id="computer" transform="translate(0.000000, 0.000000)">
                <path d="M21.3133333,13.3150833 L1.37425,13.3150833 C0.61525,13.3150833 1.0658141e-14,12.70175 1.0658141e-14,11.9408333 L1.0658141e-14,1.37425 C1.0658141e-14,0.61525 0.61525,-2.39808173e-14 1.37425,-2.39808173e-14 L21.3133333,-2.39808173e-14 C22.0723333,-2.39808173e-14 22.6875833,0.61525 22.6875833,1.37425 L22.6875833,11.9408333 C22.6875833,12.70175 22.0723333,13.3150833 21.3133333,13.3150833 Z" id="Stroke-1" stroke="#181212" stroke-width="0.86"></path>
                <path d="M19.518375,10.4945167 L3.16920833,10.4945167 C2.60570833,10.4945167 2.147625,10.03835 2.147625,9.47485 L2.147625,2.45793333 C2.147625,1.89443333 2.60570833,1.43635 3.16920833,1.43635 L19.518375,1.43635 C20.081875,1.43635 20.5380417,1.89443333 20.5380417,2.45793333 L20.5380417,9.47485 C20.5380417,10.03835 20.081875,10.4945167 19.518375,10.4945167 Z" id="Stroke-3" stroke="#181212" stroke-width="0.86"></path>
                <polyline id="Stroke-5" stroke="#181212" stroke-width="0.86" points="7.12175833 16.697425 8.285175 13.3145083 14.052425 13.3145083 15.5665917 16.697425"></polyline>
                <path d="M17.6429167,17.0269 L5.04658333,17.0269 C4.90858333,17.0269 4.79933333,16.9157333 4.79933333,16.77965 L4.79933333,16.6148167 C4.79933333,16.48065 4.90858333,16.3675667 5.04658333,16.3675667 L17.6429167,16.3675667 C17.7770833,16.3675667 17.88825,16.48065 17.88825,16.6148167 L17.88825,16.77965 C17.88825,16.9157333 17.7770833,17.0269 17.6429167,17.0269" id="Fill-7" fill="#181212"></path>
                <path d="M11.9115083,11.907675 C11.9115083,12.2200917 11.6565917,12.4750083 11.344175,12.4750083 C11.0298417,12.4750083 10.774925,12.2200917 10.774925,11.907675 C10.774925,11.5933417 11.0298417,11.338425 11.344175,11.338425 C11.6565917,11.338425 11.9115083,11.5933417 11.9115083,11.907675" id="Fill-9" fill="#181212"></path>
            </g>
            <g id="approved" transform="translate(7.000000, 2.000000)">
                <path d="M7.8747619,3.93628571 C7.8747619,6.11142857 6.11142857,7.8747619 3.93847619,7.8747619 C1.76333333,7.8747619 -2.85232155e-13,6.11142857 -2.85232155e-13,3.93628571 C-2.85232155e-13,1.76333333 1.76333333,-2.53765263e-14 3.93847619,-2.53765263e-14 C6.11142857,-2.53765263e-14 7.8747619,1.76333333 7.8747619,3.93628571" id="Fill-11" fill="#FF79A4"></path>
                <path d="M3.0318381,5.4464 L1.91469524,3.94373333 C1.85117143,3.88020952 1.85117143,3.77287619 1.91469524,3.70935238 C1.9826,3.64582857 2.08555238,3.64582857 2.15126667,3.70935238 L3.0318381,4.9776381 C3.0953619,5.0411619 3.20050476,5.0411619 3.26621905,4.9776381 L5.72393333,2.42792381 C5.7918381,2.3644 5.89698095,2.3644 5.96050476,2.42792381 C6.02402857,2.49144762 6.02402857,2.59659048 5.96050476,2.66230476 L3.26621905,5.4464 C3.20050476,5.50992381 3.0953619,5.50992381 3.0318381,5.4464 Z" id="Stroke-15" stroke="#FFFFFF" stroke-width="1.01098901"></path>
            </g>
        </g>
    </g>
</svg>