<?xml version="1.0" encoding="UTF-8"?>
<svg width="25px" height="25px" viewBox="0 0 25 25" version="1.1" xmlns="http://www.w3.org/2000/svg" xmlns:xlink="http://www.w3.org/1999/xlink">
    <!-- Generator: Sketch 64 (93537) - https://sketch.com -->
    <title>Reservamos/Atoms/Icons/Amenities/check</title>
    <desc>Created with Sketch.</desc>
    <g id="Reservamos/Atoms/Icons/Amenities/check" stroke="none" stroke-width="1" fill="none" fill-rule="evenodd">
        <g id="Group-5" transform="translate(5.000000, 7.000000)">
            <path d="M4.81286667,10.5864667 L1.0802,5.5558 C0.8602,5.34313333 0.8602,4.99113333 1.0802,4.77113333 C1.3002,4.55846667 1.64486667,4.55846667 1.86486667,4.77113333 L4.81286667,9.01713333 C5.03286667,9.2298 5.38486667,9.2298 5.59753333,9.01713333 L13.8328667,0.481133333 C14.0528667,0.261133333 14.4048667,0.261133333 14.6175333,0.481133333 C14.8375333,0.6938 14.8375333,1.0458 14.6175333,1.2658 L5.59753333,10.5864667 C5.38486667,10.8064667 5.03286667,10.8064667 4.81286667,10.5864667" id="Fill-1"></path>
            <path d="M4.81286667,10.5864667 L1.0802,5.5558 C0.8602,5.34313333 0.8602,4.99113333 1.0802,4.77113333 C1.3002,4.55846667 1.64486667,4.55846667 1.86486667,4.77113333 L4.81286667,9.01713333 C5.03286667,9.2298 5.38486667,9.2298 5.59753333,9.01713333 L13.8328667,0.481133333 C14.0528667,0.261133333 14.4048667,0.261133333 14.6175333,0.481133333 C14.8375333,0.6938 14.8375333,1.0458 14.6175333,1.2658 L5.59753333,10.5864667 C5.38486667,10.8064667 5.03286667,10.8064667 4.81286667,10.5864667 Z" id="Stroke-3" stroke="#181212" stroke-width="1.83333333"></path>
        </g>
    </g>
</svg>