<?xml version="1.0" encoding="UTF-8"?>
<svg width="25px" height="25px" viewBox="0 0 25 25" version="1.1" xmlns="http://www.w3.org/2000/svg" xmlns:xlink="http://www.w3.org/1999/xlink">
    <!-- Generator: Sketch 64 (93537) - https://sketch.com -->
    <title>Reservamos/Atoms/Icons/Amenities/wifi</title>
    <desc>Created with Sketch.</desc>
    <g id="Reservamos/Atoms/Icons/Amenities/wifi" stroke="none" stroke-width="1" fill="none" fill-rule="evenodd">
        <g id="wifi" transform="translate(1.000000, 5.000000)" stroke="#181212" stroke-width="0.86">
            <path d="M13.615,13.2640278 C13.615,14.4390278 12.6622222,15.3918056 11.4872222,15.3918056 C10.315,15.3918056 9.36222222,14.4390278 9.36222222,13.2640278 C9.36222222,12.0890278 10.315,11.13625 11.4872222,11.13625 C12.6622222,11.13625 13.615,12.0890278 13.615,13.2640278 Z" id="Stroke-3" fill="#FF79A4"></path>
            <path d="M21.2402778,7.15791667 C20.8847222,7.15791667 20.5291667,7.02180556 20.2569444,6.75236111 C15.4236111,1.91625 7.55694444,1.91625 2.71805556,6.75236111 C2.17638889,7.29402778 1.29583333,7.29402778 0.754166667,6.75236111 C0.2125,6.20791667 0.2125,5.33013889 0.754166667,4.78569444 C6.67638889,-1.13652778 16.3069444,-1.12541667 22.2236111,4.78569444 C22.7652778,5.33013889 22.7652778,6.20791667 22.2236111,6.75236111 C21.9513889,7.02180556 21.5958333,7.15791667 21.2402778,7.15791667 Z" id="Stroke-5"></path>
            <path d="M18.0880556,11.0206944 C17.7325,11.0206944 17.3769444,10.8845833 17.1047222,10.6151389 C14.0075,7.51513889 8.96861111,7.51513889 5.87138889,10.6151389 C5.32694444,11.1568056 4.44916667,11.1568056 3.9075,10.6151389 C3.36305556,10.0706944 3.36305556,9.19291667 3.9075,8.64847222 C8.08805556,4.46791667 14.8880556,4.46791667 19.0713889,8.64847222 C19.6130556,9.19291667 19.6130556,10.0706944 19.0713889,10.6151389 C18.7991667,10.8845833 18.4436111,11.0206944 18.0880556,11.0206944 Z" id="Stroke-7"></path>
        </g>
    </g>
</svg>