<?xml version="1.0" encoding="UTF-8"?>
<svg width="145px" height="27px" viewBox="0 0 145 27" version="1.1" xmlns="http://www.w3.org/2000/svg" xmlns:xlink="http://www.w3.org/1999/xlink">
    <!-- Generator: Sketch 62 (91390) - https://sketch.com -->
    <title>logo/reservamos/gray-splash</title>
    <desc>Created with Sketch.</desc>
    <g id="UI" stroke="none" stroke-width="1" fill="none" fill-rule="evenodd">
        <g id="Componentes" transform="translate(-225.000000, -107.000000)" fill="#E2E2E2">
            <g id="logo/reservamos/gray-splash" transform="translate(225.000000, 107.000000)">
                <g id="Group">
                    <path d="M40.6644493,9.93716243 C40.6938104,9.90836388 40.7297945,9.87624242 40.7825563,9.83614597 C41.4031149,9.36495733 40.7406117,9.39021144 40.229109,9.39021144 L40.2271221,9.3882177 L38.784671,9.3882177 C38.6380858,9.37979966 38.483774,9.37426148 38.3129052,9.37426148 C38.2018625,9.37426148 38.100754,9.37603369 38.0150988,9.37736286 L37.8636569,9.37913508 C37.715968,9.37913508 37.5733565,9.38245799 37.4338356,9.3882177 L37.2159447,9.3882177 L37.2159447,9.40128781 C33.3442417,9.65316439 32.7755619,12.1803482 32.6980749,14.1211492 L32.7232416,21.1437873 C32.7141904,21.6829848 32.8364919,22.0744236 33.0969896,22.3400349 C33.3371774,22.5850441 33.6857587,22.7090994 34.1336824,22.7090994 L34.1354485,22.7090994 C34.5809438,22.7088779 34.9319534,22.5828288 35.1785433,22.3342752 C35.4476507,22.0631257 35.5776788,21.6692501 35.5759127,21.1311602 L35.575692,14.544488 C35.6297784,12.7689464 36.2273779,12.1043644 37.7802093,12.0921804 C37.8069214,12.0919588 37.8265691,12.0915158 37.849749,12.0912942 L38.5694292,12.0912942 C38.8012281,12.0910727 39.0663618,11.9953729 39.2142715,11.7315338 C39.5489449,11.0277415 40.0357225,10.424301 40.6644493,9.93716243" id="Fill-1"></path>
                    <path d="M43.6567957,12.5190414 C44.7791437,11.9510453 46.0262215,11.9820591 46.9931538,12.6023357 C47.6503587,13.0239022 47.9068827,13.6771863 47.7576484,14.5464595 L42.6805915,14.5464595 C42.6446074,13.4944262 42.9455044,12.8794663 43.6567957,12.5190414 M62.0611825,10.0505623 C62.0949589,10.0224283 62.1293976,9.99783877 62.1633947,9.97125549 C62.1907691,9.93470348 62.240661,9.88729663 62.3243294,9.82349676 C62.944888,9.35230812 62.2826056,9.37756223 61.7711028,9.37756223 L61.7631554,9.37025183 C60.4772237,9.371581 59.0182156,9.3675935 57.3486016,9.37180252 C57.0929606,9.36006157 56.8671223,9.35385881 56.646803,9.35385881 C56.1306642,9.35385881 55.6418998,9.38509416 54.7791666,9.47304051 C53.3616615,9.61791939 52.2900885,10.5237447 51.8397365,11.9585772 C51.601094,12.7186375 51.5474492,13.4355 51.6695299,14.0801445 C51.6852039,14.1727429 51.7041893,14.2606893 51.7269277,14.343762 C51.7278108,14.3470849 51.7286938,14.3506294 51.7295768,14.3539523 C51.7596003,14.461393 51.7927144,14.5641817 51.830906,14.6585524 L51.8313476,14.6527927 C51.8810187,14.7806139 51.9368712,14.9057769 52.0033202,15.0256232 C52.474203,15.8773958 53.351948,16.4905834 54.5376543,16.7973988 C56.2609131,17.2621631 57.3342521,17.7783218 57.3569905,18.9098835 C57.3088647,19.5354767 56.9867746,19.9105224 56.3728388,20.0558444 C55.9403684,20.1584115 55.4262165,20.1615129 54.9789551,20.1641712 L45.4114026,20.1023651 L45.4107403,20.1023651 C44.679139,20.1118908 44.1100177,19.9900507 43.6830663,19.7248825 C42.9543349,19.2716376 42.6326864,18.4395809 42.7249644,17.2497576 L42.7443913,17.2497576 C42.9965002,17.2499791 43.254128,17.2502007 43.5108728,17.2495361 C44.005377,17.2482069 44.4744938,17.2493146 44.9345593,17.2506437 C46.0052492,17.2537451 47.0161129,17.2564034 48.1625238,17.2262757 C49.7586244,17.1841855 50.6518226,16.296747 50.7463082,14.6594385 C50.8597793,12.6955987 49.7367691,10.825908 47.951918,10.0071429 C46.3132105,9.25505762 44.9003413,9.19701746 43.0764156,9.80643915 C41.056675,10.4807684 39.9416122,11.9302217 39.8519833,13.9981794 C39.7824436,15.5982713 39.7890664,17.0444018 39.872514,18.4187574 C39.9784792,20.166608 40.8983895,21.4776068 42.5326817,22.2099762 C43.2951895,22.5515713 44.0859547,22.7460723 44.9416236,22.8054417 L44.9416236,22.8180687 L55.5842812,22.8260437 C58.336727,22.7855042 60.0836072,21.4339659 60.2814089,19.0179888 C60.3037057,18.7457317 60.2946545,18.3937248 60.2242318,18.0301984 C59.9447487,16.6658116 58.8537488,15.2608852 57.1141536,14.7064023 C57.1028948,14.7013072 57.0925191,14.6951044 57.0808187,14.6911169 C56.7211994,14.5677262 56.3799032,14.4722479 56.0790062,14.387846 C55.3173814,14.1745151 54.8778467,14.0338453 54.6579689,13.7511764 C54.4140282,13.476704 54.419768,13.1585908 54.4928398,12.912917 C54.5188896,12.7724686 54.5782743,12.6484133 54.6780581,12.5400865 C54.9414258,12.2534301 55.4348262,12.1101019 55.7820829,12.0979179 C56.2834307,12.0806388 56.5922751,12.0777589 57.039978,12.0751006 L58.057023,12.0719992 C58.1080188,12.074436 58.1607806,12.0799742 58.2104518,12.0799742 C58.2645382,12.0799742 58.3137678,12.0746575 58.3647636,12.0711131 L60.2953168,12.0653534 C60.477003,12.0190542 60.6533908,11.9074044 60.7569277,11.6949597 C60.7778999,11.6519834 60.7955608,11.6296091 60.8110141,11.6205265 C60.8591399,11.5254913 60.907928,11.4308991 60.9617937,11.3396298 C61.2492243,10.8524912 61.6165702,10.4205129 62.0611825,10.0505623" id="Fill-3"></path>
                    <path d="M131.895331,17.9080039 C131.829765,19.0501989 131.225543,19.7909863 130.193486,19.9936838 C129.879122,20.0552684 129.562993,20.088276 129.262317,20.0920419 C128.95281,20.088276 128.636681,20.0552684 128.322096,19.9936838 C127.29004,19.7907648 126.686038,19.0501989 126.620472,17.9080039 C126.603474,17.6113788 126.588683,16.8965101 126.583164,16.0921444 C126.588683,15.282462 126.603474,14.5673717 126.620472,14.2705251 C126.686038,13.1283302 127.29004,12.3879858 128.322096,12.1850668 C128.635135,12.1237037 128.94994,12.0904746 129.257681,12.0864871 C129.565863,12.0904746 129.880668,12.1237037 130.193486,12.1850668 C131.225543,12.3877643 131.829765,13.1283302 131.895331,14.2707466 C131.915862,14.6269626 131.928003,15.4452846 131.932419,16.0866062 C131.928003,16.7336875 131.915862,17.551788 131.895331,17.9080039 L131.895331,17.9080039 Z M105.947989,22.3447534 L105.947989,22.3440888 L105.94821,22.3440888 L105.947989,22.3447534 Z M134.889289,17.9536386 C134.90121,17.7925882 134.911144,17.6361899 134.919754,17.4824499 C134.926597,17.4560882 134.931013,17.4286188 134.931896,17.4002633 C134.951764,16.9414802 134.961257,16.5126033 134.960595,16.0899291 C134.961257,15.6661473 134.951764,15.2370489 134.931896,14.7782657 C134.931013,14.7507964 134.926818,14.7239915 134.919754,14.6982944 C134.911144,14.5436683 134.901431,14.3868269 134.889289,14.2248905 C134.83167,13.4495448 134.591041,12.6748637 134.153493,11.8569848 C133.31681,10.2914511 131.490897,9.3570488 129.24576,9.3570488 C127.024906,9.3570488 125.198993,10.2914511 124.36231,11.8567633 C123.924541,12.6748637 123.683912,13.4495448 123.626514,14.2248905 C123.614372,14.3861624 123.604659,14.5425607 123.596049,14.6967437 C123.588985,14.7228839 123.58479,14.7501318 123.583907,14.7782657 C123.563818,15.2428086 123.554546,15.6716855 123.555208,16.0888215 C123.554546,16.5068435 123.563818,16.935942 123.583907,17.4002633 C123.58479,17.4277327 123.588985,17.4545375 123.595828,17.4800131 C123.604438,17.6346392 123.614372,17.7917021 123.626514,17.9536386 C123.678834,18.658317 123.883921,19.3625524 124.248839,20.0989093 C124.133602,20.0982447 124.039999,20.0975801 123.974654,20.0969155 C123.70069,20.0949218 123.190291,20.0696677 122.972841,20.0213747 C122.600859,19.938745 122.308793,19.7843405 122.086045,19.5486354 C121.79155,19.2371679 121.618032,18.7819293 121.543636,18.1570007 C121.52443,17.9950642 121.511184,17.8227159 121.504782,17.6375191 C121.505003,17.2019963 121.505665,16.7682458 121.506548,16.3391474 C121.507873,15.6322536 121.508977,14.9255814 121.508756,14.2189092 C121.506327,11.4267787 119.848193,9.66785165 116.959317,9.39315776 C115.610027,9.26445038 114.189873,9.69465646 113.111898,10.5464291 C113.090705,10.5260485 113.067966,10.5058896 113.043683,10.4879458 C112.165496,9.72744251 110.990828,9.32537039 109.646836,9.32537039 C108.698448,9.32537039 107.706569,9.53870122 106.85377,9.92615253 C104.711508,10.8993221 104.467567,12.9143347 104.469775,14.3451798 L104.471541,15.270278 C104.475514,17.1302215 104.479488,19.0537433 104.465359,20.9444791 C104.462269,21.4006039 104.506421,21.972809 104.880169,22.3505131 C105.129849,22.6028328 105.489027,22.7308755 105.947989,22.7308755 C105.949093,22.7308755 105.968961,22.730654 105.970286,22.730654 C107.447617,22.718027 107.44276,21.4063636 107.440994,20.9125792 C107.432164,18.5872067 107.423333,16.1827491 107.447176,13.791583 C107.457993,12.7468601 108.088927,12.1959216 109.322759,12.1533884 C109.38104,12.1516161 109.437776,12.1505085 109.49429,12.1505085 C110.91599,12.1505085 111.561274,12.7572719 111.586661,14.1181143 C111.623087,16.1038853 111.610945,18.1259868 111.599024,20.0816301 L111.594167,20.9207757 C111.591297,21.4196553 111.619776,21.9838854 111.993524,22.3611464 C112.234594,22.604605 112.584279,22.7279957 113.054279,22.7279957 L113.054721,22.7279957 C113.519864,22.7242297 113.88147,22.5939717 114.129164,22.3407659 C114.494081,21.9681569 114.538454,21.4183261 114.533818,20.9294153 C114.512846,18.7221169 114.512184,16.3932 114.532273,13.8097482 C114.542428,12.5038446 115.54402,12.1888327 116.38269,12.1547175 C116.442295,12.1520592 116.501018,12.1509516 116.558857,12.1509516 C117.908368,12.1509516 118.598687,12.8066725 118.611049,14.0997275 C118.623412,15.4087325 118.627827,16.7522958 118.624957,18.1570007 L118.632684,18.1570007 C118.795164,21.2583834 120.401861,22.321493 122.086045,22.661316 C122.663776,22.7778393 123.517679,22.8099608 124.058102,22.8099608 C124.104241,22.8099608 124.264292,22.8110684 124.500948,22.8126191 C124.792352,22.8146129 125.201201,22.8172712 125.652436,22.819708 C126.238335,22.8230309 126.897306,22.8256892 127.481881,22.8256892 L127.482543,22.8256892 C128.214144,22.8256892 128.688118,22.8214802 128.925877,22.8128407 C129.035595,22.8174927 129.145534,22.8217018 129.257239,22.8217018 L129.269823,22.8217018 C131.490897,22.8217018 133.31681,21.8870779 134.153493,20.3217658 C134.591041,19.5036653 134.83167,18.7292058 134.889289,17.9536386 L134.889289,17.9536386 Z" id="Fill-5"></path>
                    <path d="M65.2012179,12.5190414 C66.3233451,11.9510453 67.5704229,11.9820591 68.537576,12.6023357 C69.1947809,13.0239022 69.4510842,13.6771863 69.3018499,14.5464595 L64.2247929,14.5464595 C64.1888089,13.4944262 64.4897059,12.8794663 65.2012179,12.5190414 M81.6342107,12.0981394 C81.9417305,12.0981394 82.5508096,12.1256088 82.7075497,11.1486733 C82.7801801,10.6956499 82.7130688,10.3536117 82.5455113,10.0507838 C82.3627214,9.72070808 82.1150277,9.53484664 81.7609274,9.46329331 C81.4666533,9.40392399 81.0754651,9.36604281 80.746973,9.37756223 L78.4680593,9.37933445 C74.0080287,9.37933445 73.3841587,12.0764298 73.302698,14.1213486 L73.3108661,15.4166189 L73.3108661,17.4898932 L73.3108661,17.6194867 C73.3108661,19.5454454 72.9616225,20.0463187 71.4021682,20.0968269 C71.3085656,20.0999283 71.2120931,20.1019221 71.1096601,20.1019221 C70.8621873,20.1019221 70.779402,20.1010359 70.7109661,20.1003714 L70.5303838,20.0997068 L69.9848838,20.101479 C69.942277,20.1017005 69.8983456,20.1019221 69.8537519,20.1023651 L66.9558248,20.1023651 L66.9553833,20.1023651 C66.2213536,20.1112262 65.6539984,19.9900507 65.2274885,19.7248825 C64.4985363,19.2716376 64.1768878,18.4395809 64.2693866,17.2497576 L64.288372,17.2497576 C64.5407016,17.2499791 64.797888,17.2502007 65.0552951,17.2495361 C65.5497993,17.24865 66.018916,17.2493146 66.4787607,17.2506437 C67.5494506,17.2537451 68.5600936,17.2564034 69.706946,17.2262757 C71.3026051,17.1841855 72.196024,16.296747 72.2905097,14.6594385 C72.4039807,12.6955987 71.2809705,10.825908 69.4961194,10.0069214 C67.8706576,9.26148191 66.4123117,9.201448 64.619734,9.80666068 C62.6002141,10.4880788 61.4855928,11.9375321 61.3961847,13.9981794 C61.3266451,15.5978283 61.3332679,17.0439587 61.4167155,18.4187574 C61.5229014,20.166608 62.4425909,21.4776068 64.0768832,22.2099762 C64.839391,22.5517929 65.6303769,22.7460723 66.4858251,22.8054417 L66.4858251,22.8180687 L66.6926779,22.8180687 C66.7052613,22.8185118 66.7174032,22.8198409 66.7302073,22.820284 C66.7348433,22.8205055 66.7394792,22.8205055 66.7441152,22.8205055 C66.7487512,22.8205055 66.7525041,22.8182902 66.7571401,22.8180687 L70.4789465,22.8180687 C70.5113983,22.8182902 70.5407595,22.8196194 70.5740944,22.8196194 C70.6462832,22.8196194 70.7122907,22.8189548 70.774766,22.8180687 L71.0003835,22.8180687 L71.0003835,22.8151889 L71.0231219,22.8147458 C71.1507216,22.8147458 71.2769968,22.8136382 71.4021682,22.8118659 C74.0552715,22.7737632 76.1887039,22.2553893 76.1887039,18.0304199 L76.1970929,17.4898932 L76.1970929,14.5446873 C76.2511793,12.7689242 76.848558,12.1043422 78.4016103,12.0921582 L78.4016103,12.0921582 L81.1805473,12.103013 C81.2849671,12.1070005 81.5342061,12.0981394 81.6342107,12.0981394" id="Fill-7"></path>
                    <path d="M141.48869,14.7066238 C141.477431,14.7013072 141.466835,14.6951044 141.454693,14.6911169 C141.095074,14.5677262 140.753778,14.4722479 140.452881,14.387846 C139.691256,14.1747367 139.251942,14.0340668 139.031843,13.7516195 C138.78724,13.4764825 138.793422,13.1577047 138.866935,12.9118093 C138.892985,12.7718041 138.952369,12.6479703 139.051712,12.5398649 C139.315079,12.2534301 139.80848,12.1101019 140.155737,12.0979179 L140.304971,12.0928228 L141.718723,12.0970318 L142.51876,12.103013 C142.62318,12.106779 142.872419,12.0981394 142.972424,12.0981394 C143.279943,12.0981394 143.889023,12.1256088 144.045763,11.1484518 C144.118393,10.6956499 144.051282,10.3536117 143.883724,10.0507838 C143.700934,9.72070808 143.453241,9.53484664 143.09914,9.46329331 C142.804866,9.40392399 142.413678,9.36604281 142.085186,9.37734071 L141.142096,9.37933445 L141.141654,9.39284762 C140.521537,9.38420805 139.887071,9.37025183 139.182844,9.46772386 C137.77152,9.6633325 136.663963,10.5237447 136.21339,11.9585772 C136.040976,12.507965 135.966359,13.034314 135.982474,13.5280984 C136.020887,13.7381063 136.049144,13.9481142 136.064818,14.1587867 C136.065701,14.1691985 136.066143,14.1785026 136.066805,14.1889144 C136.133033,14.4846534 136.233259,14.7659931 136.376753,15.0256232 C136.847857,15.8773958 137.725381,16.4905834 138.911308,16.7973988 C140.634567,17.2621631 141.708127,17.7783218 141.730423,18.9098835 C141.682518,19.5354767 141.360649,19.9105224 140.746272,20.0558444 C140.313801,20.1584115 139.79987,20.1615129 139.350843,20.1641712 L136.023315,20.1411324 L136.023315,20.1431261 C135.77518,20.1364803 135.480243,20.2374968 135.332554,20.5403246 C135.322179,20.5618128 135.312465,20.5775412 135.303414,20.5899468 C135.277806,20.640455 135.253743,20.6905202 135.22681,20.7410284 C135.205175,20.7813464 135.18023,20.8192276 135.157712,20.8586594 C134.885072,21.3364939 134.536491,21.7618264 134.124551,22.1295618 C134.061855,22.1853866 133.991653,22.2341227 133.926308,22.2872892 C133.896285,22.3205183 133.852795,22.3603932 133.785242,22.4117876 C133.336215,22.7527181 133.559845,22.8333541 133.911076,22.8519624 L140.036746,22.8913943 L140.038954,22.8913943 L140.042486,22.8913943 C142.754312,22.8663617 144.479116,21.414693 144.655062,19.0179888 C144.817322,17.4105865 143.656341,15.3982321 141.48869,14.7066238" id="Fill-9"></path>
                    <path d="M5.59273215,14.4147837 C5.34989526,16.9262391 5.98392029,19.3331336 6.67600541,20.5063424 C6.93252947,20.940979 7.29700556,21.2152298 7.5654507,21.1775702 C7.80607997,21.1423473 8.16901073,20.7679661 8.40147186,19.8297979 C9.10481579,16.9887098 8.65556755,14.5971007 8.41405523,13.3122421 C8.29771428,12.6928517 7.85177746,11.325142 6.94489207,9.77489366 C6.35855138,10.9520899 5.77044459,12.5749992 5.59273215,14.4147837" id="Fill-11"></path>
                    <path d="M13.6080934,13.4998315 C13.586238,13.4982808 13.565045,13.4976162 13.5436312,13.4976162 C13.2818089,13.4976162 13.0473609,13.6088229 12.8458063,13.8290211 C12.6334344,14.0607387 12.5572719,14.3307805 12.6193057,14.6311716 C12.6884038,14.9692223 12.9352144,15.2944244 13.2188921,15.4215811 C13.5389952,15.5657954 14.4302066,15.7184278 15.3964766,15.6187405 C15.0757112,14.978748 14.7684121,14.395245 14.5529496,14.0842206 C14.3160733,13.7424039 13.9626352,13.523978 13.6080934,13.4998315" id="Fill-19"></path>
                    <path d="M6.89716359,6.79721183 C7.65415239,5.85638524 8.45198193,4.95587662 10.1619951,4.01416392 C12.1071186,2.94285773 14.7781035,2.80683995 17.1338421,3.65861255 C19.3242308,4.45123736 21.6386871,6.91019077 21.5437599,10.4369059 C21.4702466,13.1528311 20.2929292,15.1516722 17.9444758,16.5477375 C17.8802344,16.5838464 17.8157722,16.6184047 17.7506478,16.6514123 C17.9853165,17.1245947 18.1968054,17.5373001 18.3572985,17.8064558 C19.8152028,19.947296 21.2973909,21.6342266 24.590259,20.6464362 C25.8697887,18.5950931 26.6119865,16.1720271 26.6119865,13.5735115 C26.6119865,6.19930956 20.6545354,0.221394419 13.3058497,0.221394419 C9.68515179,0.221394419 6.40420471,1.67461374 4.00497629,4.02900625 C5.15491932,4.8730254 6.11125512,5.82736516 6.89716359,6.79721183" id="Fill-13"></path>
                    <path d="M16.9771461,18.722427 L16.9526416,18.6841028 C16.7378414,18.3274438 16.4638772,17.7866956 16.1662916,17.1832551 C14.6631313,17.4714622 13.1946305,17.2297758 12.5427238,16.9371382 C11.7685157,16.5891188 11.1768767,15.8339321 10.9987227,14.9668741 C10.8285161,14.1379188 11.0517053,13.3348822 11.6272287,12.7059661 C12.1859743,12.0956583 12.9306005,11.7899506 13.7198204,11.8433387 C14.5710741,11.9011573 15.3903174,12.38453 15.9113129,13.1363937 C16.2190535,13.5803345 16.6133323,14.3434962 17.0190906,15.1631473 C17.0522047,15.1456467 17.0850981,15.1279245 17.1177707,15.1095377 C18.9714992,14.0076608 19.8315833,12.5493463 19.8898641,10.3918916 C19.9627152,7.68970116 18.221354,5.81690907 16.5727123,5.22055748 C14.6507687,4.52540471 12.4994547,4.62088299 10.9581027,5.46955421 C9.38142907,6.33794136 8.7639611,7.11262245 7.98202633,8.09354549 L7.94273091,8.14294609 C7.93169287,8.15668078 7.92065483,8.17085853 7.90939603,8.18525781 C9.24698574,10.2288475 9.87703708,12.1379701 10.0399586,13.0048065 C10.3046508,14.4139419 10.7976096,17.0372686 10.0068444,20.2303636 C9.50041915,22.2766116 8.41008153,22.7314072 7.80519693,22.8204612 C7.70762065,22.834639 7.61026514,22.8417278 7.51268886,22.8417278 C6.65216325,22.8417278 5.80620784,22.2921185 5.25209822,21.3519565 C4.39996152,19.9071552 3.66571108,17.1522413 3.94585654,14.2542207 C4.18913495,11.7352334 5.10264316,9.58774737 5.90422564,8.21693622 C5.14171782,7.21275281 4.18273289,6.20923398 2.99636432,5.34461279 L2.90276174,5.27749001 C2.89856729,5.27438863 2.89503511,5.27195183 2.89084066,5.26885044 C1.08303043,7.54880978 -2.20760812e-05,10.4335387 -2.20760812e-05,13.5736887 C-2.20760812e-05,20.9478906 5.95720823,26.9258058 13.3058939,26.9258058 C17.1906218,26.9258058 20.6854861,25.2546036 23.1180494,22.5905158 C19.7267219,22.7633072 18.0471737,20.2954926 16.9771461,18.722427" id="Fill-16"></path>
                    <path d="M99.3081883,19.5395749 C98.9119226,19.884493 98.3068173,20.0586135 97.4824964,20.0685822 C97.4405519,20.0723482 97.3968412,20.075228 97.3482738,20.0761141 C96.4727365,20.091621 96.0323187,20.0136434 95.6281057,19.8368646 L95.5892518,19.7985404 C95.1073309,19.5276124 94.7022348,18.9434449 94.715922,18.0591077 C94.7271808,17.3624043 94.9483831,16.5124039 95.9402614,16.4198055 C96.9369965,16.3269855 97.9313031,16.3471445 98.9838906,16.3681896 C99.3322512,16.3752785 99.6861308,16.3823673 100.048178,16.3854687 C100.045088,16.6076606 100.042439,16.7995033 100.053918,16.9762821 C100.07776,18.2618052 99.8406633,19.0763613 99.3081883,19.5395749 M102.843673,13.3416831 C102.599732,11.2241033 100.9597,9.6645509 98.7629091,9.4611888 C97.7156198,9.36415983 96.6113743,9.32162658 95.4784298,9.33248142 C95.4665087,9.33248142 95.4552499,9.33513975 95.4433289,9.33624739 L92.5270786,9.33624739 C92.3676893,9.3639383 92.1793804,9.3801098 91.9511137,9.3801098 C91.8687699,9.3801098 91.7923867,9.38719867 91.712692,9.39030006 C90.5733455,9.43659927 89.699795,9.80167632 89.0492129,10.2961253 C88.1924402,10.9469726 87.7155969,11.8131445 87.5136008,12.4440544 C87.5136008,12.4440544 87.5071987,12.4449405 87.4981475,12.4462696 C86.9612572,14.2142793 86.6870723,15.1440295 86.3983172,16.1225158 C86.3956681,16.1311553 86.3932397,16.1397949 86.3905906,16.1484345 C86.379111,16.1925184 85.7393462,18.6598899 85.698947,18.8103069 C85.6503796,18.9912948 85.6022537,19.1361736 85.4737709,19.2223478 C85.4735502,19.2227908 85.4735502,19.2230124 85.4733294,19.2234554 C85.4733294,19.2232339 85.4731086,19.2230124 85.4731086,19.2227908 C85.3945178,19.2752928 85.2861242,19.305642 85.1289426,19.3087434 C84.6973552,19.3169399 84.6567352,19.1370597 84.5233957,18.7602417 C84.4249363,18.4820034 83.472795,15.4603706 82.9804984,13.895723 C82.7186761,13.3653866 82.4164545,13.1914876 81.7934676,13.1361058 L81.7621195,13.1361058 L80.3684566,13.1361058 C80.2167939,13.1356627 80.1070758,13.1509481 80.0280434,13.1795251 C79.8642389,13.2384514 79.8350985,13.3563039 79.8609275,13.5202342 L80.0843374,14.3520693 C80.6971694,16.4891435 81.0232331,17.5888052 82.0495501,20.9254499 C82.4085072,22.0926775 83.3783094,22.8547315 85.153447,22.8547315 C86.9283639,22.8547315 87.6122808,22.1436287 88.030181,20.9939019 C88.1964139,20.5362264 88.7401478,18.693119 89.42848,16.3597715 C89.6565259,15.5864196 89.8969344,14.7716421 90.1377844,13.9593013 C90.4331624,13.09756 90.9607807,12.076319 92.7449695,12.076319 C92.8531423,12.076319 92.9456411,12.0705593 93.0279849,12.0612551 L95.4733523,12.0672364 C95.4901302,12.0694516 95.5064665,12.072553 95.5239066,12.072553 C96.1605807,12.072553 96.7736335,12.0780912 97.4019187,12.0836294 L97.8875925,12.0880599 C99.017667,12.0975856 99.6128382,12.5483937 99.9097615,13.6673283 C99.6649377,13.6653346 99.4221008,13.6626762 99.1808093,13.6600179 C97.9226935,13.6451756 96.7352211,13.6318839 95.5292048,13.7581545 C93.4600138,13.9748083 92.0561958,15.4656872 91.7745051,17.7465327 C91.5219547,19.7887932 92.7297371,21.7364615 94.6461616,22.3773401 C95.5567999,22.6819402 96.4292466,22.8254899 97.4058924,22.8254899 C97.6173813,22.8254899 97.8337269,22.8186225 98.0562537,22.8053309 C100.862565,22.6380777 102.56441,21.2360312 102.848529,18.8577138 C103.061784,17.0761909 103.060239,15.2202349 102.843673,13.3416831" id="Fill-23"></path>
                </g>
            </g>
        </g>
    </g>
</svg>