<?xml version="1.0" encoding="UTF-8"?>
<svg width="25px" height="25px" viewBox="0 0 25 25" version="1.1" xmlns="http://www.w3.org/2000/svg" xmlns:xlink="http://www.w3.org/1999/xlink">
    <!-- Generator: Sketch 64 (93537) - https://sketch.com -->
    <title>Reservamos/Atoms/Icons/Amenities/buyable-infant-travel</title>
    <desc>Created with Sketch.</desc>
    <g id="Reservamos/Atoms/Icons/Amenities/buyable-infant-travel" stroke="none" stroke-width="1" fill="none" fill-rule="evenodd">
        <g id="Reservamos/Atoms/Icons/Amenities/free-infant-travel" transform="translate(1.000000, 1.000000)">
            <g id="Group-2" transform="translate(0.920000, 1.840000)">
                <g id="Group">
                    <path d="M8.26938239,7.95875274 L16.7046018,7.95875274 C16.7046018,11.644588 12.8247753,14.6769788 8.26938239,14.6769788 C3.97604798,14.6769788 0.390611756,11.9798186 0.00262909915,8.57135693 C-0.0314044673,8.2837733 0.269792596,8.03532826 0.627145043,8.0319249 L8.26938239,7.95875274 Z" id="Stroke-5" stroke="#181212" stroke-width="0.692509091"></path>
                    <path d="M16.7046018,7.95875274 C16.7046018,3.93938854 14.7102348,0.556452038 12.1372972,0.00851161824 C11.810575,-0.061257193 11.5178863,0.308007003 11.5110796,0.745338332 L11.4038739,7.95875274 L16.7046018,7.95875274" id="Stroke-7" stroke="#181212" stroke-width="0.692509091"></path>
                    <line x1="6.05583923" y1="14.2934205" x2="6.05583923" y2="15.7432504" id="Stroke-9" stroke="#181212" stroke-width="0.692509091"></line>
                    <line x1="11.4035335" y1="14.2934205" x2="11.4035335" y2="15.7432504" id="Stroke-11" stroke="#181212" stroke-width="0.692509091"></line>
                    <path d="M7.59126357,17.2747609 C7.59126357,18.2481209 6.80168483,19.0376996 5.82832483,19.0376996 C4.85496483,19.0376996 4.06538609,18.2481209 4.06538609,17.2747609 C4.06538609,16.3014009 4.85496483,15.5118221 5.82832483,15.5118221 C6.80168483,15.5118221 7.59126357,16.3014009 7.59126357,17.2747609 Z" id="Stroke-13" stroke="#181212" stroke-width="0.692509091" fill="#FF79A4"></path>
                    <path d="M13.3327262,17.2747609 C13.3327262,18.2481209 12.5431475,19.0376996 11.5697875,19.0376996 C10.5964275,19.0376996 9.80684875,18.2481209 9.80684875,17.2747609 C9.80684875,16.3014009 10.5964275,15.5118221 11.5697875,15.5118221 C12.5431475,15.5118221 13.3327262,16.3014009 13.3327262,17.2747609 Z" id="Stroke-15" stroke="#181212" stroke-width="0.692509091" fill="#FF79A4"></path>
                    <path d="M16.8774923,8.27118088 L16.5439634,7.69090857 C16.5439634,7.69090857 16.6375557,7.47819878 16.7890051,7.13956479 C17.3335421,5.91946144 18.6080992,3.06574689 18.8412291,2.55354172 C19.1083926,1.97156773 19.2955772,1.88308046 19.2955772,1.88308046 L20.5667309,1.18709402 C20.6858484,1.12072857 20.8389995,1.16497221 20.9036633,1.28579137 C20.9700287,1.40490885 20.9257851,1.5580599 20.8066676,1.62442535 L19.6529297,2.27106311 C19.6529297,2.27106311 19.5338122,2.34593696 19.3262074,2.83602032 L16.8774923,8.27118088 Z" id="Fill-17" fill="#181212"></path>
                </g>
            </g>
        </g>
        <g id="badge/money" transform="translate(13.000000, 13.000000)">
            <g id="Money">
                <path d="M10.7522338,5.37784722 C10.7522338,8.34362269 8.34362269,10.7556944 5.37438657,10.7556944 C2.40515046,10.7556944 -2.03009955e-13,8.34362269 -2.03009955e-13,5.37784722 C-2.03009955e-13,2.40861111 2.40515046,-1.18029043e-15 5.37438657,-1.18029043e-15 C8.34362269,-1.18029043e-15 10.7522338,2.40861111 10.7522338,5.37784722 Z" id="Stroke-27" stroke="#181212" stroke-width="0.991875" fill="#FFD274"></path>
                <path d="M3.85966088,6.69912269 C4.05345718,6.69566204 4.20918634,6.83754861 4.24379282,7.03134491 C4.28878125,7.28743287 4.3856794,7.48122917 4.54486921,7.6127338 C4.76289005,7.7926875 5.02589931,7.88958565 5.34081829,7.88958565 C5.70072569,7.88958565 5.98449884,7.7996088 6.18521644,7.63003704 C6.38939468,7.45700463 6.48975347,7.21821991 6.48975347,6.91368287 C6.48975347,6.66105556 6.39977662,6.44649537 6.22328356,6.27000231 C6.04679051,6.09004861 5.74917477,5.93431944 5.34081829,5.79243287 C4.77673264,5.62286111 4.35107292,5.39445833 4.06383912,5.11068519 C3.77314468,4.82345139 3.62779745,4.44624074 3.62779745,3.9686713 C3.62779745,3.50840509 3.76276273,3.13119444 4.02923264,2.8405 C4.26801736,2.57749074 4.58985764,2.41137963 4.99475347,2.33524537 C5.06742708,2.32140278 5.12279745,2.26257176 5.12279745,2.1864375 L5.12279745,1.71925 C5.12279745,1.53583565 5.26814468,1.39048843 5.45155903,1.39048843 L5.45501968,1.39048843 C5.63843403,1.39048843 5.78378125,1.53583565 5.78378125,1.71925 L5.78378125,2.18989815 C5.78378125,2.26603241 5.83915162,2.32486343 5.91182523,2.33870602 C6.32018171,2.41830093 6.63856134,2.60171528 6.87388542,2.89240972 C7.05037847,3.11735185 7.16804051,3.39074306 7.22341088,3.71604398 C7.26493866,3.95828935 7.08498495,4.18669213 6.83235764,4.18669213 L6.79082986,4.18669213 C6.60049421,4.18669213 6.44822569,4.04134491 6.41015856,3.85446991 C6.37209144,3.64683102 6.29249653,3.47033796 6.17483449,3.32153009 C5.99834144,3.10350926 5.75609606,2.99276852 5.44463773,2.99276852 C5.11587616,2.99276852 4.87017014,3.07582407 4.70405903,3.24885648 C4.53794792,3.42188889 4.45489236,3.65721296 4.45489236,3.9548287 C4.45489236,4.22821991 4.54140856,4.44970139 4.71098032,4.61235185 C4.88055208,4.78192361 5.18854977,4.94111343 5.62805208,5.09338194 C6.19905903,5.2767963 6.62471875,5.50865972 6.9015706,5.78205093 C7.17842245,6.05544213 7.31684838,6.43265278 7.31684838,6.90676157 C7.31684838,7.38433102 7.17150116,7.77192361 6.88426736,8.05223611 C6.6212581,8.31178472 6.27173264,8.47443519 5.82876968,8.5401875 C5.75263542,8.55056944 5.69726505,8.61632176 5.69726505,8.68899537 L5.69726505,9.03506019 C5.69726505,9.21847454 5.54845718,9.36382176 5.36850347,9.36382176 C5.18508912,9.36382176 5.0397419,9.21847454 5.0397419,9.03506019 L5.0397419,8.69245602 C5.0397419,8.61978241 4.98091088,8.55403009 4.90823727,8.54364815 C4.48603819,8.47789583 4.13651273,8.30832407 3.85620023,8.03839352 C3.63471875,7.81691204 3.49629282,7.52967824 3.43746181,7.16977083 C3.40285532,6.92752546 3.57588773,6.70950463 3.8181331,6.70258333 L3.85966088,6.69912269 Z" id="Fill-29" fill="#181212"></path>
                <polygon id="Fill-31" fill="#181212" points="5.69657292 8.6896875 5.03904977 8.69314815 5.12902662 1.71648148 5.77962847 1.71648148"></polygon>
            </g>
        </g>
    </g>
</svg>