<?xml version="1.0" encoding="UTF-8"?>
<svg width="25px" height="25px" viewBox="0 0 25 25" version="1.1" xmlns="http://www.w3.org/2000/svg" xmlns:xlink="http://www.w3.org/1999/xlink">
    <!-- Generator: Sketch 64 (93537) - https://sketch.com -->
    <title>Reservamos/Atoms/Icons/Amenities/buyable-pet-travel</title>
    <desc>Created with Sketch.</desc>
    <g id="Reservamos/Atoms/Icons/Amenities/buyable-pet-travel" stroke="none" stroke-width="1" fill="none" fill-rule="evenodd">
        <g id="Reservamos/Atoms/Icons/Amenities/free-pet-travel" transform="translate(0.000000, 1.000000)">
            <g id="free-pet-travel" transform="translate(0.920000, 1.840000)">
                <path d="M8.8963035,17.9505753 C7.36920981,18.3615496 6.24011221,18.40481 5.22132875,18.40481 C2.5305291,18.400484 1.04885888,15.2121892 2.87012359,13.2308608 C2.89824288,13.2027416 2.91338404,13.1854374 2.91338404,13.1854374 C2.91338404,13.1854374 5.14129692,11.4290633 6.08437461,10.0144468 C7.02961532,8.59766725 7.83425959,7.04461729 10.1313892,7.04461729 C12.4285188,7.04461729 13.2353261,8.59766725 14.1784038,10.0144468 C15.1258075,11.4290633 17.3515574,13.1854374 17.3515574,13.1854374 C19.2247346,15.1819069 17.7711837,18.4480704 15.0327975,18.3983209 C14.1546105,18.3810168 13.516519,18.3788537 12.0478269,18.01114 C11.6844391,17.922456 10.6872859,17.6585673 10.3130831,17.6650564 C9.97997764,17.6715455 9.21859381,17.8640544 8.8963035,17.9505753 Z" id="Stroke-1" stroke="#181212" stroke-width="0.727904"></path>
                <path d="M1.98465454,10.6602339 C1.38308262,10.4047937 1.18911784,9.27402331 1.5503421,8.1351179 C1.91156636,6.99295848 2.69164209,6.27707508 3.29180847,6.53088828 C3.89338039,6.7863285 4.08734517,7.91709887 3.72612091,9.05763129 C3.36489665,10.1965367 2.58482091,10.9156741 1.98465454,10.6602339 Z" id="Fill-28" fill="#FF79A4" transform="translate(2.638232, 8.595772) rotate(-23.000000) translate(-2.638232, -8.595772) "></path>
                <path d="M5.90390738,5.9248 C5.10181149,5.66935979 5.42227503,4.16684752 5.90390738,3.02794211 C6.38553973,1.88578268 7.68881412,1.02761184 8.48903596,1.28142505 C9.29113185,1.53686526 8.9706683,3.10086713 8.48903596,4.24139955 C8.00740361,5.38030496 6.70412922,6.18024021 5.90390738,5.9248 Z" id="Fill-28" fill="#FF79A4"></path>
                <path d="M12.5422072,5.97252463 C11.7401113,5.71708442 11.856647,4.62298926 12.3382793,3.48408384 C12.8199116,2.34192442 14.5028389,1.21781419 15.3030608,1.47162739 C16.1051567,1.72706761 15.4050402,3.55700887 14.9234079,4.69754129 C14.4417755,5.8364467 13.342429,6.22796485 12.5422072,5.97252463 Z" id="Fill-28" fill="#FF79A4"></path>
                <path d="M17.7096827,10.9619288 C17.1081107,10.7064885 16.914146,9.57571817 17.2753702,8.43681276 C17.6365945,7.29465334 18.4166702,6.57876994 19.0168366,6.83258314 C19.6184085,7.08802335 19.8123733,8.21879373 19.451149,9.35932615 C19.0899248,10.4982316 18.309849,11.217369 17.7096827,10.9619288 Z" id="Fill-28" fill="#FF79A4" transform="translate(18.363260, 8.897467) rotate(28.000000) translate(-18.363260, -8.897467) "></path>
                <path d="M19.8515037,9.16148558 C20.4376827,7.88962851 20.1326966,6.50096824 19.1744777,6.05971171 C18.2140959,5.61845518 16.963869,6.29548113 16.379853,7.5673382 C15.793674,8.84135829 16.0986601,10.2278555 17.056879,10.666949 C18.0150978,11.1082056 19.2653247,10.4333426 19.8515037,9.16148558 Z" id="Stroke-3" stroke="#181212" stroke-width="0.727904"></path>
                <path d="M0.298253011,9.16148558 C-0.287926011,7.88962851 0.0170601219,6.50096824 0.975278966,6.05971171 C1.93566083,5.61845518 3.18588768,6.29548113 3.76990368,7.5673382 C4.3560827,8.84135829 4.05109657,10.2278555 3.09287772,10.666949 C2.13465888,11.1082056 0.882269011,10.4333426 0.298253011,9.16148558 Z" id="Stroke-5" stroke="#181212" stroke-width="0.727904"></path>
                <path d="M4.24426484,3.20412099 C4.1144835,1.53643086 5.0294419,0.102347126 6.28832084,0.0050111256 C7.54503675,-0.0901618522 8.67197132,1.18169521 8.79958964,2.85154837 C8.92937097,4.52140153 8.01441257,5.95332224 6.75553364,6.05065824 C5.4966547,6.14799424 4.37404617,4.87397415 4.24426484,3.20412099 Z" id="Stroke-7" stroke="#181212" stroke-width="0.727904"></path>
                <path d="M11.006919,2.93263369 C11.0782987,1.26061752 12.1576468,-0.0544999956 13.4186888,0.0017385822 C14.6797307,0.0536511155 15.6444387,1.45312649 15.5730589,3.12730569 C15.5016792,4.79932187 14.4223311,6.11227636 13.1612891,6.0582008 C11.9002472,6.00628827 10.9355393,4.60464987 11.006919,2.93263369 Z" id="Stroke-9" stroke="#181212" stroke-width="0.727904"></path>
            </g>
        </g>
        <g id="badge/money" transform="translate(12.011622, 12.000000)">
            <g id="Money">
                <path d="M10.7522338,5.37784722 C10.7522338,8.34362269 8.34362269,10.7556944 5.37438657,10.7556944 C2.40515046,10.7556944 -2.03009955e-13,8.34362269 -2.03009955e-13,5.37784722 C-2.03009955e-13,2.40861111 2.40515046,-1.18029043e-15 5.37438657,-1.18029043e-15 C8.34362269,-1.18029043e-15 10.7522338,2.40861111 10.7522338,5.37784722 Z" id="Stroke-27" stroke="#181212" stroke-width="0.991875" fill="#FFD274"></path>
                <path d="M3.85966088,6.69912269 C4.05345718,6.69566204 4.20918634,6.83754861 4.24379282,7.03134491 C4.28878125,7.28743287 4.3856794,7.48122917 4.54486921,7.6127338 C4.76289005,7.7926875 5.02589931,7.88958565 5.34081829,7.88958565 C5.70072569,7.88958565 5.98449884,7.7996088 6.18521644,7.63003704 C6.38939468,7.45700463 6.48975347,7.21821991 6.48975347,6.91368287 C6.48975347,6.66105556 6.39977662,6.44649537 6.22328356,6.27000231 C6.04679051,6.09004861 5.74917477,5.93431944 5.34081829,5.79243287 C4.77673264,5.62286111 4.35107292,5.39445833 4.06383912,5.11068519 C3.77314468,4.82345139 3.62779745,4.44624074 3.62779745,3.9686713 C3.62779745,3.50840509 3.76276273,3.13119444 4.02923264,2.8405 C4.26801736,2.57749074 4.58985764,2.41137963 4.99475347,2.33524537 C5.06742708,2.32140278 5.12279745,2.26257176 5.12279745,2.1864375 L5.12279745,1.71925 C5.12279745,1.53583565 5.26814468,1.39048843 5.45155903,1.39048843 L5.45501968,1.39048843 C5.63843403,1.39048843 5.78378125,1.53583565 5.78378125,1.71925 L5.78378125,2.18989815 C5.78378125,2.26603241 5.83915162,2.32486343 5.91182523,2.33870602 C6.32018171,2.41830093 6.63856134,2.60171528 6.87388542,2.89240972 C7.05037847,3.11735185 7.16804051,3.39074306 7.22341088,3.71604398 C7.26493866,3.95828935 7.08498495,4.18669213 6.83235764,4.18669213 L6.79082986,4.18669213 C6.60049421,4.18669213 6.44822569,4.04134491 6.41015856,3.85446991 C6.37209144,3.64683102 6.29249653,3.47033796 6.17483449,3.32153009 C5.99834144,3.10350926 5.75609606,2.99276852 5.44463773,2.99276852 C5.11587616,2.99276852 4.87017014,3.07582407 4.70405903,3.24885648 C4.53794792,3.42188889 4.45489236,3.65721296 4.45489236,3.9548287 C4.45489236,4.22821991 4.54140856,4.44970139 4.71098032,4.61235185 C4.88055208,4.78192361 5.18854977,4.94111343 5.62805208,5.09338194 C6.19905903,5.2767963 6.62471875,5.50865972 6.9015706,5.78205093 C7.17842245,6.05544213 7.31684838,6.43265278 7.31684838,6.90676157 C7.31684838,7.38433102 7.17150116,7.77192361 6.88426736,8.05223611 C6.6212581,8.31178472 6.27173264,8.47443519 5.82876968,8.5401875 C5.75263542,8.55056944 5.69726505,8.61632176 5.69726505,8.68899537 L5.69726505,9.03506019 C5.69726505,9.21847454 5.54845718,9.36382176 5.36850347,9.36382176 C5.18508912,9.36382176 5.0397419,9.21847454 5.0397419,9.03506019 L5.0397419,8.69245602 C5.0397419,8.61978241 4.98091088,8.55403009 4.90823727,8.54364815 C4.48603819,8.47789583 4.13651273,8.30832407 3.85620023,8.03839352 C3.63471875,7.81691204 3.49629282,7.52967824 3.43746181,7.16977083 C3.40285532,6.92752546 3.57588773,6.70950463 3.8181331,6.70258333 L3.85966088,6.69912269 Z" id="Fill-29" fill="#181212"></path>
                <polygon id="Fill-31" fill="#181212" points="5.69657292 8.6896875 5.03904977 8.69314815 5.12902662 1.71648148 5.77962847 1.71648148"></polygon>
            </g>
        </g>
    </g>
</svg>