<?xml version="1.0" encoding="UTF-8"?>
<svg width="25px" height="25px" viewBox="0 0 25 25" version="1.1" xmlns="http://www.w3.org/2000/svg" xmlns:xlink="http://www.w3.org/1999/xlink">
    <!-- Generator: Sketch 64 (93537) - https://sketch.com -->
    <title>Reservamos/Atoms/Icons/Amenities/free-pet-travel</title>
    <desc>Created with Sketch.</desc>
    <g id="Reservamos/Atoms/Icons/Amenities/free-pet-travel" stroke="none" stroke-width="1" fill="none" fill-rule="evenodd">
        <g id="free-pet-travel" transform="translate(1.000000, 2.000000)">
            <path d="M9.66989511,19.5114949 C8.01001067,19.958206 6.78273067,20.0052283 5.67535733,20.0052283 C2.75057511,20.000526 1.140064,16.5349883 3.11969956,14.3813705 C3.150264,14.350806 3.16672178,14.3319972 3.16672178,14.3319972 C3.16672178,14.3319972 5.58836622,12.4228949 6.61345067,10.8852683 C7.64088622,9.34529049 8.51549956,7.65719271 11.0123796,7.65719271 C13.5092596,7.65719271 14.386224,9.34529049 15.4113084,10.8852683 C16.4410951,12.4228949 18.8603884,14.3319972 18.8603884,14.3319972 C20.8964507,16.5020727 19.316504,20.0522505 16.3399973,19.9981749 C15.3854462,19.979366 14.6918684,19.9770149 13.095464,19.577326 C12.7004773,19.4809305 11.6166151,19.1940949 11.2098729,19.2011483 C10.8478018,19.2082016 10.0202107,19.4174505 9.66989511,19.5114949 Z" id="Stroke-1" stroke="#181212" stroke-width="0.7912"></path>
            <path d="M2.15723319,11.5872108 C1.50335067,11.3095584 1.29251939,10.0804601 1.68515445,8.84251946 C2.07778952,7.60104182 2.92569793,6.82290769 3.57805269,7.09879161 C4.23193521,7.37644402 4.44276649,8.60554225 4.05013142,9.8452514 C3.65749636,11.0831921 2.80958795,11.8648632 2.15723319,11.5872108 Z" id="Fill-28" fill="#FF79A4" transform="translate(2.867643, 9.343230) rotate(-23.000000) translate(-2.867643, -9.343230) "></path>
            <path d="M6.41729063,6.44 C5.54544727,6.16234759 5.89377721,4.52918209 6.41729063,3.29124142 C6.94080405,2.04976379 8.35740665,1.11696939 9.227213,1.39285331 C10.0990564,1.67050572 9.75072642,3.37050775 9.227213,4.6102169 C8.70369958,5.84815757 7.28709697,6.71765241 6.41729063,6.44 Z" id="Fill-28" fill="#FF79A4"></path>
            <path d="M13.6328339,6.4918746 C12.7609906,6.21422219 12.8876597,5.02498832 13.4111732,3.78704766 C13.9346866,2.54557002 15.7639554,1.32371107 16.6337617,1.59959499 C17.5056051,1.8772474 16.7446089,3.86631399 16.2210955,5.10602314 C15.6975821,6.3439638 14.5026403,6.76952701 13.6328339,6.4918746 Z" id="Fill-28" fill="#FF79A4"></path>
            <path d="M19.2496551,11.91514 C18.5957726,11.6374875 18.3849413,10.4083893 18.7775763,9.17044865 C19.1702114,7.92897102 20.0181198,7.15083689 20.6704746,7.42672081 C21.3243571,7.70437321 21.5351884,8.93347144 21.1425533,10.1731806 C20.7499182,11.4111213 19.9020098,12.1927924 19.2496551,11.91514 Z" id="Fill-28" fill="#FF79A4" transform="translate(19.960065, 9.671160) rotate(28.000000) translate(-19.960065, -9.671160) "></path>
            <path d="M21.5777214,9.9581365 C22.2148725,8.57568316 21.8833658,7.06626983 20.8418236,6.58664316 C19.7979303,6.1070165 18.4389881,6.84291427 17.8041881,8.22536761 C17.1670369,9.61017205 17.4985436,11.1172343 18.5400858,11.5945098 C19.5816281,12.0741365 20.9405703,11.3405898 21.5777214,9.9581365 Z" id="Stroke-3" stroke="#181212" stroke-width="0.7912"></path>
            <path d="M0.324188055,9.9581365 C-0.312963056,8.57568316 0.0185436108,7.06626983 1.06008583,6.58664316 C2.10397917,6.1070165 3.46292139,6.84291427 4.09772139,8.22536761 C4.7348725,9.61017205 4.40336583,11.1172343 3.36182361,11.5945098 C2.32028139,12.0741365 0.958988055,11.3405898 0.324188055,9.9581365 Z" id="Stroke-5" stroke="#181212" stroke-width="0.7912"></path>
            <path d="M4.61333134,3.48274021 C4.47226468,1.67003354 5.46678468,0.111246876 6.83513134,0.00544687565 C8.2011269,-0.0980020132 9.42605579,1.28445132 9.56477134,3.0995091 C9.70583801,4.91456688 8.71131801,6.47100243 7.34297134,6.57680243 C5.97462468,6.68260243 4.75439801,5.29779799 4.61333134,3.48274021 Z" id="Stroke-7" stroke="#181212" stroke-width="0.7912"></path>
            <path d="M11.9640424,3.18764532 C12.0416291,1.37023643 13.2148335,-0.0592391256 14.5855313,0.00188976326 C15.9562291,0.0583164299 17.0048246,1.57948532 16.927238,3.39924532 C16.8496513,5.21665421 15.6764468,6.64377865 14.3057491,6.58500087 C12.9350513,6.52857421 11.8864557,5.00505421 11.9640424,3.18764532 Z" id="Stroke-9" stroke="#181212" stroke-width="0.7912"></path>
        </g>
    </g>
</svg>