<?xml version="1.0" encoding="UTF-8"?>
<svg width="25px" height="25px" viewBox="0 0 25 25" version="1.1" xmlns="http://www.w3.org/2000/svg" xmlns:xlink="http://www.w3.org/1999/xlink">
    <!-- Generator: Sketch 64 (93537) - https://sketch.com -->
    <title>Reservamos/Atoms/Icons/Amenities/free-snacks</title>
    <desc>Created with Sketch.</desc>
    <g id="Reservamos/Atoms/Icons/Amenities/free-snacks" stroke="none" stroke-width="1" fill="none" fill-rule="evenodd">
        <g id="Group-28" transform="translate(1.000000, 2.000000)">
            <path d="M21.8401071,10.92025 C21.8401071,16.9513929 16.951,21.8401071 10.9198571,21.8401071 C4.88910714,21.8401071 -3.07055968e-14,16.9513929 -3.07055968e-14,10.92025 C-3.07055968e-14,4.88910714 4.88910714,-8.37425367e-15 10.9198571,-8.37425367e-15 C16.951,-8.37425367e-15 21.8401071,4.88910714 21.8401071,10.92025 Z" id="Stroke-1" stroke="#181212" stroke-width="0.872413793"></path>
            <path d="M3.09881786,7.21800357 L4.26874643,6.13764643 C4.39288929,6.023325 4.49031786,5.88268214 4.55396071,5.726325 L5.00653214,4.61336071 C5.29331786,3.90896786 5.93878214,3.41436071 6.69346071,3.32164643 L8.55403214,3.09221786 L9.55188929,2.42671786 C10.1867464,2.00361071 11.0015321,1.95843214 11.6799964,2.30886071 L12.8145679,2.957075 C13.2604607,3.21164643 13.7648893,3.34443214 14.2783536,3.342075 L15.4451393,3.33696786 C16.2414607,3.44539643 16.9057821,3.999325 17.1556393,4.76264643 L17.2640679,5.09303929 C17.4510679,5.66464643 17.7787107,6.17968214 18.2163536,6.59178929 L18.9156393,7.249825 C19.4098536,7.71496786 19.6483179,8.39028929 19.5563893,9.06246786 L19.3128179,10.8393607 C19.2916036,10.9949321 19.2927821,11.1528607 19.3163536,11.3084321 L19.5308536,12.7246821 C19.6384964,13.4326107 19.3772464,14.146825 18.8378536,14.6182536 L17.8722107,15.4632893 C17.7429607,15.5764321 17.6416036,15.7174679 17.5756036,15.8761821 L17.0892464,17.042575 C16.7993179,17.7391107 16.1577821,18.2262536 15.4089964,18.3181821 L13.8230321,18.513825 C13.6352464,18.5370036 13.4561036,18.6061464 13.3021036,18.7149679 L12.3513893,19.3836107 C11.683925,19.8534679 10.803925,19.8935393 10.0963893,19.4861464 L8.70606786,18.6855036 C8.55049643,18.5959321 8.37606786,18.544075 8.19653214,18.5338607 L6.75985357,18.4541107 C5.947425,18.4089321 5.23438929,17.8982179 4.929925,17.1435393 L4.46635357,15.9940393 C4.404675,15.8412179 4.31078214,15.7029321 4.19096071,15.5893964 L2.919675,14.3852893 C2.33628214,13.8321464 2.11981786,12.994575 2.36221071,12.2281107 L2.68356786,11.2133607 C2.73896071,11.0385393 2.75153214,10.8527179 2.72088929,10.6720036 L2.45374643,9.114325 C2.333925,8.41386071 2.57631786,7.70003929 3.09881786,7.21800357 Z" id="Stroke-5" fill="#FF79A4"></path>
            <path d="M14.8902679,10.92025 C14.8902679,13.1131786 13.1129821,14.8904643 10.9200536,14.8904643 C8.727125,14.8904643 6.94944643,13.1131786 6.94944643,10.92025 C6.94944643,8.72732143 8.727125,6.95003571 10.9200536,6.95003571 C13.1129821,6.95003571 14.8902679,8.72732143 14.8902679,10.92025 Z" id="Stroke-3" stroke="#181212" stroke-width="0.872413793" fill="#FFFFFF"></path>
            <line x1="9.79196429" y1="4.63508571" x2="11.5598214" y2="4.86608571" id="Stroke-7" stroke="#181212" stroke-width="0.872413793" stroke-linecap="round"></line>
            <line x1="15.5206071" y1="7.06321786" x2="16.7812857" y2="8.32389643" id="Stroke-9" stroke="#181212" stroke-width="0.872413793" stroke-linecap="round"></line>
            <line x1="17.2113857" y1="12.9923357" x2="16.5250643" y2="14.6376214" id="Stroke-11" stroke="#181212" stroke-width="0.872413793" stroke-linecap="round"></line>
            <line x1="4.535575" y1="9.01524643" x2="6.10975357" y2="8.17885357" id="Stroke-13" stroke="#181212" stroke-width="0.872413793" stroke-linecap="round"></line>
            <line x1="10.2235571" y1="17.0983607" x2="11.9348429" y2="16.5990393" id="Stroke-15" stroke="#181212" stroke-width="0.872413793" stroke-linecap="round"></line>
            <line x1="5.823125" y1="13.7278036" x2="7.02133929" y2="15.0478036" id="Stroke-17" stroke="#181212" stroke-width="0.872413793" stroke-linecap="round"></line>
        </g>
    </g>
</svg>