<?xml version="1.0" encoding="UTF-8"?>
<svg width="84px" height="84px" viewBox="0 0 84 84" version="1.1" xmlns="http://www.w3.org/2000/svg" xmlns:xlink="http://www.w3.org/1999/xlink">
    <title>Group 6</title>
    <g id="PackagesPages" stroke="none" stroke-width="1" fill="none" fill-rule="evenodd">
        <g id="Group-6">
            <g id="detailIconBus-Copy" fill="#FFFFFF" fill-opacity="0.1">
                <rect id="Rectangle" x="0" y="0" width="84" height="84"></rect>
            </g>
            <g id="Group-23" transform="translate(9.600000, 9.600000)">
                <path d="M55.3584372,52.1021689 L11.4806363,52.1021689 C9.89897005,52.1021689 8.61687977,50.8198811 8.61687977,49.2382148 L8.61687977,2.96281816 C8.61687977,1.3809543 9.89897005,0.0986664114 11.4806363,0.0986664114 L55.3584372,0.0986664114 C56.9401034,0.0986664114 58.2223913,1.3809543 58.2223913,2.96281816 L58.2223913,49.2382148 C58.2223913,50.8198811 56.9401034,52.1021689 55.3584372,52.1021689 Z" id="Stroke-1" stroke="#181212" stroke-width="2.75880012" fill="#FFFFFF"></path>
                <path d="M52.3213574,34.2865483 L14.5178742,34.2865483 C13.1270987,34.2865483 11.9997366,33.1591863 11.9997366,31.7684108 L11.9997366,16.6931791 C11.9997366,15.3026012 13.1270987,14.1752391 14.5178742,14.1752391 L52.3213574,14.1752391 C53.7119353,14.1752391 54.8392973,15.3026012 54.8392973,16.6931791 L54.8392973,31.7684108 C54.8392973,33.1591863 53.7119353,34.2865483 52.3213574,34.2865483 Z" id="Stroke-3" fill="#FF79A4"></path>
                <path d="M19.8219299,41.5852543 C19.8219299,43.433891 18.3232596,44.9325612 16.4748206,44.9325612 C14.6259863,44.9325612 13.1273161,43.433891 13.1273161,41.5852543 C13.1273161,39.7366177 14.6259863,38.238145 16.4748206,38.238145 C18.3232596,38.238145 19.8219299,39.7366177 19.8219299,41.5852543 Z" id="Stroke-5" fill="#FF79A4"></path>
                <path d="M47.5623284,8.9803824 L19.2767056,8.9803824 C18.2416271,8.9803824 17.3944753,8.13323058 17.3944753,7.09815214 C17.3944753,6.06267849 18.2416271,5.21572427 19.2767056,5.21572427 L47.5623284,5.21572427 C48.5976044,5.21572427 49.4445586,6.06267849 49.4445586,7.09815214 C49.4445586,8.13323058 48.5976044,8.9803824 47.5623284,8.9803824 Z" id="Stroke-7" fill="#FF79A4"></path>
                <path d="M19.0139245,62.4424207 L15.7749076,62.4424207 C14.4708826,62.4424207 13.4035939,61.3753295 13.4035939,60.071107 L13.4035939,52.1021097 L21.3852382,52.1021097 L21.3852382,60.071107 C21.3852382,61.3753295 20.3183447,62.4424207 19.0139245,62.4424207 Z" id="Stroke-9" stroke="#181212" stroke-width="2.75880012" fill="#FFFFFF"></path>
                <path d="M51.0641066,62.4424207 L47.8250897,62.4424207 C46.5210648,62.4424207 45.453776,61.3753295 45.453776,60.071107 L45.453776,52.1021097 L53.4354203,52.1021097 L53.4354203,60.071107 C53.4354203,61.3753295 52.3683292,62.4424207 51.0641066,62.4424207 Z" id="Stroke-11" stroke="#181212" stroke-width="2.75880012" fill="#FFFFFF"></path>
                <polyline id="Stroke-13" stroke="#181212" stroke-width="2.75880012" points="8.61686001 11.5300979 2.64193989 11.5300979 2.64193989 18.350589"></polyline>
                <polyline id="Stroke-15" stroke="#181212" stroke-width="2.75880012" points="58.2224308 11.5300979 64.197351 11.5300979 64.197351 18.350589"></polyline>
                <path d="M54.8393368,41.5852543 C54.8393368,43.433891 53.3408642,44.9325612 51.4922275,44.9325612 C49.6435909,44.9325612 48.1449206,43.433891 48.1449206,41.5852543 C48.1449206,39.7366177 49.6435909,38.238145 51.4922275,38.238145 C53.3408642,38.238145 54.8393368,39.7366177 54.8393368,41.5852543 Z" id="Stroke-17" fill="#FF79A4"></path>
                <path d="M2.813623,26.1005165 L2.47017773,26.1005165 C1.16595519,26.1005165 0.0988640209,25.0334253 0.0988640209,23.7292028 L0.0988640209,20.7217842 C0.0988640209,19.4175616 1.16595519,18.3504704 2.47017773,18.3504704 L2.813623,18.3504704 C4.11784554,18.3504704 5.18493671,19.4175616 5.18493671,20.7217842 L5.18493671,23.7292028 C5.18493671,25.0334253 4.11784554,26.1005165 2.813623,26.1005165 Z" id="Stroke-19" stroke="#181212" stroke-width="2.75880012" fill="#FFFFFF"></path>
                <path d="M64.3689748,26.1005165 L64.0257271,26.1005165 C62.721307,26.1005165 61.6544134,25.0334253 61.6544134,23.7292028 L61.6544134,20.7217842 C61.6544134,19.4175616 62.721307,18.3504704 64.0257271,18.3504704 L64.3689748,18.3504704 C65.6733949,18.3504704 66.7402885,19.4175616 66.7402885,20.7217842 L66.7402885,23.7292028 C66.7402885,25.0334253 65.6733949,26.1005165 64.3689748,26.1005165 Z" id="Stroke-21" stroke="#181212" stroke-width="2.75880012" fill="#FFFFFF"></path>
            </g>
        </g>
    </g>
</svg>