<?xml version="1.0" encoding="UTF-8"?>
<svg width="50px" height="50px" viewBox="0 0 50 50" version="1.1" xmlns="http://www.w3.org/2000/svg" xmlns:xlink="http://www.w3.org/1999/xlink">
    <g stroke="none" stroke-width="1" fill="none" fill-rule="evenodd">
        <g transform="translate(-695.000000, -487.000000)" fill="#E6E6E6">
            <g id="Group" transform="translate(695.000000, 487.000000)">
                <path d="M10.3661269,26.2163088 C9.91603056,30.8551649 11.0911911,35.3008888 12.3739655,37.4678978 C12.8494309,38.2707059 13.5249845,38.7772689 14.0225455,38.7077085 C14.46855,38.6426492 15.1412394,37.9511376 15.5721043,36.2182668 C16.8757468,30.9705532 16.0430687,26.5530627 15.5954274,24.1798277 C15.3797904,23.0357647 14.5532499,20.509497 12.8723449,17.6460662 C11.7855669,19.8204405 10.6955155,22.8180818 10.3661269,26.2163088" id="Fill-11"></path>
                <path d="M18.8906013,7.22751501 C22.5133685,5.18603013 27.4880434,4.92683416 31.8755758,6.54997505 C35.9551464,8.06040369 40.2657912,12.746194 40.0889906,19.466715 C39.9520729,24.6421915 37.7593346,28.4511903 33.3853705,31.1115372 C33.2657218,31.1803466 33.1456618,31.2462009 33.0243684,31.3091003 C33.4614359,32.2107983 33.8553311,32.9972512 34.1542475,33.5101553 C36.8695754,37.5897479 39.6301314,40.8043689 45.7630556,38.9220321 C48.1461629,35.0129854 50,29.9517406 50,25 C50,10.9476947 38.4328214,0 24.7459897,0 C18.0024868,0 11.8917654,2.76925988 7.42323361,7.25579861 C9.56498758,8.86416448 11.3461506,10.6827577 12.8098949,12.530901 C14.2197767,10.7380585 15.7057239,9.02204607 18.8906013,7.22751501 Z" id="Fill-13"></path>
                <path d="M31.8409996,34.8315923 C31.4375553,34.1541303 30.9229876,33.1269969 30.3640535,31.9807817 C27.5407729,32.5282215 24.7825907,32.0691463 23.5581601,31.5132908 C22.1040192,30.8522394 20.9927853,29.4177872 20.6581712,27.7708392 C20.3384841,26.196266 20.7576847,24.6709245 21.8386499,23.4763191 C22.8881026,22.3170596 24.2866818,21.7363778 25.7690181,21.8377867 C27.3678682,21.9476113 28.9065955,22.8657617 29.8851448,24.2939021 C30.4631524,25.137153 31.2036986,26.5867534 31.9658061,28.1436537 C32.028002,28.1104117 32.0897833,28.076749 32.1511499,28.041824 C35.6328782,25.948845 37.2483138,23.1788249 37.3577786,19.0808109 C37.4946097,13.9480894 34.223933,10.3907826 31.1274049,9.25803246 C27.5175531,7.93761271 23.4768908,8.11897055 20.5818775,9.73099352 C17.6205219,11.3804663 16.4607751,12.8519474 14.9921218,14.7151783 L14.918316,14.8090131 C14.897584,14.8351017 14.8768521,14.8620319 14.8557054,14.8893829 C17.3680064,18.771114 18.5513877,22.3974293 18.8573916,24.0439565 C19.3545444,26.7205626 20.2804345,31.7034851 18.7951957,37.7686637 C17.8440126,41.6554442 15.7961079,42.5193135 14.6599956,42.6884686 C14.4767249,42.7153987 14.2938689,42.7288638 14.1105982,42.7288638 C12.4943333,42.7288638 10.9054345,41.6848991 9.8646893,39.8990924 C8.26418067,37.15474 6.88508956,31.9218719 7.41126714,26.4171775 C7.86819991,21.6324442 9.58397833,17.5533655 11.0895345,14.949555 C9.65736953,13.0421417 7.85617536,11.1359908 5.62790248,9.49367142 L5.45209531,9.36617391 C5.44421716,9.36028294 5.43758293,9.35565432 5.42970478,9.34976334 C2.03422158,13.6804708 0,19.1599183 0,25.1245295 C0,39.1315826 11.197479,50 25,50 C32.296412,50 38.8521395,47.3120416 43.4210526,42.2516949 C37.05136,42.5799063 33.8967824,37.8923741 31.8870245,34.9043879 L31.8409996,34.8315923 Z" id="Fill-16"></path>
                <path d="M25.2225371,24.52632 C25.1820284,24.5234557 25.1427473,24.5222282 25.103057,24.5222282 C24.6177714,24.5222282 24.1832238,24.7276358 23.8096439,25.1343592 C23.4160142,25.5623598 23.2748477,26.0611483 23.3898268,26.6159943 C23.5178997,27.2404006 23.9753612,27.8410746 24.5011555,28.075943 C25.0944643,28.3423182 26.7463177,28.6242422 28.5372917,28.4401118 C27.9427554,27.2579953 27.373179,26.1802193 26.9738209,25.6057327 C26.5347724,24.9743704 25.8796777,24.5709204 25.2225371,24.52632" id="Fill-19"></path>
            </g>
        </g>
    </g>
</svg>