<?xml version="1.0" encoding="UTF-8"?>
<svg width="30px" height="10px" viewBox="0 0 30 10" version="1.1" xmlns="http://www.w3.org/2000/svg" xmlns:xlink="http://www.w3.org/1999/xlink">
    <!-- Generator: Sketch 62 (91390) - https://sketch.com -->
    <title>visa</title>
    <desc>Created with Sketch.</desc>
    <g id="Symbols" stroke="none" stroke-width="1" fill="none" fill-rule="evenodd">
        <g id="icons/card/visa" transform="translate(-5.000000, -8.000000)">
            <g id="logo/card/visa" transform="translate(5.000000, 8.000000)">
                <g id="visa">
                    <path d="M26.2345303,2.70058719 L26.395847,3.50877224 C26.395847,3.50877224 26.8610071,5.74553381 26.9579466,6.21400356 L24.9485872,6.21400356 C25.1496192,5.67603203 25.9127509,3.59364769 25.9127509,3.59364769 C25.8980178,3.61905694 26.1114341,3.05140569 26.2344235,2.70058719 L26.2345303,2.70058719 Z M26.0633915,0.173220641 C25.4837829,0.173220641 25.0491566,0.338487545 24.7933559,0.951298933 L21.2000819,9.541121 L23.742395,9.541121 C23.742395,9.541121 24.1581245,8.38489327 24.2520747,8.13176153 C24.5294413,8.13176153 26.9987295,8.13709967 27.3510427,8.13709967 C27.4258825,8.46400353 27.6458114,9.54101427 27.6458114,9.54101427 L29.8935694,9.54101427 L27.9335338,0.173220641 L26.0634982,0.173220641 L26.0633915,0.173220641 Z M8.49374733,0.172580071 L6.12428114,6.56172598 L5.87168327,5.26339857 C5.2816121,3.67147687 4.00420997,2.00161922 2.51659431,1.32485765 L4.68406761,9.52905693 L7.2463452,9.52788253 L11.0566655,0.172686833 L8.49374733,0.172686833 L8.49374733,0.172580071 Z M12.0387651,0.163505338 L10.5242455,9.53802493 L12.9439965,9.53802493 L14.4593701,0.163398577 L12.0390854,0.163398577 L12.0387651,0.163505338 Z M19.555847,5.33807829e-05 C17.1612918,5.33807829e-05 15.4792633,1.27297153 15.4644235,3.09325623 C15.4492633,4.44186833 16.6673061,5.19368327 17.5834271,5.64186833 C18.5285872,6.10008897 18.8442811,6.39453737 18.8411851,6.8045018 C18.8317901,7.4327936 18.0848861,7.7189146 17.3908292,7.7189146 C16.4232491,7.7189146 15.9073772,7.57766907 15.1144591,7.22898573 L14.8000463,7.0795196 L14.4613986,9.17749113 C15.0275551,9.43862987 16.0729644,9.66485767 17.1597971,9.6766014 C19.7008292,9.6766014 21.3541388,8.41820287 21.3737829,6.47514235 C21.3837117,5.40560498 20.7372705,4.59613879 19.3393345,3.92781139 C18.4954911,3.49329181 17.9736406,3.20514235 17.9814341,2.76485765 C17.9820747,2.37581851 18.4193701,1.95891459 19.3683737,1.95891459 C20.1609715,1.94556939 20.7310783,2.1274911 21.1799039,2.31912811 L21.3958825,2.42685053 L21.7251352,0.394537367 C21.2468434,0.205569395 20.4920391,5.33807829e-05 19.5556335,5.33807829e-05 L19.555847,5.33807829e-05 Z" id="Fill-1" fill="#0023A0" fill-rule="nonzero"></path>
                    <path d="M3.92678648,0.167658363 L0.0227295373,0.167658363 L-1.06761566e-05,0.328975089 C3.0353274,1.10523843 5.03785409,3.01157295 5.87166192,5.26584341 L5.02322776,0.957266907 C4.87739146,0.364740213 4.45258719,0.18858363 3.92678648,0.167658363" id="Fill-3" fill="#FFAB00" fill-rule="nonzero"></path>
                </g>
            </g>
        </g>
    </g>
</svg>