<?xml version="1.0" encoding="UTF-8"?>
<svg width="30px" height="19px" viewBox="0 0 30 19" version="1.1" xmlns="http://www.w3.org/2000/svg" xmlns:xlink="http://www.w3.org/1999/xlink">
    <!-- Generator: Sketch 62 (91390) - https://sketch.com -->
    <title>master</title>
    <desc>Created with Sketch.</desc>
    <g id="Symbols" stroke="none" stroke-width="1" fill="none" fill-rule="evenodd">
        <g id="icons/card/master" transform="translate(-5.000000, -3.000000)">
            <g id="logo/card/master" transform="translate(5.000000, 3.000000)">
                <g id="mastercard">
                    <path d="M11.4686561,9.24474312 C11.4686561,12.1835574 12.8415415,14.8000791 14.9790119,16.4933598 C17.1166008,14.8000791 18.4894861,12.1835574 18.4894861,9.24474312 C18.4894861,6.30604751 17.1166008,3.6894072 14.9790119,1.99612656 C12.8415415,3.6894072 11.4686561,6.30604751 11.4686561,9.24474312" id="Fill-27" fill="#EA600A" fill-rule="nonzero"></path>
                    <path d="M11.4686561,9.24474312 C11.4686561,6.30604743 12.8415415,3.68940711 14.9790119,1.99612649 C13.4028854,0.747628459 11.4117391,0 9.24474305,0 C4.13905139,0 8.23583626e-14,4.13905139 8.23583626e-14,9.24474312 C8.23583626e-14,14.3505534 4.13905139,18.4896048 9.24474305,18.4896048 C11.4117391,18.4896048 13.4028854,17.7419763 14.9790119,16.4933597 C12.8415415,14.800079 11.4686561,12.1835573 11.4686561,9.24474312" id="Fill-24" fill="#E30E17" fill-rule="nonzero"></path>
                    <path d="M14.9791189,1.9961502 C17.1165893,3.68943083 18.4894747,6.30607115 18.4894747,9.24476676 C18.4894747,12.183581 17.1165893,14.7999842 14.9791189,16.4933834 C16.5552454,17.742 18.5465102,18.4896285 20.7133877,18.4896285 C25.819198,18.4896285 29.9581308,14.3504585 29.9581308,9.24476676 C29.9581308,4.1390751 25.819198,2.37154545e-05 20.7133877,2.37154545e-05 C18.5465102,2.37154545e-05 16.5552454,0.747652174 14.9791189,1.9961502 Z" id="Fill-31" fill="#F59F00" fill-rule="nonzero"></path>
                </g>
            </g>
        </g>
    </g>
</svg>