<?xml version="1.0" encoding="UTF-8"?>
<svg width="25px" height="25px" viewBox="0 0 25 25" version="1.1" xmlns="http://www.w3.org/2000/svg" xmlns:xlink="http://www.w3.org/1999/xlink">
    <!-- Generator: Sketch 64 (93537) - https://sketch.com -->
    <title>Reservamos/Atoms/Icons/Amenities/restaurant</title>
    <desc>Created with Sketch.</desc>
    <g id="Reservamos/Atoms/Icons/Amenities/restaurant" stroke="none" stroke-width="1" fill="none" fill-rule="evenodd">
        <g id="Group-4" transform="translate(4.000000, 0.000000)">
            <g id="Group">
                <g id="Group-3" fill="#FFFFFF" stroke="#181212" stroke-width="0.7">
                    <path d="M2.19840486,12.6942438 L2.21497506,10.2133171 C2.24075092,8.91808005 1.62673307,8.87343257 1.62673307,8.87343257 C1.53651755,8.83292765 1.45090486,8.78920074 1.36943473,8.74271213 C0.464517857,8.22397291 -0.0307469212,7.18419304 0.0014729064,6.12646213 L0.161191195,0.882455049 C0.171777709,0.543686576 0.444265394,0.273960591 0.777510468,0.273960591 C1.12318319,0.273960591 1.40165456,0.563478756 1.39382974,0.915595443 L1.31005819,4.88047537 C1.30361422,5.19622968 1.55308775,5.45582943 1.86285837,5.45582943 C2.16848645,5.45582943 2.41611884,5.20359421 2.41611884,4.89244273 L2.41611884,0.902247229 C2.41611884,0.555193658 2.69182851,0.273960591 3.03243812,0.273960591 L3.09273522,0.273960591 C3.43334483,0.273960591 3.7090545,0.555193658 3.7090545,0.902247229 L3.7090545,4.89244273 C3.7090545,5.20359421 3.95668688,5.45582943 4.26231496,5.45582943 L4.27428233,5.45582943 C4.57991041,5.45582943 4.8275428,5.20359421 4.8275428,4.89244273 L4.8275428,0.902247229 C4.8275428,0.555193658 5.10371275,0.273960591 5.44386207,0.273960591 L5.46825708,0.273960591 C5.80610499,0.273960591 6.08089409,0.550130542 6.08503664,0.893501847 L6.15960252,6.50757666 C6.16512592,6.90572167 6.08687777,7.30294612 5.90552617,7.65506281 C5.66986115,8.11212408 5.22476724,8.66630511 4.38889286,9.02992888 C4.38889286,9.02992888 3.90651601,9.11922383 3.90651601,10.2133171 L3.96175,12.6942438 L2.19840486,12.6942438" id="Fill-1"></path>
                </g>
                <path d="M5.21629803,22.4078314 L4.8379452,12.8822696 C4.83334236,12.7777853 4.68927371,12.6940137 4.5134455,12.6940137 L1.64680142,12.6940137 C1.47051293,12.6940137 1.32690456,12.7777853 1.32230172,12.8822696 L0.943948892,22.4078314 C0.91541133,23.1189691 1.88016502,23.7044494 3.07966318,23.7044494 C4.2800819,23.7044494 5.24483559,23.1189691 5.21629803,22.4078314" id="Fill-4" fill="#FF79A4"></path>
                <path d="M5.21629803,22.4078314 L4.8379452,12.8822696 C4.83334236,12.7777853 4.68927371,12.6940137 4.5134455,12.6940137 L1.64680142,12.6940137 C1.47051293,12.6940137 1.32690456,12.7777853 1.32230172,12.8822696 L0.943948892,22.4078314 C0.91541133,23.1189691 1.88016502,23.7044494 3.07966318,23.7044494 C4.2800819,23.7044494 5.24483559,23.1189691 5.21629803,22.4078314 Z" id="Stroke-6" stroke="#181212" stroke-width="0.7"></path>
            </g>
            <g id="Group-2" transform="translate(9.000000, 0.000000)">
                <path d="M5.59566349,22.4078314 L5.21731065,12.8822696 C5.2131681,12.7777853 5.06863916,12.6940137 4.89281096,12.6940137 L2.02662716,12.6940137 C1.85033867,12.6940137 1.70627001,12.7777853 1.70212746,12.8822696 L1.32377463,22.4078314 C1.29523707,23.1189691 2.25999076,23.7044494 3.45948892,23.7044494 C4.65944735,23.7044494 5.62420105,23.1189691 5.59566349,22.4078314" id="Fill-8" fill="#FF79A4"></path>
                <path d="M5.59566349,22.4078314 L5.21731065,12.8822696 C5.2131681,12.7777853 5.06863916,12.6940137 4.89281096,12.6940137 L2.02662716,12.6940137 C1.85033867,12.6940137 1.70627001,12.7777853 1.70212746,12.8822696 L1.32377463,22.4078314 C1.29523707,23.1189691 2.25999076,23.7044494 3.45948892,23.7044494 C4.65944735,23.7044494 5.62420105,23.1189691 5.59566349,22.4078314 Z" id="Stroke-10" stroke="#181212" stroke-width="0.7"></path>
                <g id="Group-14" stroke="#181212" stroke-width="0.7">
                    <path d="M4.57171736,9.19940517 C5.80481619,8.55086607 6.68717919,6.82112161 6.68717919,4.78897106 C6.68717919,2.2017189 5.25707913,0.104668411 3.49327371,0.104668411 C1.72946829,0.104668411 0.300288793,2.2017189 0.300288793,4.78897106 C0.300288793,6.78107697 1.14813054,8.48274415 2.34348615,9.1602811 L2.40378325,9.21643565 C2.40378325,9.21643565 2.80745166,10.5066096 2.48571367,12.6943359 L4.43915579,12.6943359 C4.11787808,10.5066096 4.51003941,9.259242 4.51003941,9.259242 L4.57171736,9.19940517 Z" id="Fill-12"></path>
                </g>
            </g>
        </g>
    </g>
</svg>