<?xml version="1.0" encoding="UTF-8"?>
<svg width="49px" height="34px" viewBox="0 0 49 34" version="1.1" xmlns="http://www.w3.org/2000/svg" xmlns:xlink="http://www.w3.org/1999/xlink">
    <title>board-rating-spec buses</title>
    <g id="board-rating-spec-buses" stroke="none" stroke-width="1" fill="none" fill-rule="evenodd">
        <g id="buses-icon-eb948e4bdf85a87d6c04af242636b2f6885b4ed22df895a7d91360c02bf760f9" transform="translate(0.000000, 2.000000)">
            <rect id="Rectangle" fill="#FFFFFF" fill-rule="nonzero" opacity="0.01" x="0" y="0" width="49" height="31"></rect>
            <g id="Group-2-Copy" transform="translate(0.000000, 5.365385)">
                <path d="M32.375,17.1773142 L12.425,17.1773142 C12.425,15.3748281 10.9363468,13.9136245 9.09999999,13.9136245 C7.2636532,13.9136245 5.775,15.3748281 5.775,17.1773142 L2.61412056,17.1773142 C1.17038164,17.1773142 0,15.9954492 0,14.5375449 L0,8.58865713 C0,3.84527276 3.807911,0 8.50520729,0 L42.8626399,0 C43.4040355,0 43.8964803,0.316499803 44.1257054,0.811786394 L48.9029209,11.1339127 L48.9572589,14.4947302 C48.9803241,15.9524427 47.829079,17.153321 46.38553,17.176967 C46.3713982,17.1773142 46.3572648,17.1773142 46.3431312,17.1773142 L39.025,17.1773142 C39.025,15.3748281 37.5363468,13.9136245 35.7,13.9136245 C33.8636532,13.9136245 32.375,15.3748281 32.375,17.1773142 Z" id="Combined-Shape-Copy-4" fill="#7BD170" fill-rule="nonzero"></path>
                <path d="M10.1509787,1.03063885 L43.575,1.03063885 L47.425,9.4475228 L0.700000003,9.4475228 L0.700000003,9.4475228 C1.29999778,4.63789263 5.35043722,1.03063885 10.1509787,1.03063885 Z" id="Rectangle-516-Copy" fill="#FFFFFF" fill-rule="nonzero"></path>
                <path d="M31.8891409,16.6493604 C32.1499848,14.8027263 33.7594507,13.3856706 35.7,13.3856706 C37.6405493,13.3856706 39.2500152,14.8027263 39.5108591,16.6493604 L46.3431312,16.6493604 C46.3600915,16.6493604 46.3600915,16.6493604 46.3770502,16.6490825 C47.5318894,16.6301658 48.4528855,15.6694632 48.4344333,14.5032931 L48.383185,11.3304468 C48.3823888,11.2808805 48.3712329,11.232043 48.3504479,11.1871328 L43.6520559,1.03532036 C43.5087901,0.725766241 43.2010122,0.527953862 42.8626399,0.527953862 L8.50520729,0.527953862 C4.09665878,0.527953862 0.522824112,4.13685363 0.522824112,8.58865713 L0.522824112,14.5375449 C0.522824112,15.7038683 1.45912943,16.6493604 2.61412056,16.6493604 L5.28914093,16.6493604 C5.54998483,14.8027263 7.15945069,13.3856706 9.09999999,13.3856706 C11.0405493,13.3856706 12.6500152,14.8027263 12.910859,16.6493604 L31.8891409,16.6493604 Z" id="Combined-Shape-Copy-3" stroke="#062944" stroke-width="1.04564822"></path>
                <ellipse id="Oval-71-Copy-7" fill="#062944" fill-rule="nonzero" cx="9.09999999" cy="17.5208605" rx="2.8" ry="2.74837027"></ellipse>
                <ellipse id="Oval-71-Copy-6" fill="#7BD170" fill-rule="nonzero" cx="9.09999999" cy="17.5208605" rx="1.4" ry="1.37418514"></ellipse>
                <ellipse id="Oval-71-Copy-5" fill="#062944" fill-rule="nonzero" cx="35.7" cy="17.5208605" rx="2.8" ry="2.74837027"></ellipse>
                <ellipse id="Oval-71-Copy-4" fill="#7BD170" fill-rule="nonzero" cx="35.7" cy="17.5208605" rx="1.4" ry="1.37418514"></ellipse>
                <polygon id="Line-Copy-23" fill="#062944" fill-rule="nonzero" points="6.125 0.94475228 6.125 9.4475228 7.17499998 9.4475228 7.17499998 0.94475228"></polygon>
                <polygon id="Line-Copy-22" fill="#062944" fill-rule="nonzero" points="13.65 0.94475228 13.65 9.4475228 14.7 9.4475228 14.7 0.94475228"></polygon>
                <polygon id="Line-Copy-21" fill="#062944" fill-rule="nonzero" points="21.175 0.94475228 21.175 9.4475228 22.225 9.4475228 22.225 0.94475228"></polygon>
                <polygon id="Line-Copy-20" fill="#062944" fill-rule="nonzero" points="28.7 0.94475228 28.7 9.4475228 29.75 9.4475228 29.75 0.94475228"></polygon>
                <polygon id="Line-Copy-19" fill="#062944" fill-rule="nonzero" points="36.225 0.94475228 36.225 9.4475228 37.275 9.4475228 37.275 0.94475228"></polygon>
                <polygon id="Line-Copy-18" fill="#062944" fill-rule="nonzero" points="1.1375 9.4475228 46.8289223 9.4475228 47.3539223 9.4475228 47.3539223 8.41688398 46.8289223 8.41688398 1.1375 8.41688398 0.6125 8.41688398 0.6125 9.4475228"></polygon>
                <rect id="Rectangle-517-Copy" fill="#062944" fill-rule="nonzero" x="17.675" y="11.8523468" width="9.45000003" height="2.57659713" rx="1.27578109"></rect>
                <path d="M40.6150126,3.07718075 L42.2236806,4.65618622 C42.3603641,4.79034938 42.5819719,4.79034938 42.7186553,4.65618622 C42.8553389,4.52202305 42.8553389,4.30450157 42.7186553,4.1703384 L41.1099874,2.59133293 C40.9733039,2.45716977 40.7516961,2.45716977 40.6150126,2.59133293 C40.4783291,2.72549611 40.4783291,2.94301758 40.6150126,3.07718075 L40.6150126,3.07718075 Z" id="Line-Copy-17" fill="#7BD170" fill-rule="nonzero"></path>
                <path d="M38.8650126,3.59250018 L41.5775126,6.25498387 C41.7141961,6.38914704 41.9358039,6.38914704 42.0724874,6.25498387 C42.2091709,6.12082069 42.2091709,5.90329924 42.0724874,5.76913607 L39.3599874,3.10665236 C39.2233039,2.9724892 39.0016961,2.9724892 38.8650126,3.10665236 C38.7283291,3.24081553 38.7283291,3.45833701 38.8650126,3.59250018 L38.8650126,3.59250018 Z" id="Line-Copy-16" fill="#7BD170" fill-rule="nonzero"></path>
            </g>
        </g>
    </g>
</svg>