<?xml version="1.0" encoding="UTF-8"?>
<svg width="49px" height="34px" viewBox="0 0 49 34" version="1.1" xmlns="http://www.w3.org/2000/svg" xmlns:xlink="http://www.w3.org/1999/xlink">
    <title>board-rating-spec puntuality</title>
    <g id="board-rating-spec-puntuality" stroke="none" stroke-width="1" fill="none" fill-rule="evenodd">
        <g id="puntuality-icon-b3fc97e275669542ed29f9ed17c708ab9cc31670c1cb5775efe097f01353c7de" transform="translate(0.000000, 2.000000)">
            <rect id="Rectangle" fill="#FFFFFF" fill-rule="nonzero" opacity="0.01" x="0" y="0" width="49" height="31"></rect>
            <g id="Group-4-Copy-2" transform="translate(12.397590, 2.980769)">
                <path d="M12.3975904,25.0384615 C19.2445904,25.0384615 24.7951807,19.433411 24.7951807,12.5192308 C24.7951807,5.60505053 19.2445904,0 12.3975904,0 C5.55059027,0 0,5.60505053 0,12.5192308 C0,19.433411 5.55059027,25.0384615 12.3975904,25.0384615 Z" id="Oval-13-Copy-6" stroke="#062944" stroke-width="1.1689156" fill="#7BD170" fill-rule="nonzero"></path>
                <ellipse id="Oval-13-Copy-5" stroke="#062944" stroke-width="0.93513243" fill="#FFFFFF" fill-rule="nonzero" cx="12.3975904" cy="12.5192308" rx="9.87932982" ry="9.97626202"></ellipse>
                <path d="M13.5598645,4.89032452 C17.1973332,4.89032452 20.1460843,7.86800764 20.1460843,11.5411659 L13.5598645,11.5411659 L13.5598645,4.89032452 Z" id="Oval-17-Copy-2" fill="#7BD170" fill-rule="nonzero"></path>
                <line x1="12.3975904" y1="6.65084135" x2="12.3975904" y2="11.7367788" id="Line-Copy-27" stroke="#062944" stroke-width="0.779277067" stroke-linecap="round"></line>
                <line x1="18.2089608" y1="12.7148437" x2="13.3661521" y2="12.7148437" id="Line-Copy-26" stroke="#062944" stroke-width="0.779277067" stroke-linecap="round"></line>
                <line x1="12.5913027" y1="17.6051683" x2="12.5913027" y2="20.6254326" id="Line-Copy-25" stroke="#062944" stroke-width="0.584457802" stroke-linecap="round"></line>
                <line x1="4.45538404" y1="12.5192308" x2="7.44436568" y2="12.5192308" id="Line-Copy-24" stroke="#062944" stroke-width="0.584457802" stroke-linecap="round"></line>
                <ellipse id="Oval-16-Copy-2" stroke="#062944" stroke-width="0.584457802" cx="12.3975904" cy="12.7148437" rx="1" ry="1"></ellipse>
                <g id="Line-+-Line-Copy-15" stroke-linecap="round" transform="translate(5.423946, 15.844651)" stroke="#062944" stroke-width="0.584457802">
                    <line x1="3.72068837" y1="2.73858173" x2="2.90568524" y2="3.56158136" id="Line"></line>
                    <line x1="1.10029936" y1="0.120525505" x2="0.102128463" y2="0.702474123" id="Line-Copy-7"></line>
                </g>
                <g id="Line-+-Line-Copy-14" stroke-linecap="round" transform="translate(7.683923, 7.405349) scale(-1, 1) rotate(-180.000000) translate(-7.683923, -7.405349) translate(5.617658, 5.616888)" stroke="#062944" stroke-width="0.584457802">
                    <line x1="3.72068837" y1="2.73858173" x2="2.90568524" y2="3.56158136" id="Line"></line>
                    <line x1="1.10029936" y1="0.120525505" x2="0.102128463" y2="0.702474123" id="Line-Copy-7"></line>
                </g>
                <g id="Line-+-Line-Copy-13" stroke-linecap="round" transform="translate(17.498682, 17.241887) scale(-1, 1) translate(-17.498682, -17.241887) translate(15.432417, 15.453425)" stroke="#062944" stroke-width="0.584457802">
                    <line x1="3.72068837" y1="2.73858173" x2="2.90568524" y2="3.56158136" id="Line"></line>
                    <line x1="1.10029936" y1="0.120525505" x2="0.102128463" y2="0.702474123" id="Line-Copy-7"></line>
                </g>
            </g>
        </g>
    </g>
</svg>