<?xml version="1.0" encoding="UTF-8"?>
<svg width="35px" height="35px" viewBox="0 0 35 35" version="1.1" xmlns="http://www.w3.org/2000/svg" xmlns:xlink="http://www.w3.org/1999/xlink">
    <title>board-rating-spec puntuality</title>
    <g id="board-rating-spec-puntuality" stroke="none" stroke-width="1" fill="none" fill-rule="evenodd">
        <rect id="Rectangle" fill="#FFFFFF" fill-rule="nonzero" opacity="0.01" x="0" y="2" width="49" height="31"></rect>
        <g id="Group-4-Copy-2" transform="translate(3.000000, 2.000000)">
            <path d="M15,30.2943485 C23.2842712,30.2943485 30,23.5127276 30,15.1471743 C30,6.78162091 23.2842712,0 15,0 C6.71572875,0 0,6.78162091 0,15.1471743 C0,23.5127276 6.71572875,30.2943485 15,30.2943485 Z" id="Oval-13-Copy-6" stroke="#062944" stroke-width="1.41428564" fill="#7BD170" fill-rule="nonzero"></path>
            <ellipse id="Oval-13-Copy-5" stroke="#062944" stroke-width="1.13142845" fill="#FFFFFF" fill-rule="nonzero" cx="15" cy="15.1471743" rx="11.953125" ry="12.0704045"></ellipse>
            <path d="M16.40625,5.91686494 C20.8072691,5.91686494 24.375,9.51960108 24.375,13.9638013 L16.40625,13.9638013 L16.40625,5.91686494 Z" id="Oval-17-Copy-2" fill="#7BD170" fill-rule="nonzero"></path>
            <line x1="15" y1="8.04693632" x2="15" y2="14.2004759" id="Line-Copy-27" stroke="#062944" stroke-width="0.942857093" stroke-linecap="round"></line>
            <line x1="22.03125" y1="15.3838489" x2="16.171875" y2="15.3838489" id="Line-Copy-26" stroke="#062944" stroke-width="0.942857093" stroke-linecap="round"></line>
            <line x1="15.234375" y1="21.3007138" x2="15.234375" y2="24.9549695" id="Line-Copy-25" stroke="#062944" stroke-width="0.707142821" stroke-linecap="round"></line>
            <line x1="5.390625" y1="15.1471743" x2="9.00703136" y2="15.1471743" id="Line-Copy-24" stroke="#062944" stroke-width="0.707142821" stroke-linecap="round"></line>
            <ellipse id="Oval-16-Copy-2" stroke="#062944" stroke-width="0.707142821" cx="15" cy="15.3838489" rx="1" ry="1"></ellipse>
            <g id="Line-+-Line-Copy-15" stroke-linecap="round" transform="translate(6.562500, 19.170642)" stroke="#062944" stroke-width="0.707142821">
                <line x1="4.5017075" y1="3.31344437" x2="3.515625" y2="4.30920193" id="Line"></line>
                <line x1="1.33126599" y1="0.14582532" x2="0.123566507" y2="0.849932248" id="Line-Copy-7"></line>
            </g>
            <g id="Line-+-Line-Copy-14" stroke-linecap="round" transform="translate(9.296875, 8.623707) scale(-1, 1) rotate(-180.000000) translate(-9.296875, -8.623707) translate(6.796875, 6.123707)" stroke="#062944" stroke-width="0.707142821">
                <line x1="4.5017075" y1="3.31344437" x2="3.515625" y2="4.30920193" id="Line"></line>
                <line x1="1.33126599" y1="0.14582532" x2="0.123566507" y2="0.849932248" id="Line-Copy-7"></line>
            </g>
            <g id="Line-+-Line-Copy-13" stroke-linecap="round" transform="translate(21.171875, 21.197293) scale(-1, 1) translate(-21.171875, -21.197293) translate(18.671875, 18.697293)" stroke="#062944" stroke-width="0.707142821">
                <line x1="4.5017075" y1="3.31344437" x2="3.515625" y2="4.30920193" id="Line"></line>
                <line x1="1.33126599" y1="0.14582532" x2="0.123566507" y2="0.849932248" id="Line-Copy-7"></line>
            </g>
        </g>
    </g>
</svg>