<?xml version="1.0" encoding="UTF-8"?>
<svg width="49px" height="34px" viewBox="0 0 49 34" version="1.1" xmlns="http://www.w3.org/2000/svg" xmlns:xlink="http://www.w3.org/1999/xlink">
    <title>board-rating-spec staff</title>
    <g id="board-rating-spec-staff" stroke="none" stroke-width="1" fill="none" fill-rule="evenodd">
        <g id="staff-icon-53d5b736bc459159798f3480e4ec26e83ba539c0c427fb7310254148f9afd6d0" transform="translate(0.000000, 2.000000)">
            <rect id="Rectangle" fill="#FFFFFF" fill-rule="nonzero" opacity="0.01" x="0" y="0" width="49" height="31"></rect>
            <g id="Group-Copy-3" transform="translate(14.168675, 0.000000)">
                <path d="M0.371927714,30.6244231 L20.8653353,30.6244231 L20.8653353,25.755937 C20.8653353,20.0413138 16.2777297,15.4086965 10.6186315,15.4086965 C4.95953326,15.4086965 0.371927714,20.0413138 0.371927714,25.755937 L0.371927714,30.6244231 Z" id="Rectangle-478" stroke="#062944" stroke-width="0.743855428" fill="#7BD170" fill-rule="nonzero"></path>
                <path d="M7.24695583,15.6617369 L13.9907,15.6617369 L12.2122163,18.6462052 C11.6826651,19.5348436 10.5399947,19.8217293 9.65999059,19.2869823 C9.39984475,19.128901 9.18198484,18.9089035 9.02543953,18.6462052 L7.24695583,15.6617369 Z" id="Triangle-20" stroke="#062944" stroke-width="0.743855428" fill="#FFFFFF" fill-rule="nonzero"></path>
                <polygon id="Triangle-20" stroke="#062944" stroke-width="0.619879559" fill="#7BD170" fill-rule="nonzero" transform="translate(8.370065, 18.878020) rotate(-120.000000) translate(-8.370065, -18.878020) " points="8.36373003 18.124759 11.1477122 19.6312816 5.5924184 19.607852"></polygon>
                <polygon id="Triangle-20-Copy-2" stroke="#062944" stroke-width="0.619879559" fill="#7BD170" fill-rule="nonzero" transform="translate(12.895653, 18.878020) scale(-1, 1) rotate(-120.000000) translate(-12.895653, -18.878020) " points="12.8893178 18.1247592 15.6732999 19.6312818 10.1180061 19.6078522"></polygon>
                <line x1="4.05404276" y1="30.3001141" x2="4.05404276" y2="22.8881838" id="Line" stroke="#062944" stroke-width="0.743855428" stroke-linecap="round"></line>
                <line x1="17.1989693" y1="30.3001141" x2="17.1989693" y2="22.8881838" id="Line-Copy-4" stroke="#062944" stroke-width="0.743855428" stroke-linecap="round"></line>
                <polygon id="Combined-Shape" fill="#062944" fill-rule="nonzero" points="11.1912625 18.5345043 12.1621283 27.2282959 10.646314 28.3598071 9.09088375 27.2282959 10.0617496 18.5345043 8.72233444 16.4160777 12.5306776 16.4160777"></polygon>
                <g id="icon-head" transform="translate(3.882762, 0.000000)">
                    <path d="M1.52600691,4.09358433 L1.52600691,11.5259098 C1.52600691,14.4358605 3.86206747,16.7948416 6.74374419,16.7948416 C9.62542097,16.7948416 11.9614815,14.4358605 11.9614815,11.5259098 L11.9614815,4.09358433 L1.52600691,4.09358433 Z" id="Rectangle-477" stroke="#062944" stroke-width="0.743855428" fill="#FFFFFF" fill-rule="nonzero"></path>
                    <g id="icon-face" transform="translate(3.202363, 8.873549)">
                        <path d="M2.30551233,0.167396856 L0.40871177,0.167396856 C0.273276612,0.167396856 0.163484723,0.279816028 0.163484723,0.418492104 C0.163484723,0.55716818 0.273276612,0.66958735 0.40871177,0.66958735 L2.30551233,0.66958735 C2.44094749,0.66958735 2.55073938,0.55716818 2.55073938,0.418492104 C2.55073938,0.279816028 2.44094749,0.167396856 2.30551233,0.167396856 L2.30551233,0.167396856 Z" id="Line" fill="#062944" fill-rule="nonzero"></path>
                        <path d="M6.72810446,0.167396856 L4.83130387,0.167396856 C4.69586872,0.167396856 4.58607682,0.279816028 4.58607682,0.418492104 C4.58607682,0.55716818 4.69586872,0.66958735 4.83130387,0.66958735 L6.72810446,0.66958735 C6.86353957,0.66958735 6.97333151,0.55716818 6.97333151,0.418492104 C6.97333151,0.279816028 6.86353957,0.167396856 6.72810446,0.167396856 L6.72810446,0.167396856 Z" id="Line-Copy-5" fill="#062944" fill-rule="nonzero"></path>
                        <ellipse id="Oval-47" fill="#062944" fill-rule="nonzero" cx="1.33008512" cy="1.61286505" rx="1" ry="1"></ellipse>
                        <ellipse id="Oval-47-Copy" fill="#062944" fill-rule="nonzero" cx="5.75267723" cy="1.61286505" rx="1" ry="1"></ellipse>
                        <path d="M3.84897814,1.48714159 L3.84897814,3.43585534 C3.84897814,3.57453141 3.95877003,3.68695059 4.09420519,3.68695059 C4.22964035,3.68695059 4.33943224,3.57453141 4.33943224,3.43585534 L4.33943224,1.48714159 C4.33943224,1.34846551 4.22964035,1.23604634 4.09420519,1.23604634 C3.95877003,1.23604634 3.84897814,1.34846551 3.84897814,1.48714159 L3.84897814,1.48714159 Z" id="Line" fill="#062944" fill-rule="nonzero"></path>
                        <path d="M3.23425672,3.68695059 L4.0327803,3.68695059 C4.16821546,3.68695059 4.27800735,3.57453141 4.27800735,3.43585534 C4.27800735,3.29717927 4.16821546,3.18476009 4.0327803,3.18476009 L3.23425672,3.18476009 C3.09882157,3.18476009 2.98902968,3.29717927 2.98902968,3.43585534 C2.98902968,3.57453141 3.09882157,3.68695059 3.23425672,3.68695059 L3.23425672,3.68695059 Z" id="Line" fill="#062944" fill-rule="nonzero"></path>
                        <path d="M2.49715804,4.94453696 L4.83130387,4.94453696 C4.66773492,5.45605476 4.20701889,5.82460124 3.66423096,5.82460124 C3.12144303,5.82460124 2.66072699,5.45605476 2.49715804,4.94453696 Z" id="Combined-Shape" stroke="#062944" stroke-width="0.5"></path>
                    </g>
                    <path d="M1.77108434,2.36267428 C1.77108434,2.36267428 6.60270431,0.401230561 7.6920471,0.219690481 C8.78138989,0.0381504011 7.0480708,1.66487844 9.08235621,0.965651115 C11.1166417,0.266423789 9.13062304,2.36267428 11.003975,2.36267428 C12.877327,2.36267428 1.77108434,2.36267428 1.77108434,2.36267428 Z" id="Path-67" fill="#062944" fill-rule="nonzero"></path>
                    <rect id="Rectangle-481-Copy-2" fill="#062944" fill-rule="nonzero" x="0.170099696" y="3.46656047" width="13.147289" height="4.9480537"></rect>
                    <path d="M1.52600691,4.09358433 L1.52600691,11.5259098 C1.52600691,14.4358605 3.86206747,16.7948416 6.74374419,16.7948416 C9.62542097,16.7948416 11.9614815,14.4358605 11.9614815,11.5259098 L11.9614815,4.09358433 L1.52600691,4.09358433 Z" id="Rectangle-477-Copy-2" stroke="#062944" stroke-width="0.743855428" fill="#FFFFFF" fill-rule="nonzero"></path>
                    <path d="M3.77750602,1.49630667 L8.41741169,1.49630667 C11.1235943,1.49630667 13.3173887,3.71162577 13.3173887,6.44436036 C10.6006062,7.78668451 8.89472406,7.28210967 8.1997423,4.93063579 C4.34587083,6.43685133 1.66932329,6.50634188 0.170099698,5.13910748 L0.170099698,5.13910748 C0.170099698,3.12724415 1.78519052,1.49630667 3.77750602,1.49630667 Z" id="Rectangle-482-Copy-2" fill="#062944" fill-rule="nonzero"></path>
                    <g id="icon-face-copy-2" transform="translate(3.202363, 8.873549)">
                        <path d="M2.30551233,0.167396856 L0.40871177,0.167396856 C0.273276612,0.167396856 0.163484723,0.279816028 0.163484723,0.418492104 C0.163484723,0.55716818 0.273276612,0.66958735 0.40871177,0.66958735 L2.30551233,0.66958735 C2.44094749,0.66958735 2.55073938,0.55716818 2.55073938,0.418492104 C2.55073938,0.279816028 2.44094749,0.167396856 2.30551233,0.167396856 L2.30551233,0.167396856 Z" id="Line" fill="#062944" fill-rule="nonzero"></path>
                        <path d="M6.72810446,0.167396856 L4.83130387,0.167396856 C4.69586872,0.167396856 4.58607682,0.279816028 4.58607682,0.418492104 C4.58607682,0.55716818 4.69586872,0.66958735 4.83130387,0.66958735 L6.72810446,0.66958735 C6.86353957,0.66958735 6.97333151,0.55716818 6.97333151,0.418492104 C6.97333151,0.279816028 6.86353957,0.167396856 6.72810446,0.167396856 L6.72810446,0.167396856 Z" id="Line-Copy-5" fill="#062944" fill-rule="nonzero"></path>
                        <ellipse id="Oval-47" fill="#062944" fill-rule="nonzero" cx="1.33008512" cy="1.61286505" rx="1" ry="1"></ellipse>
                        <ellipse id="Oval-47-Copy" fill="#062944" fill-rule="nonzero" cx="5.75267723" cy="1.61286505" rx="1" ry="1"></ellipse>
                        <path d="M3.84897814,1.48714159 L3.84897814,3.43585534 C3.84897814,3.57453141 3.95877003,3.68695059 4.09420519,3.68695059 C4.22964035,3.68695059 4.33943224,3.57453141 4.33943224,3.43585534 L4.33943224,1.48714159 C4.33943224,1.34846551 4.22964035,1.23604634 4.09420519,1.23604634 C3.95877003,1.23604634 3.84897814,1.34846551 3.84897814,1.48714159 L3.84897814,1.48714159 Z" id="Line" fill="#062944" fill-rule="nonzero"></path>
                        <path d="M3.23425672,3.68695059 L4.0327803,3.68695059 C4.16821546,3.68695059 4.27800735,3.57453141 4.27800735,3.43585534 C4.27800735,3.29717927 4.16821546,3.18476009 4.0327803,3.18476009 L3.23425672,3.18476009 C3.09882157,3.18476009 2.98902968,3.29717927 2.98902968,3.43585534 C2.98902968,3.57453141 3.09882157,3.68695059 3.23425672,3.68695059 L3.23425672,3.68695059 Z" id="Line" fill="#062944" fill-rule="nonzero"></path>
                        <path d="M2.49715804,4.94453696 L4.83130387,4.94453696 C4.66773492,5.45605476 4.20701889,5.82460124 3.66423096,5.82460124 C3.12144303,5.82460124 2.66072699,5.45605476 2.49715804,4.94453696 Z" id="Combined-Shape" stroke="#062944" stroke-width="0.5"></path>
                    </g>
                </g>
            </g>
        </g>
    </g>
</svg>