<?xml version="1.0" encoding="UTF-8"?>
<svg width="35px" height="35px" viewBox="0 0 35 35" version="1.1" xmlns="http://www.w3.org/2000/svg" xmlns:xlink="http://www.w3.org/1999/xlink">
    <title>board-rating-spec staff</title>
    <g id="board-rating-spec-staff" stroke="none" stroke-width="1" fill="none" fill-rule="evenodd">
        <rect id="Rectangle" fill="#FFFFFF" fill-rule="nonzero" opacity="0.01" x="3" y="2" width="32" height="31"></rect>
        <g id="Group-Copy-3" transform="translate(7.000000, 1.000000)">
            <path d="M0.391209681,32.6001923 L21.9470635,32.6001923 L21.9470635,27.4176103 C21.9470635,21.3343018 17.1216213,16.4028059 11.1691366,16.4028059 C5.21665192,16.4028059 0.391209681,21.3343018 0.391209681,27.4176103 L0.391209681,32.6001923 Z" id="Rectangle-478" stroke="#062944" stroke-width="0.7918461" fill="#7BD170" fill-rule="nonzero"></path>
            <path d="M7.62266207,16.6721715 L14.7160243,16.6721715 L12.8453382,19.8491862 C12.2883332,20.7951561 11.086423,21.1005505 10.1607966,20.5313037 C9.88716389,20.3630236 9.6580094,20.1288328 9.49334826,19.8491862 L7.62266207,16.6721715 Z" id="Triangle-20" stroke="#062944" stroke-width="0.7918461" fill="#FFFFFF" fill-rule="nonzero"></path>
            <polygon id="Triangle-20" stroke="#062944" stroke-width="0.659871789" fill="#7BD170" fill-rule="nonzero" transform="translate(8.808548, 20.088631) rotate(-120.000000) translate(-8.808548, -20.088631) " points="8.79362104 19.2862932 11.7566618 20.890969 5.86043364 20.8357659"></polygon>
            <polygon id="Triangle-20-Copy-2" stroke="#062944" stroke-width="0.659871789" fill="#7BD170" fill-rule="nonzero" transform="translate(13.559656, 20.088631) scale(-1, 1) rotate(-120.000000) translate(-13.559656, -20.088631) " points="13.5447294 19.2862935 16.50777 20.8909692 10.6115419 20.8357662"></polygon>
            <line x1="4.26421779" y1="32.2549601" x2="4.26421779" y2="24.3648408" id="Line" stroke="#062944" stroke-width="0.7918461" stroke-linecap="round"></line>
            <line x1="18.0906209" y1="32.2549601" x2="18.0906209" y2="24.3648408" id="Line-Copy-4" stroke="#062944" stroke-width="0.7918461" stroke-linecap="round"></line>
            <polygon id="Combined-Shape" fill="#062944" fill-rule="nonzero" points="11.7714547 19.7302787 12.7926534 28.9849602 11.1982543 30.1894721 9.56218533 28.9849602 10.583384 19.7302787 9.1745292 17.4751794 13.1803095 17.4751794"></polygon>
            <g id="icon-head" transform="translate(4.084057, 0.000000)">
                <path d="M1.60512017,4.35768654 L1.60512017,12.2695169 C1.60512017,15.3672063 4.06228986,17.8783797 7.09336227,17.8783797 C10.1244347,17.8783797 12.5816044,15.3672063 12.5816044,12.2695169 L12.5816044,4.35768654 L1.60512017,4.35768654 Z" id="Rectangle-477" stroke="#062944" stroke-width="0.7918461" fill="#FFFFFF" fill-rule="nonzero"></path>
                <g id="icon-face" transform="translate(3.368384, 9.446035)">
                    <path d="M2.42503774,0.178196654 L0.429900744,0.178196654 C0.287444178,0.178196654 0.171960313,0.297868675 0.171960313,0.445491595 C0.171960313,0.593114514 0.287444178,0.712786533 0.429900744,0.712786533 L2.42503774,0.712786533 C2.56749431,0.712786533 2.68297817,0.593114514 2.68297817,0.445491595 C2.68297817,0.297868675 2.56749431,0.178196654 2.42503774,0.178196654 L2.42503774,0.178196654 Z" id="Line" fill="#062944" fill-rule="nonzero"></path>
                    <path d="M7.07691172,0.178196654 L5.08177469,0.178196654 C4.93931813,0.178196654 4.82383426,0.297868675 4.82383426,0.445491595 C4.82383426,0.593114514 4.93931813,0.712786533 5.08177469,0.712786533 L7.07691172,0.712786533 C7.21936824,0.712786533 7.33485215,0.593114514 7.33485215,0.445491595 C7.33485215,0.297868675 7.21936824,0.178196654 7.07691172,0.178196654 L7.07691172,0.178196654 Z" id="Line-Copy-5" fill="#062944" fill-rule="nonzero"></path>
                    <ellipse id="Oval-47" fill="#062944" fill-rule="nonzero" cx="1.39904115" cy="1.71692086" rx="1" ry="1"></ellipse>
                    <ellipse id="Oval-47-Copy" fill="#062944" fill-rule="nonzero" cx="6.0509151" cy="1.71692086" rx="1" ry="1"></ellipse>
                    <path d="M4.04852194,1.5830862 L4.04852194,3.65752343 C4.04852194,3.80514634 4.1640058,3.92481837 4.30646237,3.92481837 C4.44891893,3.92481837 4.5644028,3.80514634 4.5644028,3.65752343 L4.5644028,1.5830862 C4.5644028,1.43546328 4.44891893,1.31579126 4.30646237,1.31579126 C4.1640058,1.31579126 4.04852194,1.43546328 4.04852194,1.5830862 L4.04852194,1.5830862 Z" id="Line" fill="#062944" fill-rule="nonzero"></path>
                    <path d="M3.40193132,3.92481837 L4.24185301,3.92481837 C4.38430958,3.92481837 4.49979344,3.80514634 4.49979344,3.65752343 C4.49979344,3.50990051 4.38430958,3.39022849 4.24185301,3.39022849 L3.40193132,3.39022849 C3.25947476,3.39022849 3.14399089,3.50990051 3.14399089,3.65752343 C3.14399089,3.80514634 3.25947476,3.92481837 3.40193132,3.92481837 L3.40193132,3.92481837 Z" id="Line" fill="#062944" fill-rule="nonzero"></path>
                    <path d="M2.626619,5.26353935 L5.08177469,5.26353935 C4.90972579,5.80805829 4.42512471,6.20038196 3.85419685,6.20038196 C3.28326899,6.20038196 2.79866791,5.80805829 2.626619,5.26353935 Z" id="Combined-Shape" stroke="#062944" stroke-width="0.532258065"></path>
                </g>
                <path d="M1.86290323,2.51510487 C1.86290323,2.51510487 6.9450104,0.427116403 8.09082834,0.23386406 C9.23664628,0.0406117173 7.41346617,1.77228995 9.55321569,1.02795119 C11.6929653,0.283612421 9.60398484,2.51510487 11.5744576,2.51510487 C13.5449304,2.51510487 1.86290323,2.51510487 1.86290323,2.51510487 Z" id="Path-67" fill="#062944" fill-rule="nonzero"></path>
                <rect id="Rectangle-481-Copy-2" fill="#062944" fill-rule="nonzero" x="0.178918229" y="3.69020953" width="13.8288881" height="5.26728297"></rect>
                <path d="M1.60512017,4.35768654 L1.60512017,12.2695169 C1.60512017,15.3672063 4.06228986,17.8783797 7.09336227,17.8783797 C10.1244347,17.8783797 12.5816044,15.3672063 12.5816044,12.2695169 L12.5816044,4.35768654 L1.60512017,4.35768654 Z" id="Rectangle-477-Copy-2" stroke="#062944" stroke-width="0.7918461" fill="#FFFFFF" fill-rule="nonzero"></path>
                <path d="M3.97334446,1.59284258 L8.85379824,1.59284258 C11.7002784,1.59284258 14.0078063,3.9510855 14.0078063,6.86012555 C11.1501768,8.28905125 9.35585606,7.75192319 8.62484414,5.24874133 C4.57117519,6.85213206 1.75586654,6.92610587 0.178918231,5.47066281 L0.178918231,5.47066281 C0.178918231,3.32900183 1.87774072,1.59284258 3.97334446,1.59284258 Z" id="Rectangle-482-Copy-2" fill="#062944" fill-rule="nonzero"></path>
                <g id="icon-face-copy-2" transform="translate(3.368384, 9.446035)">
                    <path d="M2.42503774,0.178196654 L0.429900744,0.178196654 C0.287444178,0.178196654 0.171960313,0.297868675 0.171960313,0.445491595 C0.171960313,0.593114514 0.287444178,0.712786533 0.429900744,0.712786533 L2.42503774,0.712786533 C2.56749431,0.712786533 2.68297817,0.593114514 2.68297817,0.445491595 C2.68297817,0.297868675 2.56749431,0.178196654 2.42503774,0.178196654 L2.42503774,0.178196654 Z" id="Line" fill="#062944" fill-rule="nonzero"></path>
                    <path d="M7.07691172,0.178196654 L5.08177469,0.178196654 C4.93931813,0.178196654 4.82383426,0.297868675 4.82383426,0.445491595 C4.82383426,0.593114514 4.93931813,0.712786533 5.08177469,0.712786533 L7.07691172,0.712786533 C7.21936824,0.712786533 7.33485215,0.593114514 7.33485215,0.445491595 C7.33485215,0.297868675 7.21936824,0.178196654 7.07691172,0.178196654 L7.07691172,0.178196654 Z" id="Line-Copy-5" fill="#062944" fill-rule="nonzero"></path>
                    <ellipse id="Oval-47" fill="#062944" fill-rule="nonzero" cx="1.39904115" cy="1.71692086" rx="1" ry="1"></ellipse>
                    <ellipse id="Oval-47-Copy" fill="#062944" fill-rule="nonzero" cx="6.0509151" cy="1.71692086" rx="1" ry="1"></ellipse>
                    <path d="M4.04852194,1.5830862 L4.04852194,3.65752343 C4.04852194,3.80514634 4.1640058,3.92481837 4.30646237,3.92481837 C4.44891893,3.92481837 4.5644028,3.80514634 4.5644028,3.65752343 L4.5644028,1.5830862 C4.5644028,1.43546328 4.44891893,1.31579126 4.30646237,1.31579126 C4.1640058,1.31579126 4.04852194,1.43546328 4.04852194,1.5830862 L4.04852194,1.5830862 Z" id="Line" fill="#062944" fill-rule="nonzero"></path>
                    <path d="M3.40193132,3.92481837 L4.24185301,3.92481837 C4.38430958,3.92481837 4.49979344,3.80514634 4.49979344,3.65752343 C4.49979344,3.50990051 4.38430958,3.39022849 4.24185301,3.39022849 L3.40193132,3.39022849 C3.25947476,3.39022849 3.14399089,3.50990051 3.14399089,3.65752343 C3.14399089,3.80514634 3.25947476,3.92481837 3.40193132,3.92481837 L3.40193132,3.92481837 Z" id="Line" fill="#062944" fill-rule="nonzero"></path>
                    <path d="M2.626619,5.26353935 L5.08177469,5.26353935 C4.90972579,5.80805829 4.42512471,6.20038196 3.85419685,6.20038196 C3.28326899,6.20038196 2.79866791,5.80805829 2.626619,5.26353935 Z" id="Combined-Shape" stroke="#062944" stroke-width="0.532258065"></path>
                </g>
            </g>
        </g>
    </g>
</svg>