<?xml version="1.0" encoding="UTF-8"?>
<svg width="25px" height="25px" viewBox="0 0 25 25" version="1.1" xmlns="http://www.w3.org/2000/svg" xmlns:xlink="http://www.w3.org/1999/xlink">
    <!-- Generator: Sketch 64 (93537) - https://sketch.com -->
    <title>Reservamos/Atoms/Icons/Amenities/bathroom</title>
    <desc>Created with Sketch.</desc>
    <g id="Reservamos/Atoms/Icons/Amenities/bathroom" stroke="none" stroke-width="1" fill="none" fill-rule="evenodd">
        <g id="bathroom" transform="translate(4.000000, 0.000000)">
            <path d="M15.7416667,14.4657407 C15.7416667,14.4657407 14.1916667,15.9416667 12.1231481,14.4657407 C10.0546296,12.9898148 8.33981481,14.4657407 8.33981481,14.4657407 L8.29351852,14.4657407 C8.29351852,14.4657407 6.73055556,15.9416667 4.64907407,14.4657407 C2.56759259,12.9898148 0.843518519,14.4657407 0.843518519,14.4657407 C0.843518519,14.4657407 2.10462963,18.6342593 8.48055556,19.4509259 C8.48055556,19.4509259 13.6490741,19.4009259 15.7416667,14.4657407" id="Fill-1" fill="#FF79A4"></path>
            <path d="M15.4161111,23.327037 L1.16981481,23.327037 C1.01796296,23.327037 0.892037037,23.2011111 0.892037037,23.0474074 L0.892037037,22.8622222 C0.892037037,22.7085185 1.01796296,22.5825926 1.16981481,22.5825926 L15.4161111,22.5825926 C15.5698148,22.5825926 15.6938889,22.7085185 15.6938889,22.8622222 L15.6938889,23.0474074 C15.6938889,23.2011111 15.5698148,23.327037 15.4161111,23.327037" id="Fill-3" fill="#181212"></path>
            <path d="M2.51907407,10.1272222 L2.51907407,1.95685185 C2.51907407,1.005 3.08574074,0.230925926 3.78574074,0.230925926 L12.8005556,0.230925926 C13.4987037,0.230925926 14.0672222,1.005 14.0672222,1.95685185 L14.0672222,10.1272222" id="Stroke-6" stroke="#181212" stroke-width="0.86"></path>
            <line x1="10.9527778" y1="19.0364815" x2="10.9527778" y2="22.5827778" id="Stroke-8" stroke="#181212" stroke-width="0.86"></line>
            <line x1="5.63333333" y1="22.582963" x2="5.63333333" y2="18.8996296" id="Stroke-10" stroke="#181212" stroke-width="0.86"></line>
            <path d="M5.28055556,3.45851852 C5.28055556,3.81592593 4.98981481,4.10666667 4.63240741,4.10666667 C4.275,4.10666667 3.98425926,3.81592593 3.98425926,3.45851852 C3.98425926,3.10111111 4.275,2.81037037 4.63240741,2.81037037 C4.98981481,2.81037037 5.28055556,3.10111111 5.28055556,3.45851852 Z" id="Stroke-12" stroke="#181212" stroke-width="0.520833333"></path>
            <path d="M4.20555556,2.63037037 L1.80185185,2.63037037 C1.72962963,2.63037037 1.67037037,2.68962963 1.67037037,2.76185185 L1.67037037,3.07296296 C1.67037037,3.14518519 1.72962963,3.20444444 1.80185185,3.20444444 L4.20555556,3.20444444 C4.27777778,3.20444444 4.33703704,3.14518519 4.33703704,3.07296296 L4.33703704,2.76185185 C4.33703704,2.68962963 4.27777778,2.63037037 4.20555556,2.63037037" id="Fill-14" fill="#181212"></path>
            <path d="M8.43185185,19.4507407 L8.15407407,19.4507407 C3.77814815,19.4507407 0.231851852,15.9025926 0.231851852,11.5285185 C0.231851852,10.8803704 0.755925926,10.3544444 1.40407407,10.3544444 L15.1837037,10.3544444 C15.83,10.3544444 16.3540741,10.8803704 16.3540741,11.5285185 C16.3540741,15.9025926 12.8077778,19.4507407 8.43185185,19.4507407 Z" id="Stroke-16" stroke="#181212" stroke-width="0.86"></path>
        </g>
    </g>
</svg>