<?xml version="1.0" encoding="UTF-8"?>
<svg width="25px" height="25px" viewBox="0 0 25 25" version="1.1" xmlns="http://www.w3.org/2000/svg" xmlns:xlink="http://www.w3.org/1999/xlink">
    <!-- Generator: Sketch 64 (93537) - https://sketch.com -->
    <title>Reservamos/Atoms/Icons/Amenities/eticket</title>
    <desc>Created with Sketch.</desc>
    <g id="Reservamos/Atoms/Icons/Amenities/eticket" stroke="none" stroke-width="1" fill="none" fill-rule="evenodd">
        <g id="eticket" transform="translate(7.000000, 1.000000)">
            <path d="M10.89855,22.7985558 L1.68003052,22.7985558 C0.885933117,22.7985558 0.243277273,22.1539584 0.243277273,21.3618026 L0.243277273,1.68022468 C0.243277273,0.886127273 0.885933117,0.243471429 1.68003052,0.243471429 L10.89855,0.243471429 C11.6926474,0.243471429 12.3353032,0.886127273 12.3353032,1.68022468 L12.3353032,21.3618026 C12.3353032,22.1539584 11.6926474,22.7985558 10.89855,22.7985558 Z" id="Stroke-1" stroke="#181212" stroke-width="0.7912"></path>
            <path d="M7.58994026,1.94097597 L3.96893377,1.94097597 C3.89127143,1.94097597 3.8272,1.87690455 3.8272,1.79924221 L3.8272,1.74293701 C3.8272,1.66527468 3.89127143,1.60120325 3.96893377,1.60120325 L7.58994026,1.60120325 C7.66954416,1.60120325 7.73167403,1.66527468 7.73167403,1.74293701 L7.73167403,1.79924221 C7.73167403,1.87690455 7.66954416,1.94097597 7.58994026,1.94097597" id="Fill-3" fill="#181212"></path>
            <path d="M8.75215714,1.77128377 C8.75215714,1.92078377 8.63178052,2.04310195 8.48033896,2.04310195 C8.3288974,2.04310195 8.20852078,1.92078377 8.20852078,1.77128377 C8.20852078,1.62178377 8.3288974,1.49946558 8.48033896,1.49946558 C8.63178052,1.49946558 8.75215714,1.62178377 8.75215714,1.77128377" id="Fill-5" fill="#181212"></path>
            <path d="M10.0300909,19.5876065 L2.54732468,19.5876065 C2.15318831,19.5876065 1.83283117,19.2672494 1.83283117,18.873113 L1.83283117,4.1328013 C1.83283117,3.73672338 2.15318831,3.41830779 2.54732468,3.41830779 L10.0300909,3.41830779 C10.4242273,3.41830779 10.7445844,3.73672338 10.7445844,4.1328013 L10.7445844,18.873113 C10.7445844,19.2672494 10.4242273,19.5876065 10.0300909,19.5876065 Z" id="Stroke-7" stroke="#181212" stroke-width="0.7912"></path>
            <path d="M9.66041818,11.502763 C9.66041818,13.3647175 8.15182727,14.87525 6.28987273,14.87525 C4.42791818,14.87525 2.91738571,13.3647175 2.91738571,11.502763 C2.91738571,9.64080844 4.42791818,8.13027597 6.28987273,8.13027597 C8.15182727,8.13027597 9.66041818,9.64080844 9.66041818,11.502763" id="Fill-9" fill="#FF79A4"></path>
            <path d="M5.51383182,12.7958409 L4.55664351,11.5085877 C4.50227987,11.454224 4.50227987,11.3629708 4.55664351,11.3086071 C4.6129487,11.2523019 4.70226039,11.2523019 4.75662403,11.3086071 L5.51383182,12.3939383 C5.56819545,12.4502435 5.65750714,12.4502435 5.71381234,12.3939383 L7.82040325,10.2096851 C7.87670844,10.1553214 7.96602013,10.1553214 8.02232532,10.2096851 C8.07668896,10.2659903 8.07668896,10.3553019 8.02232532,10.4096656 L5.71381234,12.7958409 C5.65750714,12.8502045 5.56819545,12.8502045 5.51383182,12.7958409 Z" id="Stroke-13" stroke="#FFFFFF" stroke-width="0.522727273"></path>
        </g>
    </g>
</svg>