<?xml version="1.0" encoding="UTF-8"?>
<svg width="25px" height="25px" viewBox="0 0 25 25" version="1.1" xmlns="http://www.w3.org/2000/svg" xmlns:xlink="http://www.w3.org/1999/xlink">
    <!-- Generator: Sketch 64 (93537) - https://sketch.com -->
    <title>Reservamos/Atoms/Icons/Amenities/tv</title>
    <desc>Created with Sketch.</desc>
    <g id="Reservamos/Atoms/Icons/Amenities/tv" stroke="none" stroke-width="1" fill="none" fill-rule="evenodd">
        <g id="tv" transform="translate(1.000000, 4.000000)">
            <path d="M21.8436682,13.8811161 L1.00676339,13.8811161 C0.568668155,13.8811161 0.214427083,13.5251637 0.214427083,13.0887798 L0.214427083,1.00693452 C0.214427083,0.568839286 0.568668155,0.214598214 1.00676339,0.214598214 L21.8436682,0.214598214 C22.2817634,0.214598214 22.6360045,0.568839286 22.6360045,1.00693452 L22.6360045,13.0887798 C22.6360045,13.5251637 22.2817634,13.8811161 21.8436682,13.8811161 Z" id="Stroke-1" stroke="#181212" stroke-width="0.7912"></path>
            <line x1="7.85405506" y1="17.0456696" x2="7.85405506" y2="13.879747" id="Stroke-3" stroke="#181212" stroke-width="0.7912"></line>
            <line x1="14.9967188" y1="13.8795759" x2="14.9967188" y2="17.0454985" id="Stroke-5" stroke="#181212" stroke-width="0.7912"></line>
            <path d="M18.7727232,17.6605432 L4.07770833,17.6605432 C3.94251488,17.6605432 3.83299107,17.549308 3.83299107,17.4141146 L3.83299107,17.3473735 C3.83299107,17.2121801 3.94251488,17.1009449 4.07770833,17.1009449 L18.7727232,17.1009449 C18.9079167,17.1009449 19.0191518,17.2121801 19.0191518,17.3473735 L19.0191518,17.4141146 C19.0191518,17.549308 18.9079167,17.6605432 18.7727232,17.6605432" id="Fill-7" fill="#181212"></path>
            <path d="M19.9802232,12.0787649 L2.8705506,12.0787649 C2.43245536,12.0787649 2.07821429,11.7228125 2.07821429,11.2864286 L2.07821429,2.80860119 C2.07821429,2.37221726 2.43245536,2.01626488 2.8705506,2.01626488 L19.9802232,2.01626488 C20.4183185,2.01626488 20.7725595,2.37221726 20.7725595,2.80860119 L20.7725595,11.2864286 C20.7725595,11.7228125 20.4183185,12.0787649 19.9802232,12.0787649 Z" id="Stroke-10" stroke="#181212" stroke-width="0.7912"></path>
            <path d="M15.1897545,7.04768601 C15.1897545,9.12692708 13.5041146,10.812567 11.4248735,10.812567 C9.34563244,10.812567 7.66170387,9.12692708 7.66170387,7.04768601 C7.66170387,4.96844494 9.34563244,3.28280506 11.4248735,3.28280506 C13.5041146,3.28280506 15.1897545,4.96844494 15.1897545,7.04768601" id="Fill-12" fill="#FF79A4"></path>
            <path d="M13.3329836,6.81614583 C13.4989807,6.9188244 13.4989807,7.17552083 13.3329836,7.27991071 L11.9177307,8.15610119 L10.5024777,9.03229167 C10.3364807,9.13668155 10.1277009,9.00662202 10.1277009,8.80126488 L10.1277009,7.04717262 L10.1277009,5.29308036 C10.1277009,5.08772321 10.3364807,4.959375 10.5024777,5.06205357 L11.9177307,5.93824405 L13.3329836,6.81614583 Z" id="Fill-14" fill="#FCFCFC"></path>
        </g>
    </g>
</svg>