<?xml version="1.0" encoding="UTF-8"?>
<svg width="25px" height="25px" viewBox="0 0 25 25" version="1.1" xmlns="http://www.w3.org/2000/svg" xmlns:xlink="http://www.w3.org/1999/xlink">
    <!-- Generator: Sketch 64 (93537) - https://sketch.com -->
    <title>Reservamos/Atoms/Icons/Amenities/wardrobe</title>
    <desc>Created with Sketch.</desc>
    <g id="Reservamos/Atoms/Icons/Amenities/wardrobe" stroke="none" stroke-width="1" fill="none" fill-rule="evenodd">
        <g id="wardrobe" transform="translate(1.248947, 1.001196)">
            <path d="M5.70034158,19.3584079 L16.6103607,19.3584079 C16.6103607,19.3584079 17.2142584,23.6076152 15.6616634,23.2269404 L6.6490389,23.2269404 C6.6490389,23.2269404 5.70034158,23.3544963 5.70034158,21.8955753 L5.70034158,19.3584079 Z" id="Fill-1" fill="#FF79A4"></path>
            <polygon id="Fill-3" fill="#FFFFFF" points="5.80796691 21.0533074 16.620326 21.0533074 16.620326 20.2780065 5.80796691 20.2780065"></polygon>
            <line x1="14.0676127" y1="11.5155112" x2="8.35948435" y2="11.5155112" id="Stroke-5" stroke="#181212" stroke-width="0.824166667"></line>
            <path d="M2.6425865,11.5155112 L0.35255874,11.5155112 C0.0157313328,11.5155112 -0.129762163,11.1786838 0.141294213,11.0192389 L9.58442,5.43268726 L11.2127513,4.55773323 L12.9865761,5.51240973 L22.2842084,11.0192389 C22.5532717,11.1786838 22.4117643,11.5155112 22.0749369,11.5155112 L19.6194851,11.5155112" id="Stroke-6" stroke="#181212" stroke-width="0.824166667"></path>
            <path d="M11.4634785,4.85908414 L10.7180734,4.85709108 L10.7200665,3.84062967 C10.7300318,3.40813531 11.028991,2.96368257 11.7046389,2.87997399 C11.8302018,2.8640295 11.9737022,2.75839723 12.0912929,2.59496618 C12.2746545,2.33786124 12.3623492,2.00103383 12.3145158,1.73994276 C12.2965782,1.62434519 12.1331471,0.753377279 11.1007412,0.751384217 C10.3951974,0.751384217 10.1640023,1.28751778 10.088266,1.63829662 C10.0503978,1.80969992 9.89294593,1.92729055 9.71954957,1.92330443 C9.48636137,1.91931831 9.30897889,1.70207459 9.35880542,1.47087945 C9.50828504,0.809183003 9.98064064,2.39808173e-14 11.0987482,2.39808173e-14 C12.4679815,0.00199306158 12.9722261,1.0583157 13.0499555,1.61836601 C13.1356571,2.0648118 12.9981359,2.61688986 12.6951905,3.03742585 C12.4500439,3.37624632 12.1351402,3.64331658 11.7983128,3.62737208 C11.4574993,3.61142759 11.4634785,3.90042152 11.4594923,3.90241458 L11.4634785,4.85908414 Z" id="Fill-7" fill="#181212"></path>
            <path d="M11.2123527,12.5714352 C9.01400577,12.4757683 8.13107949,11.2819244 7.85005781,10.7617353 C7.76634922,10.6062765 7.60690429,10.5225679 7.43948712,10.5225679 L3.15839084,10.5225679 C2.87138997,10.5225679 2.64019483,10.7657215 2.64019483,11.0666737 L2.64019483,13.9406686 C2.64019483,14.2416209 2.87138997,14.4867674 3.15839084,14.4867674 L4.81063889,14.4867674 C5.33481409,14.4867674 5.7593362,14.9352063 5.7593362,15.4892774 L5.7593362,22.2178533 C5.7593362,22.7719244 6.18385832,23.2203633 6.70604046,23.2203633 L10.3912113,23.2203633 L12.0334941,23.2203633 L15.720658,23.2203633 C16.2428401,23.2203633 16.6673623,22.7719244 16.6673623,22.2178533 L16.6673623,15.4892774 C16.6673623,14.9352063 17.0918844,14.4867674 17.6160596,14.4867674 L19.2683076,14.4867674 C19.5553085,14.4867674 19.7845106,14.2416209 19.7845106,13.9406686 L19.7845106,11.0666737 C19.7845106,10.7657215 19.5553085,10.5225679 19.2683076,10.5225679 L15.0230864,10.5225679 C14.8337456,10.5225679 14.6663284,10.6282002 14.588599,10.8095688 C14.3474386,11.3795844 13.5781168,12.597345 11.4435478,12.5714352 L11.2123527,12.5714352 Z" id="Stroke-8" stroke="#181212" stroke-width="0.824166667"></path>
        </g>
    </g>
</svg>